<svg xmlns="http://www.w3.org/2000/svg" width="83.322" height="18.833" viewBox="0 0 83.322 18.833">
  <g id="Layer_2" data-name="Layer 2" transform="translate(0.008 0.008)">
    <g id="Layer_1" data-name="Layer 1" transform="translate(-0.008 -0.008)">
      <path id="Path_3806" data-name="Path 3806" d="M131.521-.006h-2.059a.024.024,0,0,0-.021,0L119.312,15.4a.03.03,0,0,1-.042,0l-2.9-4.279-1.956-2.9a.027.027,0,0,0-.021,0L112.2,8.2a.027.027,0,0,0-.021.039l2.323,3.452h0l4.766,7.119a.027.027,0,0,0,.042,0L131.533.04a.024.024,0,0,0-.012-.045Z" transform="translate(-78.208 0.008)" fill="#414141"/>
      <path id="Path_3807" data-name="Path 3807" d="M264.237,19.616a1.145,1.145,0,0,0,.836-.357,1.063,1.063,0,0,0,.3-.751,1.154,1.154,0,0,0-.385-.863,1.13,1.13,0,0,0-1.538.055,1.108,1.108,0,0,0-.33.924,1.041,1.041,0,0,0,.251.584,1.12,1.12,0,0,0,.863.409Z" transform="translate(-183.438 -12.106)" fill="#414141"/>
      <path id="Path_3808" data-name="Path 3808" d="M165.182,32.042a1.578,1.578,0,0,0-.024-.173l-.027-.167a3.561,3.561,0,0,0-3.818-3.052,4.325,4.325,0,0,0-3.731,2.374h0a5.45,5.45,0,0,0-.415,1.033,6.107,6.107,0,0,0-.251,1.817,4.96,4.96,0,0,0,.651,2.6,3.691,3.691,0,0,0,1.687,1.532,5.393,5.393,0,0,0,2.192.451,6.011,6.011,0,0,0,1.4-.191,6.108,6.108,0,0,0,1.784-.836h0l.3-.687h0a.148.148,0,0,0-.03-.157c-.048-.055-.118,0-.118,0a8.2,8.2,0,0,1-1.311.645,3.688,3.688,0,0,1-1.3.23,3.352,3.352,0,0,1-2.423-.945,3.88,3.88,0,0,1-1-2.822c.091,0,6.265.3,6.423-.463a5.147,5.147,0,0,0,.03-.578A5.008,5.008,0,0,0,165.182,32.042Zm-3.988-2.486a2.047,2.047,0,0,1,1.659.727,3.417,3.417,0,0,1,.606,2.223v.221a42.068,42.068,0,0,1-4.688,0,3.693,3.693,0,0,1,.639-2.35,2.138,2.138,0,0,1,1.784-.821Z" transform="translate(-109.395 -19.972)" fill="#414141"/>
      <path id="Path_3809" data-name="Path 3809" d="M14.227,20.482c-.733.039-1.287.061-1.669.061-.657,0-1.514-.018-2.556-.051L9.4,20.47a.085.085,0,0,0-.088.094V21s-.021.091.088.091a11.873,11.873,0,0,1,1.7.1.669.669,0,0,1,.494.279,2.934,2.934,0,0,1,.1,1v1.511A1.366,1.366,0,0,1,10.9,25.2a6.577,6.577,0,0,1-.721.182,8.839,8.839,0,0,1-1.693.17A6.159,6.159,0,0,1,5.16,24.64a5.881,5.881,0,0,1-2.208-2.516,7.931,7.931,0,0,1-.8-3.461,7.416,7.416,0,0,1,.715-3.286,4.939,4.939,0,0,1,2.12-2.253,6.62,6.62,0,0,1,3.237-.772,8.2,8.2,0,0,1,1.608.148,7.383,7.383,0,0,1,1.493.466l.209.091c.394.185.93.488.96.775,0,.106.024.254.036.46l.048,1.078a.079.079,0,0,0,.082.082h.457a.079.079,0,0,0,.082-.073,25.472,25.472,0,0,1,.421-2.859c.021-.079-.07-.112-.07-.112a12.534,12.534,0,0,0-5.024-.963,9.026,9.026,0,0,0-6.171,2.071A7.048,7.048,0,0,0-.006,19.111a7.374,7.374,0,0,0,1.048,3.982A6.689,6.689,0,0,0,3.88,25.624a9.184,9.184,0,0,0,4.006.854,15.365,15.365,0,0,0,5.626-1.069l.061-.1a18.508,18.508,0,0,1-.109-1.923,12.209,12.209,0,0,1,.042-1.323,3.722,3.722,0,0,1,.076-.606.639.639,0,0,1,.209-.173l.491-.3c.042-.027.039-.124.039-.124v-.3C14.321,20.467,14.227,20.482,14.227,20.482Z" transform="translate(0.008 -7.977)" fill="#414141"/>
      <path id="Path_3810" data-name="Path 3810" d="M86.943,37.673h-.606a1.817,1.817,0,0,1-.587-.073.515.515,0,0,1-.236-.26,3.634,3.634,0,0,1-.1-1.033q-.051-2.3-.051-2.45V32.1q0-2.023.109-3.331l-.188-.13a13.021,13.021,0,0,1-3.219.751l-.079.079v.43l.091.079h.839a1.211,1.211,0,0,1,.518.073.3.3,0,0,1,.154.236c.018.106.039.391.067.848s.039.824.039,1.09V33.3l-.03,1.12a5.075,5.075,0,0,1-.079,1.008,3.246,3.246,0,0,1-.466.7,2.768,2.768,0,0,1-1,.805,3.1,3.1,0,0,1-1.329.285,2.292,2.292,0,0,1-1.139-.266,1.447,1.447,0,0,1-.675-.763,5.538,5.538,0,0,1-.194-1.781V32.1q0-2.023.109-3.331l-.191-.13a12.973,12.973,0,0,1-3.216.751l-.079.079v.43l.088.079h.839a1.226,1.226,0,0,1,.521.073.3.3,0,0,1,.154.236c.018.106.039.391.064.848s.042.824.042,1.09V34.99a6.181,6.181,0,0,0,.26,2.153,1.99,1.99,0,0,0,.884.978A3.57,3.57,0,0,0,80,38.475a3.885,3.885,0,0,0,1.32-.209,2.392,2.392,0,0,0,.887-.518,15.14,15.14,0,0,1,1.4-1.278.021.021,0,0,1,.036.021c0,.372-.036.815-.067,1.311h0l-.03.488a.115.115,0,0,0,.109.127H86.9a.133.133,0,0,0,.124-.127l.027-.488a.112.112,0,0,0-.112-.13Z" transform="translate(-52.565 -19.965)" fill="#414141"/>
      <path id="Path_3811" data-name="Path 3811" d="M232.189,25.738h0a5.333,5.333,0,0,1-1.166-.17.645.645,0,0,1-.3-.23,2.552,2.552,0,0,1-.124-.893c-.024-.506-.036-1.093-.036-1.765V16.124q0-3.455.109-4.606l-.188-.118a12.9,12.9,0,0,1-3.237.745.082.082,0,0,0-.079.088v.421a.082.082,0,0,0,.091.091,8.948,8.948,0,0,1,1.211.039.354.354,0,0,1,.2.124,1.592,1.592,0,0,1,.1.539c.027.3.048.842.061,1.614l.039,2.186a.024.024,0,0,1-.036.021,4.954,4.954,0,0,0-2.38-.606,5.081,5.081,0,0,0-4.542,2.577h0a4.161,4.161,0,0,0-.218.451,5.687,5.687,0,0,0-.424,2.174,5.928,5.928,0,0,0,.408,2.161,3.746,3.746,0,0,0,1.375,1.736,3.915,3.915,0,0,0,2.211.675h0a3.37,3.37,0,0,0,.69-.033,2.52,2.52,0,0,0,.645-.154,4.33,4.33,0,0,0,2.262-1.817v.379c0,.26,0,.715-.03,1.369h0v.112a.115.115,0,0,0,.115.115h3.216a.121.121,0,0,0,.121-.115v-.43a.112.112,0,0,0-.094-.124Zm-3.367-2.952a2.62,2.62,0,0,1-.424,1.139,2.768,2.768,0,0,1-.93.908,2.5,2.5,0,0,1-1.293.333,2.777,2.777,0,0,1-2.223-1.06,4.239,4.239,0,0,1-.884-2.807,5.937,5.937,0,0,1,.17-1.435,3.2,3.2,0,0,1,1.245-1.884,2.182,2.182,0,0,1,.3-.154l.082-.036.058-.021a2.894,2.894,0,0,1,3.973,2.61V20.7C228.883,21.72,228.865,22.413,228.822,22.786Z" transform="translate(-154.263 -7.945)" fill="#414141"/>
      <path id="Path_3812" data-name="Path 3812" d="M195.866,37.957h-.036c-.69,0-1.1-.061-1.211-.182a2.1,2.1,0,0,1-.209-1.126q-.051-2.32-.048-2.489V32.4a6.163,6.163,0,0,0-.142-1.429,2.344,2.344,0,0,0-.5-1,2.956,2.956,0,0,0-1.081-.736,3.667,3.667,0,0,0-1.472-.3,4.019,4.019,0,0,0-.606.051l-.145.021a4.39,4.39,0,0,0-2.656,1.781c0-.7.039-1.269.079-1.7l-.191-.13a12.982,12.982,0,0,1-3.216.748l-.079.082v.427l.088.082h.839a1.169,1.169,0,0,1,.521.076.3.3,0,0,1,.154.233c.018.109.039.391.067.851s.039.824.039,1.087V34.5c0,.375-.015.927-.045,1.656s-.058,1.157-.079,1.287a.566.566,0,0,1-.13.3.475.475,0,0,1-.221.124c-.082.021-.448.051-1.093.091,0,0-.091,0-.091.079v.421a.086.086,0,0,0,0,.018v.076a.115.115,0,0,0,.115.115h4.742a.115.115,0,0,0,.115-.115v-.524c0-.13-.1-.115-.1-.115s-.475-.036-.984-.088c-.339-.036-.442-.43-.475-.684v-.236l-.033-.766v-.073c-.027-.8-.039-1.269-.039-1.414V32.921a7.334,7.334,0,0,1,.045-1.045,1.29,1.29,0,0,1,.263-.53,3.162,3.162,0,0,1,.678-.606,2.871,2.871,0,0,1,.83-.43,3.307,3.307,0,0,1,.89-.106,2.453,2.453,0,0,1,1.117.236,1.89,1.89,0,0,1,.751.66,2.1,2.1,0,0,1,.333.945c.036.345.058.908.058,1.7v1.311c0,1.211-.033,2.2-.1,3.028a.042.042,0,0,0,0,.018l-.039.463a.109.109,0,0,0,.106.121h3.164a.133.133,0,0,0,.127-.121l.039-.463a.106.106,0,0,0-.139-.142Z" transform="translate(-128.523 -20.167)" fill="#414141"/>
      <path id="Path_3813" data-name="Path 3813" d="M263.5,37.935h-.055q-.908-.055-1.027-.082a.394.394,0,0,1-.218-.115.566.566,0,0,1-.136-.3,13.205,13.205,0,0,1-.085-1.4c-.027-.793-.039-1.266-.039-1.411V32.381q0-2.017.109-3.331l-.191-.13a12.973,12.973,0,0,1-3.216.751.079.079,0,0,0-.079.079v.43a.08.08,0,0,0,.088.079h.839a1.169,1.169,0,0,1,.521.076.3.3,0,0,1,.154.233c.018.106.039.391.067.848s.039.824.039,1.09v1.968q0,.557-.045,1.653c-.03.73-.058,1.16-.079,1.29a.521.521,0,0,1-.13.288.466.466,0,0,1-.221.127c-.079.018-.406.045-.978.082h-.121a.13.13,0,0,0-.1.127V38.5a.136.136,0,0,0,.136.133h4.721a.133.133,0,0,0,.133-.133v-.469A.091.091,0,0,0,263.5,37.935Z" transform="translate(-180.261 -20.16)" fill="#414141"/>
      <path id="Path_3814" data-name="Path 3814" d="M57.417,37.986v-.112a.079.079,0,0,0-.079-.088l-.569-.051a1.569,1.569,0,0,1-.409-.076.439.439,0,0,1-.2-.173,1.868,1.868,0,0,1-.085-.742V33.768l.051-2.008a3.216,3.216,0,0,0-.339-1.514,2.7,2.7,0,0,0-1.1-1.072,3.837,3.837,0,0,0-1.911-.43A5.727,5.727,0,0,0,49.45,29.98a.366.366,0,0,0-.118.27V31.3a.091.091,0,0,0,.079.1h.07l.091.024.164.042.067.018s.039.018.07-.051a10.963,10.963,0,0,1,.539-1.211,1.42,1.42,0,0,1,.545-.276,3.14,3.14,0,0,1,1.054-.17,2.516,2.516,0,0,1,1.768.606,2.73,2.73,0,0,1,.66,2.059.03.03,0,0,1-.021.027q-4.085.587-5,1.411a2.919,2.919,0,0,0-.908,2.292,2.45,2.45,0,0,0,.3,1.26,2.305,2.305,0,0,0,.154.227h0a2.191,2.191,0,0,0,1.723.863h.375a3.493,3.493,0,0,0,3.364-1.877l-.021,1.56a.154.154,0,0,0,0,.07v.136a.118.118,0,0,0,.118.115h2.786a.118.118,0,0,0,.124-.109v-.43Zm-2.986-2.2a.024.024,0,0,1,0,.015,3.58,3.58,0,0,1-2.622,1.532,1.373,1.373,0,0,1-1.547-1.56,2,2,0,0,1,.687-1.669,9.208,9.208,0,0,1,3.458-1.011.027.027,0,0,1,.03.027Z" transform="translate(-33.813 -20.036)" fill="#414141"/>
    </g>
  </g>
</svg>
