<svg width="100" height="100" viewBox="0 0 100 100" fill="none" xmlns="http://www.w3.org/2000/svg">
<g clip-path="url(#clip0_4678_91264)">
<path d="M49.248 9.89233C44.0321 9.90547 38.9215 11.3937 34.4819 14.1923C30.0423 16.9909 26.4468 20.9908 24.0935 25.749C21.7402 30.5073 20.7209 35.8384 21.1483 41.1523C21.5757 46.4662 23.4332 51.5555 26.5152 55.857L47.9446 89.1337C48.0788 89.3649 48.2696 89.5564 48.4981 89.6894C48.7266 89.8224 48.985 89.8923 49.248 89.8923C49.5109 89.8923 49.7694 89.8224 49.9979 89.6894C50.2264 89.5564 50.4171 89.3649 50.5513 89.1337L71.6322 56.4612C75.3361 51.3516 77.3913 45.1896 77.5124 38.8313C77.5184 35.0332 76.7917 31.2711 75.3739 27.7604C73.9562 24.2496 71.8752 21.059 69.25 18.3712C66.6248 15.6833 63.507 13.551 60.0748 12.0961C56.6426 10.6412 52.9635 9.89233 49.248 9.89233ZM49.3692 49.8616C46.7914 49.8616 44.2716 49.0802 42.1282 47.6162C39.9849 46.1523 38.3144 44.0715 37.3279 41.637C36.3414 39.2025 36.0833 36.5237 36.5862 33.9393C37.0891 31.3549 38.3304 28.9809 40.1532 27.1177C41.9759 25.2544 44.2983 23.9855 46.8265 23.4714C49.3548 22.9573 51.9754 23.2212 54.3569 24.2296C56.7385 25.238 58.774 26.9456 60.2061 29.1366C61.6383 31.3276 62.4027 33.9034 62.4027 36.5385C62.4067 38.2907 62.0725 40.0265 61.4193 41.6465C60.7661 43.2665 59.8067 44.7389 58.596 45.9794C57.3853 47.2198 55.9472 48.204 54.3639 48.8754C52.7806 49.5469 51.0834 49.8926 49.3692 49.8926V49.8616Z" fill="#000000"/>
</g>
<defs>
<clipPath id="clip0_4678_91264">
<rect width="100" height="100" fill="white"/>
</clipPath>
</defs>
</svg>
