<svg width="100" height="100" viewBox="0 0 100 100" fill="none" xmlns="http://www.w3.org/2000/svg">
<g clip-path="url(#clip0_4678_91260)">
<path d="M93.7296 55.1325V55.0155C93.7296 54.8984 93.7296 54.7921 93.7296 54.675C92.9549 47.1011 73.0348 41.0271 48.5716 41.0271C24.1085 41.0271 4.27208 47.0586 3.34045 54.6112C3.34516 54.6501 3.34516 54.6894 3.34045 54.7282C3.34045 54.8559 3.34045 54.9942 3.34045 55.1325V77.1415C3.39231 78.1597 3.82685 79.1188 4.55438 79.8208C5.2819 80.5229 6.24689 80.9143 7.25016 80.9143C8.25344 80.9143 9.21842 80.5229 9.94595 79.8208C10.6735 79.1188 11.108 78.1597 11.1599 77.1415V69.6101H85.9101V77.1415C85.962 78.1597 86.3965 79.1188 87.1241 79.8208C87.8516 80.5229 88.8166 80.9143 89.8199 80.9143C90.8231 80.9143 91.7881 80.5229 92.5156 79.8208C93.2432 79.1188 93.6777 78.1597 93.7296 77.1415V55.1431V55.1325Z" fill="#000000"/>
<path d="M17.6993 40.0265V29.389C17.6892 29.0644 17.7445 28.7412 17.8618 28.4391C17.9791 28.137 18.1559 27.8625 18.3813 27.6324C18.6068 27.4023 18.8762 27.2214 19.1729 27.1009C19.4696 26.9804 19.7875 26.9229 20.1069 26.9317C23.8398 27.596 27.6224 27.9305 31.4121 27.9316C35.2003 27.8968 38.9801 27.5625 42.7173 26.9317C43.0418 26.911 43.3669 26.959 43.6722 27.0728C43.9774 27.1866 44.256 27.3637 44.4903 27.5928C44.7246 27.8218 44.9094 28.0979 45.0331 28.4035C45.1567 28.7091 45.2165 29.0374 45.2086 29.3677V37.0267C46.3182 37.0267 47.4382 37.0267 48.5792 37.0267C49.7202 37.0267 50.8403 37.0267 51.9498 37.0267V29.3677C51.9397 29.0422 51.9953 28.7181 52.1132 28.4153C52.2311 28.1124 52.4088 27.8374 52.6354 27.6071C52.862 27.3769 53.1327 27.1962 53.4306 27.0764C53.7286 26.9566 54.0476 26.9001 54.3679 26.9104C58.0972 27.5755 61.8763 27.9101 65.6626 27.9104C69.4508 27.8756 73.2306 27.5413 76.9678 26.9104C77.2872 26.9016 77.6051 26.9592 77.9018 27.0797C78.1985 27.2001 78.4679 27.381 78.6934 27.6111C78.9188 27.8412 79.0956 28.1158 79.2129 28.4178C79.3302 28.7199 79.3855 29.0431 79.3754 29.3677V40.0052H79.4277C82.1007 40.76 84.7004 41.7605 87.1948 42.9944V21.2832C87.1934 20.7925 87.0966 20.3068 86.9099 19.8543C86.7232 19.4017 86.4503 18.9911 86.1069 18.6461C85.7635 18.3011 85.3564 18.0284 84.9089 17.8439C84.4615 17.6593 83.9826 17.5665 83.4997 17.5707H13.575C12.6088 17.5763 11.6839 17.9696 11.0016 18.6649C10.3193 19.3602 9.935 20.3013 9.93225 21.2832V43.005C12.4255 41.7712 15.0255 40.7741 17.6993 40.0265Z" fill="#000000"/>
</g>
<defs>
<clipPath id="clip0_4678_91260">
<rect width="100" height="100" fill="white"/>
</clipPath>
</defs>
</svg>
