<svg width="100" height="100" viewBox="0 0 100 100" fill="none" xmlns="http://www.w3.org/2000/svg">
<g clip-path="url(#clip0_4678_91263)">
<path fill-rule="evenodd" clip-rule="evenodd" d="M81.6133 88.9596H83.7102C84.4765 88.9596 85.2353 88.8082 85.943 88.5139C86.6506 88.2197 87.2931 87.7885 87.8335 87.2451C88.3739 86.7018 88.8016 86.0569 89.092 85.3477C89.3824 84.6385 89.5297 83.8788 89.5255 83.1125V14.7792C89.5255 13.2369 88.9128 11.7577 87.8223 10.6671C86.7317 9.57656 85.2525 8.96387 83.7102 8.96387H15.3028C13.7604 8.96387 12.2813 9.57656 11.1907 10.6671C10.1001 11.7577 9.48739 13.2369 9.48739 14.7792V83.1125C9.4832 83.8788 9.63053 84.6385 9.92091 85.3477C10.2113 86.0569 10.639 86.7018 11.1794 87.2451C11.7198 87.7885 12.3623 88.2197 13.07 88.5139C13.7776 88.8082 14.5364 88.9596 15.3028 88.9596H53.0237V84.5547L55.4561 81.0681H19.0208C18.8105 81.0752 18.6009 81.0399 18.4046 80.9643C18.2082 80.8887 18.0291 80.7744 17.8778 80.6281C17.7266 80.4818 17.6064 80.3066 17.5243 80.1128C17.4422 79.9191 17.4 79.7108 17.4001 79.5004V18.4231C17.4 18.2127 17.4422 18.0044 17.5243 17.8107C17.6064 17.6169 17.7266 17.4417 17.8778 17.2954C18.0291 17.1491 18.2082 17.0348 18.4046 16.9592C18.6009 16.8836 18.8105 16.8483 19.0208 16.8554H80.0451C80.4609 16.8554 80.8596 17.0206 81.1536 17.3146C81.4476 17.6086 81.6128 18.0073 81.6128 18.4231V78.9935L81.6133 78.9936V88.9596Z" fill="#000000"/>
<path d="M53.088 88.9639L73.9406 68.1113L68.3754 62.5462L47.5228 83.3987L53.088 88.9639Z" fill="#000000"/>
<path d="M53.4685 30.3187V14.6416H45.5558V30.3187H53.4685Z" fill="#000000"/>
<path d="M17.4005 53.0291L53.4685 53.0291V45.1163L17.4005 45.1163V53.0291Z" fill="#000000"/>
</g>
<defs>
<clipPath id="clip0_4678_91263">
<rect width="100" height="100" fill="white"/>
</clipPath>
</defs>
</svg>
