<svg width="100" height="100" viewBox="0 0 100 100" fill="none" xmlns="http://www.w3.org/2000/svg">
<g clip-path="url(#clip0_4678_91261)">
<path d="M80.5423 18.7876H71.976V27.3539H80.5423V18.7876Z" fill="#000000"/>
<path d="M66.8353 18.7876H58.269V27.3539H66.8353V18.7876Z" fill="#000000"/>
<path d="M53.13 18.7876H44.5637V27.3539H53.13V18.7876Z" fill="#000000"/>
<path d="M71.976 32.4945V41.0608H80.5423V32.4945H71.976Z" fill="#000000"/>
<path d="M71.976 46.2015V54.7678H80.5423V46.2015H71.976Z" fill="#000000"/>
<path d="M89.5878 75.3373L71.5185 63.847C71.3124 63.717 71.0754 63.6443 70.8318 63.6365C70.5883 63.6286 70.347 63.6857 70.1329 63.8021C69.9188 63.9184 69.7396 64.0898 69.6138 64.2984C69.4879 64.5071 69.42 64.7455 69.4169 64.9892V72.1621H27.2249V30.0957H34.4206C34.6643 30.0926 34.9027 30.0247 35.1114 29.8988C35.32 29.7729 35.4913 29.5937 35.6077 29.3796C35.7241 29.1655 35.7812 28.9243 35.7733 28.6807C35.7654 28.4372 35.6928 28.2002 35.5628 27.994L24.1067 9.93622C23.9817 9.74774 23.812 9.59313 23.6127 9.48617C23.4134 9.37922 23.1907 9.32324 22.9646 9.32324C22.7384 9.32324 22.5157 9.37922 22.3164 9.48617C22.1171 9.59313 21.9474 9.74774 21.8224 9.93622L10.3092 27.994C10.1793 28.2002 10.1066 28.4372 10.0987 28.6807C10.0908 28.9243 10.148 29.1655 10.2643 29.3796C10.3807 29.5937 10.552 29.7729 10.7607 29.8988C10.9693 30.0247 11.2078 30.0926 11.4514 30.0957H18.67V73.6583C18.67 75.5395 19.4173 77.3436 20.7474 78.6738C22.0776 80.0039 23.8817 80.7512 25.7629 80.7512H69.4169V87.9698C69.42 88.2134 69.4879 88.4519 69.6138 88.6605C69.7396 88.8692 69.9188 89.0405 70.1329 89.1569C70.347 89.2732 70.5883 89.3304 70.8318 89.3225C71.0754 89.3146 71.3124 89.242 71.5185 89.112L89.5878 77.6902C89.7913 77.5686 89.9597 77.3962 90.0767 77.19C90.1937 76.9838 90.2551 76.7508 90.2551 76.5138C90.2551 76.2767 90.1937 76.0437 90.0767 75.8375C89.9597 75.6313 89.7913 75.4589 89.5878 75.3373Z" fill="#000000"/>
</g>
<defs>
<clipPath id="clip0_4678_91261">
<rect width="100" height="100" fill="white"/>
</clipPath>
</defs>
</svg>
