<svg width="18" height="18" viewBox="0 0 18 18" fill="none" xmlns="http://www.w3.org/2000/svg">
<path fill-rule="evenodd" clip-rule="evenodd" d="M2.92519 8.99971C2.92519 5.64458 5.64507 2.92471 9.0002 2.92471C12.3553 2.92471 15.0752 5.64458 15.0752 8.99971C15.0752 12.3548 12.3553 15.0747 9.00019 15.0747C5.64506 15.0747 2.92519 12.3548 2.92519 8.99971ZM9.0002 1.57471C4.89948 1.57471 1.57519 4.89899 1.57519 8.99971C1.57519 13.1004 4.89948 16.4247 9.00019 16.4247C13.1009 16.4247 16.4252 13.1004 16.4252 8.99971C16.4252 4.899 13.1009 1.57471 9.0002 1.57471ZM9.64312 5.99912C9.64312 5.64408 9.35531 5.35626 9.00027 5.35626C8.64523 5.35626 8.35741 5.64408 8.35741 5.99912L8.35741 8.35626L6.00027 8.35626C5.64523 8.35626 5.35741 8.64408 5.35741 8.99912C5.35741 9.35416 5.64523 9.64198 6.00027 9.64198L8.35741 9.64198L8.35741 11.9991C8.35741 12.3542 8.64523 12.642 9.00027 12.642C9.35531 12.642 9.64312 12.3542 9.64312 11.9991L9.64312 9.64198L12.0003 9.64198C12.3553 9.64198 12.6431 9.35416 12.6431 8.99912C12.6431 8.64408 12.3553 8.35627 12.0003 8.35626L9.64312 8.35626L9.64312 5.99912Z" fill="#1F1F1F"/>
</svg>
