<svg width="16" height="16" viewBox="0 0 16 16" fill="none" xmlns="http://www.w3.org/2000/svg">
<g clip-path="url(#clip0_5551_73936)">
<path d="M16 13.2188C16 13.426 15.9234 13.6247 15.787 13.7712C15.6506 13.9177 15.4656 14 15.2727 14H6.54545C6.35257 14 6.16759 13.9177 6.0312 13.7712C5.89481 13.6247 5.81818 13.426 5.81818 13.2188C5.81818 11.9755 6.27792 10.7833 7.09626 9.90419C7.9146 9.02511 9.02451 8.53125 10.1818 8.53125H11.6364C12.7937 8.53125 13.9036 9.02511 14.7219 9.90419C15.5403 10.7833 16 11.9755 16 13.2188ZM10.9091 1.5C10.3337 1.5 9.77129 1.68328 9.29289 2.02666C8.81449 2.37004 8.44162 2.8581 8.22144 3.42911C8.00126 4.00013 7.94365 4.62847 8.0559 5.23466C8.16815 5.84085 8.44521 6.39767 8.85205 6.83471C9.2589 7.27175 9.77725 7.56938 10.3416 7.68995C10.9059 7.81053 11.4908 7.74865 12.0224 7.51212C12.5539 7.2756 13.0083 6.87506 13.3279 6.36116C13.6476 5.84725 13.8182 5.24307 13.8182 4.625C13.8182 3.7962 13.5117 3.00134 12.9661 2.41529C12.4206 1.82924 11.6806 1.5 10.9091 1.5ZM4.36364 1.5C3.78827 1.5 3.22583 1.68328 2.74743 2.02666C2.26903 2.37004 1.89617 2.8581 1.67599 3.42911C1.4558 4.00013 1.3982 4.62847 1.51044 5.23466C1.62269 5.84085 1.89975 6.39767 2.3066 6.83471C2.71344 7.27175 3.23179 7.56938 3.7961 7.68995C4.36041 7.81053 4.94533 7.74865 5.4769 7.51212C6.00846 7.2756 6.4628 6.87506 6.78246 6.36116C7.10211 5.84725 7.27273 5.24307 7.27273 4.625C7.27273 3.7962 6.96624 3.00134 6.42067 2.41529C5.87511 1.82924 5.13518 1.5 4.36364 1.5ZM4.36364 13.2188C4.36256 12.3981 4.51306 11.5854 4.80643 10.8278C5.0998 10.0701 5.53021 9.38243 6.07273 8.80469C5.62875 8.62462 5.1582 8.532 4.68364 8.53125H4.04364C2.97179 8.53332 1.94439 8.99162 1.18648 9.80579C0.428565 10.62 0.0019226 11.7236 0 12.875V13.2188C0 13.426 0.0766231 13.6247 0.213013 13.7712C0.349403 13.9177 0.534388 14 0.727273 14H4.49455C4.40987 13.7495 4.3656 13.4853 4.36364 13.2188Z" fill="#1F1F1F"/>
</g>
<defs>
<clipPath id="clip0_5551_73936">
<rect width="16" height="16" fill="white"/>
</clipPath>
</defs>
</svg>
