<svg width="22" height="23" viewBox="0 0 22 23" fill="none" xmlns="http://www.w3.org/2000/svg">
<path d="M17.9489 6.21263L20.6771 7.94677C20.7204 7.97465 20.7703 7.99038 20.8218 7.99237C20.8733 7.99434 20.9243 7.98248 20.9695 7.958C21.0148 7.93352 21.0527 7.89735 21.079 7.85323C21.1056 7.80911 21.1197 7.75869 21.1202 7.70724V4.23657C21.119 4.18541 21.1044 4.13547 21.0778 4.0918C21.051 4.04814 21.0134 4.01233 20.9683 3.98799C20.9233 3.96366 20.8725 3.95168 20.8215 3.95326C20.7703 3.95487 20.7204 3.96996 20.6771 3.99705L17.9489 5.73358C17.9094 5.75979 17.8771 5.79538 17.8546 5.83718C17.832 5.87897 17.8203 5.92566 17.8203 5.97311C17.8203 6.02053 17.832 6.06721 17.8546 6.10901C17.8771 6.15081 17.9094 6.1864 17.9489 6.21263Z" fill="#1F1F1F"/>
<path d="M7.56058 14.7528H3.63482C3.52809 14.7528 3.42574 14.7104 3.35027 14.635C3.27482 14.5595 3.23242 14.457 3.23242 14.3504V10.4102C3.23242 10.3035 3.27482 10.2011 3.35027 10.1257C3.42574 10.0502 3.52809 10.0078 3.63482 10.0078H7.56058C7.66751 10.0078 7.77012 10.0501 7.84597 10.1255C7.92181 10.2009 7.96473 10.3033 7.96538 10.4102V14.3504C7.96473 14.4572 7.92181 14.5595 7.84597 14.635C7.77012 14.7104 7.66751 14.7528 7.56058 14.7528ZM4.18093 13.7947H7.01447V10.9563H4.18093V13.7947Z" fill="#1F1F1F"/>
<path d="M7.56058 8.42266H3.63482C3.52809 8.42266 3.42574 8.38027 3.35027 8.3048C3.27482 8.22935 3.23242 8.127 3.23242 8.02027V4.08013C3.23242 3.9734 3.27482 3.87105 3.35027 3.7956C3.42574 3.72013 3.52809 3.67773 3.63482 3.67773H7.56058C7.66751 3.67773 7.77012 3.72006 7.84597 3.79544C7.92181 3.87084 7.96473 3.97318 7.96538 4.08013V8.02027C7.96473 8.12721 7.92181 8.22956 7.84597 8.30497C7.77012 8.38034 7.66751 8.42266 7.56058 8.42266ZM4.18093 7.46458H7.01447V4.62624H4.18093V7.46458Z" fill="#1F1F1F"/>
<path d="M7.56058 21.1625H3.63482C3.52809 21.1625 3.42574 21.1201 3.35027 21.0446C3.27482 20.9692 3.23242 20.8669 3.23242 20.7601V16.8223C3.23242 16.7157 3.27482 16.6132 3.35027 16.5378C3.42574 16.4623 3.52809 16.4199 3.63482 16.4199H7.56058C7.66751 16.4199 7.77012 16.4623 7.84597 16.5378C7.92181 16.613 7.96473 16.7155 7.96538 16.8223V20.7625C7.96411 20.869 7.9209 20.9708 7.84514 21.0456C7.76935 21.1205 7.6671 21.1625 7.56058 21.1625ZM4.18093 20.2044H7.01447V17.3684H4.18093V20.2044Z" fill="#1F1F1F"/>
<path d="M13.7347 14.7528H9.80669C9.75386 14.7528 9.70152 14.7423 9.65271 14.7222C9.60389 14.7018 9.55953 14.6723 9.52214 14.635C9.48478 14.5976 9.45515 14.5531 9.43493 14.5044C9.41469 14.4556 9.4043 14.4031 9.4043 14.3504V10.4102C9.4043 10.3573 9.41469 10.305 9.43493 10.2562C9.45515 10.2074 9.48478 10.163 9.52214 10.1257C9.55953 10.0883 9.60389 10.0587 9.65271 10.0384C9.70152 10.0182 9.75386 10.0078 9.80669 10.0078H13.7347C13.8416 10.0078 13.9438 10.0502 14.0193 10.1257C14.0947 10.2011 14.1371 10.3035 14.1371 10.4102V14.3504C14.1371 14.457 14.0947 14.5595 14.0193 14.635C13.9438 14.7104 13.8416 14.7528 13.7347 14.7528ZM10.3528 13.7947H13.1886V10.9563H10.3528V13.7947Z" fill="#1F1F1F"/>
<path d="M13.7347 8.42506H9.80669C9.75386 8.42506 9.70152 8.41464 9.65271 8.39443C9.60389 8.37421 9.55953 8.34456 9.52214 8.30719C9.48478 8.26983 9.45515 8.22547 9.43493 8.17665C9.41469 8.12784 9.4043 8.0755 9.4043 8.02266V4.08013C9.4043 4.02729 9.41469 3.97496 9.43493 3.92614C9.45515 3.87733 9.48478 3.83297 9.52214 3.7956C9.55953 3.75824 9.60389 3.72858 9.65271 3.70837C9.70152 3.68815 9.75386 3.67773 9.80669 3.67773H13.7347C13.8416 3.67773 13.9438 3.72013 14.0193 3.7956C14.0947 3.87105 14.1371 3.9734 14.1371 4.08013V8.02266C14.1371 8.12939 14.0947 8.23174 14.0193 8.30719C13.9438 8.38267 13.8416 8.42506 13.7347 8.42506Z" fill="#1F1F1F"/>
<path d="M13.7347 21.1625H9.80669C9.75386 21.1625 9.70152 21.1522 9.65271 21.1318C9.60389 21.1117 9.55953 21.082 9.52214 21.0446C9.48478 21.0072 9.45515 20.9629 9.43493 20.9141C9.41469 20.8652 9.4043 20.813 9.4043 20.7601V16.8223C9.4043 16.7696 9.41469 16.7172 9.43493 16.6683C9.45515 16.6194 9.48478 16.5751 9.52214 16.5378C9.55953 16.5004 9.60389 16.4709 9.65271 16.4506C9.70152 16.4305 9.75386 16.4199 9.80669 16.4199H13.7347C13.8416 16.4199 13.9438 16.4623 14.0193 16.5378C14.0947 16.6132 14.1371 16.7157 14.1371 16.8223V20.7625C14.1367 20.8688 14.094 20.9706 14.0186 21.0456C13.9431 21.1205 13.8411 21.1625 13.7347 21.1625ZM10.3528 20.2044H13.1886V17.3684H10.3528V20.2044Z" fill="#1F1F1F"/>
<path d="M1.62458 22.3153V2.99554C1.62458 2.69992 1.74185 2.41638 1.95064 2.20713C2.15946 1.99788 2.44274 1.87999 2.73836 1.87937H14.6091C14.9047 1.87999 15.1881 1.99788 15.3967 2.20713C15.6056 2.41638 15.7229 2.69992 15.7229 2.99554V22.3153C15.7234 22.4535 15.7787 22.5857 15.8767 22.683C15.9744 22.7804 16.1069 22.8351 16.2451 22.8351C16.3136 22.8355 16.3814 22.8224 16.4446 22.7962C16.5081 22.7704 16.5656 22.7321 16.6142 22.6837C16.6626 22.6355 16.7011 22.578 16.7275 22.5148C16.7536 22.4516 16.7672 22.3838 16.7672 22.3153V2.95961C16.7675 2.68136 16.7129 2.40577 16.6068 2.14859C16.5004 1.89142 16.3445 1.65772 16.1478 1.46085C15.9512 1.26399 15.7176 1.1078 15.4606 1.00123C15.2036 0.894695 14.9279 0.839844 14.6499 0.839844H2.70722C2.42897 0.839844 2.15342 0.894695 1.89639 1.00123C1.63933 1.1078 1.4058 1.26399 1.20915 1.46085C1.01251 1.65772 0.856601 1.89142 0.750325 2.14859C0.644073 2.40577 0.589534 2.68136 0.589845 2.95961V22.3201C0.590468 22.4583 0.645774 22.5905 0.743619 22.6877C0.841487 22.7852 0.973943 22.8398 1.112 22.8398C1.24923 22.8374 1.37996 22.7809 1.47588 22.6827C1.57181 22.5845 1.62523 22.4525 1.62458 22.3153Z" fill="#1F1F1F"/>
</svg>
