<svg width="14" height="15" viewBox="0 0 14 15" fill="none" xmlns="http://www.w3.org/2000/svg">
<path d="M13.2997 8.23965C13.2997 8.22334 13.2997 8.20851 13.2997 8.1922C13.1917 7.13641 10.4149 6.28971 7.00482 6.28971C3.59472 6.28971 0.829574 7.13048 0.699707 8.1833C0.700363 8.18872 0.700363 8.19419 0.699707 8.19961C0.699707 8.2174 0.699707 8.23668 0.699707 8.25596V11.324C0.706936 11.4659 0.76751 11.5996 0.868925 11.6974C0.97034 11.7953 1.10486 11.8499 1.24471 11.8499C1.38456 11.8499 1.51908 11.7953 1.6205 11.6974C1.72191 11.5996 1.78248 11.4659 1.78971 11.324V10.2741H12.2097V11.324C12.2169 11.4659 12.2775 11.5996 12.3789 11.6974C12.4803 11.7953 12.6149 11.8499 12.7547 11.8499C12.8946 11.8499 13.0291 11.7953 13.1305 11.6974C13.2319 11.5996 13.2925 11.4659 13.2997 11.324V8.23965Z" fill="#000000"/>
<path d="M2.70185 6.15032V4.66748C2.70044 4.62223 2.70815 4.57717 2.7245 4.53507C2.74085 4.49296 2.76549 4.45469 2.79692 4.42261C2.82835 4.39054 2.8659 4.36532 2.90726 4.34853C2.94863 4.33173 2.99293 4.32371 3.03746 4.32494C3.55782 4.41754 4.0851 4.46417 4.61337 4.46433C5.14144 4.45948 5.66834 4.41287 6.18929 4.32494C6.23452 4.32205 6.27985 4.32875 6.32239 4.34461C6.36494 4.36047 6.40378 4.38516 6.43644 4.41709C6.4691 4.44902 6.49486 4.48751 6.5121 4.5301C6.52934 4.5727 6.53767 4.61847 6.53657 4.66451V5.73216C6.69124 5.73216 6.84738 5.73216 7.00643 5.73216C7.16548 5.73216 7.32161 5.73216 7.47628 5.73216V4.66451C7.47486 4.61914 7.48261 4.57395 7.49905 4.53174C7.51549 4.48953 7.54026 4.45119 7.57185 4.41909C7.60344 4.38699 7.64116 4.36182 7.6827 4.34511C7.72424 4.32841 7.7687 4.32053 7.81335 4.32197C8.33321 4.41468 8.86001 4.46132 9.3878 4.46136C9.91587 4.45651 10.4428 4.40991 10.9637 4.32197C11.0082 4.32074 11.0526 4.32877 11.0939 4.34556C11.1353 4.36236 11.1728 4.38757 11.2043 4.41965C11.2357 4.45173 11.2603 4.48999 11.2767 4.5321C11.293 4.57421 11.3007 4.61927 11.2993 4.66451V6.14735H11.3066C11.6792 6.25256 12.0416 6.39203 12.3893 6.56403V3.53755C12.3891 3.46914 12.3756 3.40145 12.3496 3.33836C12.3236 3.27528 12.2856 3.21804 12.2377 3.16994C12.1898 3.12185 12.1331 3.08385 12.0707 3.05812C12.0083 3.03239 11.9416 3.01945 11.8742 3.02004H2.12693C1.99224 3.02082 1.86331 3.07564 1.76821 3.17257C1.6731 3.26949 1.61952 3.40067 1.61914 3.53755V6.56552C1.96669 6.39352 2.32913 6.25453 2.70185 6.15032Z" fill="#000000"/>
</svg>
