<svg width="22" height="18" viewBox="0 0 22 18" fill="none" xmlns="http://www.w3.org/2000/svg">
<path d="M11.014 1.25544C11.0745 1.17863 11.1141 1.13208 11.1513 1.08088C11.3724 0.766658 11.5982 0.454767 11.8123 0.133565C11.8961 0.00787725 11.9776 -0.013071 12.0916 0.0823586L12.1219 0.105635C12.4594 0.36632 12.4733 0.440801 12.2429 0.789934C12.0125 1.13907 11.7774 1.4882 11.5446 1.82802C11.5058 1.87387 11.4844 1.93202 11.4844 1.99211C11.4844 2.05221 11.5058 2.11038 11.5446 2.15621C12.322 3.3805 19.5607 14.8367 20.3195 16.0563C20.3623 16.1419 20.4291 16.2134 20.5118 16.2618C20.5944 16.31 20.6894 16.3333 20.785 16.3286H21.7859C21.9395 16.3286 22 16.3752 22 16.5404C22 16.7057 22 16.964 22 16.964C22 17.1526 21.9674 17.2131 21.7672 17.2108H0.169911C0.0535335 17.2108 0.00232755 17.1619 0 17.0525C0 16.8616 0 16.6684 0 16.4752C0 16.3379 0.0954301 16.3286 0.197842 16.3286H1.20102C1.29219 16.3365 1.38366 16.3172 1.46396 16.2734C1.54428 16.2295 1.60987 16.1629 1.65256 16.0819C2.52772 14.6854 10.0317 2.9243 10.5275 2.17948C10.5731 2.12632 10.5981 2.05864 10.5981 1.98862C10.5981 1.91861 10.5731 1.85092 10.5275 1.79776C10.2529 1.40208 9.99217 0.997086 9.71519 0.60373C9.69376 0.581293 9.67702 0.554782 9.66599 0.52578C9.65496 0.496779 9.64983 0.465869 9.65091 0.434866C9.652 0.40384 9.65926 0.373372 9.6723 0.345209C9.68533 0.317045 9.70388 0.291792 9.72683 0.27089C10.076 -0.09919 10.1085 -0.0968627 10.3785 0.319769C10.5298 0.552524 10.6835 0.785279 10.8441 1.02967C10.8906 1.0995 10.9395 1.16001 11.014 1.25544ZM6.84067 16.3007H15.1337L11.0419 9.69747C9.62442 11.9226 8.24651 14.0895 6.84067 16.3007Z" fill="#1F1F1F"/>
</svg>
