<svg width="16" height="16" viewBox="0 0 16 16" fill="none" xmlns="http://www.w3.org/2000/svg">
<g clip-path="url(#clip0_5551_73940)">
<path d="M8.99998 2C7.88209 1.72015 8.50623 0.559702 8.49998 0C5.94571 0.629664 6.5 3 6.5 3L8.0632 2.96082L8.99998 2Z" fill="#1F1F1F"/>
<path d="M5.39506 14.1665C5.21672 14.1573 5.04811 14.0824 4.92183 13.9561C4.79556 13.8298 4.72059 13.6612 4.71143 13.4829C4.71143 12.5861 4.71143 10.4614 4.71143 10.1196C4.72246 9.94713 4.69506 9.7744 4.6312 9.61385C4.56735 9.45329 4.46863 9.30893 4.34218 9.19117C3.01079 7.88088 1.68784 6.5537 0.369101 5.22864C0.232401 5.09544 0.128811 4.93207 0.0666371 4.75162C0.00446287 4.57116 -0.0145663 4.37865 0.0110753 4.18952C0.0367168 4.00039 0.106316 3.8199 0.214292 3.66251C0.322268 3.50513 0.465618 3.37523 0.632847 3.28324C0.868701 3.1538 1.14019 3.1044 1.40652 3.14244C1.67286 3.18049 1.91965 3.30394 2.10983 3.49424C2.5909 3.97109 3.06776 4.45287 3.54039 4.93957C4.12486 5.54092 4.70088 6.1507 5.28534 6.75415C5.64159 7.11805 6.06739 7.40659 6.53741 7.60261C7.00742 7.79863 7.51206 7.89812 8.0213 7.89517C8.53055 7.89221 9.034 7.78688 9.50171 7.58542C9.96942 7.38397 10.3918 7.09051 10.7438 6.7225C11.7777 5.64219 12.8243 4.57877 13.8687 3.51112C14.0218 3.34243 14.2199 3.22088 14.4396 3.16071C14.6594 3.10055 14.8917 3.10426 15.1094 3.17141C15.3124 3.22854 15.497 3.33759 15.645 3.48781C15.793 3.63803 15.8993 3.82424 15.9534 4.02806C16.0145 4.24025 16.0155 4.46526 15.9563 4.67799C15.8971 4.89072 15.7799 5.08281 15.6179 5.23286L12.2884 8.57717C12.0436 8.82193 11.8009 9.06879 11.5541 9.30933C11.4752 9.38073 11.4118 9.46758 11.3679 9.5645C11.324 9.66141 11.3005 9.76631 11.2988 9.87269C11.2988 10.358 11.2988 12.5671 11.2861 13.4829C11.2872 13.573 11.2703 13.6624 11.2364 13.7458C11.2024 13.8293 11.1521 13.9051 11.0884 13.9688C11.0247 14.0325 10.9489 14.0828 10.8654 14.1168C10.782 14.1507 10.6926 14.1676 10.6025 14.1665H5.39506Z" fill="#1F1F1F"/>
<path d="M10.6761 4.09082C10.6765 4.61989 10.5201 5.1372 10.2265 5.57736C9.93297 6.01752 9.51552 6.36077 9.02693 6.56371C8.53834 6.76666 8.00054 6.82019 7.48154 6.71753C6.96253 6.61488 6.4856 6.36066 6.11106 5.98699C5.73651 5.61333 5.48116 5.13701 5.37728 4.61825C5.2734 4.09948 5.32565 3.56156 5.52744 3.07249C5.72923 2.58342 6.07149 2.16516 6.51096 1.87058C6.95042 1.57599 7.46736 1.41832 7.99643 1.41748C8.34795 1.41693 8.69613 1.48565 9.02108 1.61973C9.34603 1.7538 9.64138 1.9506 9.89023 2.19887C10.1391 2.44714 10.3366 2.74201 10.4714 3.06665C10.6063 3.39128 10.6758 3.7393 10.6761 4.09082Z" fill="#1F1F1F"/>
</g>
<defs>
<clipPath id="clip0_5551_73940">
<rect width="16" height="14.8571" fill="white"/>
</clipPath>
</defs>
</svg>
