<svg width="22" height="10" viewBox="0 0 22 10" fill="none" xmlns="http://www.w3.org/2000/svg">
<path d="M20.9431 3.54118C20.8865 3.45668 20.809 3.38847 20.718 3.34337C20.6268 3.2983 20.5255 3.27788 20.424 3.28419L17.6388 3.45459L16.5111 0.977526C16.4434 0.825678 16.3339 0.696174 16.1955 0.604158C16.0572 0.512142 15.8952 0.46143 15.7291 0.457902L8.74593 0.320478C8.63121 0.318246 8.51719 0.338622 8.41037 0.380454C8.30354 0.422286 8.20601 0.484758 8.1233 0.564294C7.95631 0.724902 7.85995 0.945293 7.85544 1.17694C7.8532 1.29166 7.87358 1.40569 7.91544 1.51251C7.95727 1.61933 8.01972 1.71687 8.09925 1.79957C8.17879 1.88225 8.27383 1.94847 8.37895 1.99443C8.48407 2.04039 8.59721 2.06521 8.7119 2.06744L9.81064 2.09293L10.6226 3.88251L1.47626 4.44481C1.38321 4.4491 1.29257 4.47562 1.21188 4.52211C1.13119 4.56862 1.06281 4.63378 1.01249 4.71214C0.962133 4.7905 0.931293 4.87976 0.922509 4.97247C0.913749 5.06521 0.927309 5.15866 0.962061 5.24506L2.55756 9.23573C2.5998 9.34181 2.67249 9.43301 2.7665 9.49781C2.86048 9.56261 2.97158 9.59813 3.08577 9.60005L17.7816 9.88685C17.8923 9.88853 18.0012 9.85877 18.0958 9.80117C18.1901 9.74357 18.2667 9.66029 18.3159 9.56117L20.964 4.12815C21.0118 4.03693 21.0351 3.93481 21.0312 3.83189C21.0276 3.72896 20.9971 3.62876 20.9431 3.54118ZM11.741 2.13778L15.1492 2.20364L15.7721 3.57365L12.484 3.77009L11.741 2.13778Z" fill="#1F1F1F"/>
</svg>
