<svg width="20" height="20" viewBox="0 0 20 20" fill="none" xmlns="http://www.w3.org/2000/svg">
<mask id="mask0_5614_38468" style="mask-type:luminance" maskUnits="userSpaceOnUse" x="0" y="-1" width="20" height="21">
<path d="M0 -0.00317192H20V19.9968H0V-0.00317192Z" fill="white"/>
</mask>
<g mask="url(#mask0_5614_38468)">
<path d="M8.65234 17.0834V12.1016M8.65234 19.5281V16.3771M11.4499 12.1016V19.5281" stroke="#1F1F1F" stroke-miterlimit="10" stroke-linecap="round" stroke-linejoin="round"/>
<path d="M2.0555 14.8174L11.9061 9.32766C12.1823 9.17321 12.2823 8.82219 12.1288 8.54622L11.5346 7.48071C11.38 7.20469 11.0289 7.10473 10.7528 7.25923L0.901013 12.749C0.626013 12.9024 0.526013 13.2533 0.679411 13.5293L1.27371 14.5959C1.42715 14.8708 1.77937 14.9708 2.0555 14.8174Z" stroke="#1F1F1F" stroke-miterlimit="10" stroke-linecap="round" stroke-linejoin="round"/>
<path d="M7.40551 9.12901L8.55887 11.1975M5.40336 12.9558L4.25 10.8874" stroke="#1F1F1F" stroke-miterlimit="10" stroke-linecap="round" stroke-linejoin="round"/>
<path d="M3.62411 11.2355C-1.83241 11.883 0.0504381 5.11421 4.70247 8.75815" stroke="#1F1F1F" stroke-miterlimit="10" stroke-linecap="round" stroke-linejoin="round"/>
<path d="M6.91519 12.1016H15.2807C15.5102 12.1016 15.6988 12.2902 15.6988 12.5196V13.9168V18.7807C15.6988 19.1919 15.3625 19.5281 14.9511 19.5281H5.15391C4.74258 19.5281 4.40625 19.1919 4.40625 18.7807V13.5101" stroke="#1F1F1F" stroke-miterlimit="10" stroke-linecap="round" stroke-linejoin="round"/>
<path d="M4.24999 10.8857L7.4055 9.12738L7.00667 8.41289C6.78737 8.01875 6.28511 7.87676 5.89195 8.09602L4.1682 9.05695C3.7739 9.27617 3.63183 9.77711 3.85116 10.1701L4.24999 10.8857Z" stroke="#1F1F1F" stroke-miterlimit="10" stroke-linecap="round" stroke-linejoin="round"/>
<path d="M3.75215 9.70703C3.28059 9.53551 2.91809 9.44578 2.28516 9.37648" stroke="#1F1F1F" stroke-miterlimit="10" stroke-linecap="round" stroke-linejoin="round"/>
<path d="M5.78132 5.68401C5.43816 6.27694 5.2575 7.15726 5.39269 8.37151M8.06757 8.75659C10.2913 5.96116 8.21414 4.15511 6.66992 4.84913" stroke="#1F1F1F" stroke-miterlimit="10" stroke-linecap="round" stroke-linejoin="round"/>
<path d="M6.69922 8.09912C6.73215 7.68338 6.93441 7.05748 7.18898 6.63947" stroke="#1F1F1F" stroke-miterlimit="10" stroke-linecap="round" stroke-linejoin="round"/>
<path d="M14.4975 5.21529C14.4975 5.21529 14.902 8.9501 13.543 10.4233" stroke="#1F1F1F" stroke-miterlimit="10" stroke-linecap="round" stroke-linejoin="round"/>
<path d="M16.5117 6.34131C16.5117 6.34131 17.098 3.7583 19.7059 3.13584" stroke="#1F1F1F" stroke-miterlimit="10" stroke-linecap="round" stroke-linejoin="round"/>
<path d="M12.0929 0.997108L11.6418 1.75019C11.5929 1.83199 11.5861 1.85926 11.485 1.88422L10.5918 2.10574C10.4191 2.14891 10.41 2.18863 10.5282 2.32269L11.1043 3.01558C11.1657 3.08941 11.1748 3.17574 11.1668 3.28023L11.0975 4.13672C11.0782 4.3139 11.1157 4.33547 11.2816 4.26848L12.0668 3.94133C12.1486 3.90726 12.277 3.90726 12.3577 3.94133L13.144 4.26848C13.3099 4.33547 13.3462 4.3139 13.3269 4.13672L13.2587 3.28023C13.2508 3.17574 13.2587 3.08941 13.3212 3.01558L13.8962 2.32269C14.0144 2.18863 14.0064 2.14891 13.8326 2.10574L12.9395 1.88422C12.8383 1.85926 12.8326 1.83199 12.7827 1.75019L12.3315 0.997108C12.2406 0.843749 12.1849 0.843749 12.0929 0.997108Z" stroke="#1F1F1F" stroke-miterlimit="10" stroke-linecap="round" stroke-linejoin="round"/>
<path d="M17.4785 7.61507L17.0262 8.36816C16.9774 8.44995 16.9706 8.47722 16.8706 8.50218L15.9774 8.7237C15.8036 8.76687 15.7945 8.80659 15.9138 8.94066L16.4888 9.63355C16.5513 9.70738 16.5592 9.7937 16.5513 9.8982L16.482 10.7535C16.4638 10.9319 16.5001 10.9534 16.666 10.8864L17.4512 10.5593C17.533 10.5252 17.6614 10.5252 17.7433 10.5593L18.5284 10.8864C18.6943 10.9534 18.7307 10.9319 18.7125 10.7535L18.6432 9.8982C18.6352 9.7937 18.6432 9.70738 18.7057 9.63355L19.2807 8.94066C19.4 8.80659 19.3909 8.76687 19.217 8.7237L18.3239 8.50218C18.2239 8.47722 18.2171 8.44995 18.1682 8.36816L17.7171 7.61507C17.6251 7.46171 17.5694 7.46171 17.4785 7.61507Z" stroke="#1F1F1F" stroke-miterlimit="10" stroke-linecap="round" stroke-linejoin="round"/>
<path d="M16.8758 2.80933C17.5223 2.80933 18.0485 2.28339 18.0485 1.63823C18.0485 0.991905 17.5223 0.465967 16.8758 0.465967C16.2304 0.465967 15.7031 0.991905 15.7031 1.63823C15.7031 2.28339 16.2304 2.80933 16.8758 2.80933Z" stroke="#1F1F1F" stroke-miterlimit="10" stroke-linecap="round" stroke-linejoin="round"/>
</g>
</svg>
