<svg width="28" height="28" viewBox="0 0 28 28" fill="none" xmlns="http://www.w3.org/2000/svg">
<path d="M26 9.56919C26 8.54734 25.7946 7.55706 25.3927 6.62131C25.0024 5.72001 24.445 4.91056 23.735 4.21593C23.025 3.5213 22.1976 2.97593 21.2763 2.59417C20.3228 2.19806 19.3076 2 18.2631 2C17.2186 2 16.2064 2.20093 15.2499 2.59417C14.3287 2.97593 13.5013 3.5213 12.7913 4.21593C12.0812 4.91056 11.5238 5.72001 11.1336 6.62131C10.7287 7.55418 10.5262 8.54734 10.5262 9.56919C10.5262 10.8465 10.8548 12.098 11.4798 13.2117L2.21721 22.2649C2.00303 22.4744 1.93555 22.793 2.06758 23.0944C2.09399 23.1576 2.138 23.215 2.18787 23.2637L4.26219 25.2931C4.31207 25.3419 4.37075 25.3821 4.4353 25.4108C4.74336 25.54 5.06903 25.4768 5.28321 25.2644L6.56536 24.01L8.41083 25.8155C8.46071 25.8643 8.51939 25.9045 8.58391 25.9332C8.89197 26.0624 9.21767 25.9992 9.43182 25.7868L11.4768 23.7862C11.5267 23.7374 11.5678 23.6799 11.5971 23.6168C11.7291 23.3154 11.6646 22.9968 11.4475 22.7873L9.63133 21.0105L14.5369 16.2084C15.6724 16.8198 16.9545 17.1413 18.2601 17.1413C19.3046 17.1413 20.3169 16.9403 21.2733 16.5471C22.1946 16.1653 23.022 15.62 23.732 14.9253C24.442 14.2307 24.9995 13.4213 25.3897 12.5199C25.7946 11.5813 26 10.591 26 9.56919Z" stroke="#1F1F1F" stroke-width="2"/>
</svg>
