<svg width="16" height="16" viewBox="0 0 16 16" fill="none" xmlns="http://www.w3.org/2000/svg">
<path d="M5.86631 5.93377C6.27959 5.93377 6.67725 5.71959 6.95736 5.34617C7.21861 4.99771 7.3625 4.53995 7.3625 4.05722C7.3625 3.57458 7.21861 3.11681 6.95736 2.76836C6.67725 2.39484 6.27959 2.18066 5.86631 2.18066C5.45312 2.18066 5.05547 2.39484 4.77535 2.76836C4.5141 3.11681 4.37012 3.57458 4.37012 4.05722C4.37012 4.53995 4.5141 4.99771 4.77535 5.34617C5.05547 5.71959 5.45312 5.93377 5.86631 5.93377Z" fill="#1F1F1F"/>
<path d="M9.16319 5.93377C9.57647 5.93377 9.97412 5.71959 10.2542 5.34617C10.5155 4.99771 10.6595 4.53995 10.6595 4.05722C10.6595 3.57458 10.5155 3.11681 10.2542 2.76836C9.97412 2.39484 9.57647 2.18066 9.16319 2.18066C8.75 2.18066 8.35234 2.39484 8.07223 2.76836C7.81098 3.11681 7.66699 3.57458 7.66699 4.05722C7.66699 4.53995 7.81098 4.99771 8.07223 5.34617C8.35234 5.71959 8.75 5.93377 9.16319 5.93377Z" fill="#1F1F1F"/>
<path d="M13.2254 4.34156C12.9807 4.0153 12.632 3.82812 12.2689 3.82812C11.9057 3.82812 11.5572 4.0153 11.3125 4.34156C11.087 4.64211 10.9629 5.03616 10.9629 5.4512C10.9629 5.86614 11.087 6.26019 11.3125 6.56074C11.5572 6.887 11.9057 7.07418 12.2689 7.07418C12.6321 7.07418 12.9807 6.887 13.2254 6.56074C13.4508 6.26019 13.5749 5.86614 13.5749 5.4512C13.5749 5.03616 13.4508 4.64211 13.2254 4.34156Z" fill="#1F1F1F"/>
<path d="M3.71666 6.56074C3.94202 6.26019 4.06613 5.86614 4.06613 5.4512C4.06613 5.03616 3.94202 4.64211 3.71666 4.34156C3.47196 4.0153 3.12332 3.82812 2.76016 3.82812C2.397 3.82812 2.04836 4.0153 1.80367 4.34156C1.57821 4.64211 1.4541 5.03616 1.4541 5.4512C1.4541 5.86614 1.57821 6.26019 1.80367 6.56074C2.04836 6.887 2.397 7.07418 2.76016 7.07418C3.12332 7.07418 3.47196 6.887 3.71666 6.56074Z" fill="#1F1F1F"/>
<path d="M7.5145 6.93945C6.1401 6.93945 4.848 7.47462 3.87615 8.44647C2.9044 9.41831 2.36914 10.7104 2.36914 12.0848C2.36914 12.517 2.49408 12.9363 2.73045 13.2976C3.14225 13.9271 3.8363 14.3028 4.58712 14.3028C5.20422 14.3028 5.68594 14.1601 6.15175 14.022C6.58824 13.8927 7.00051 13.7706 7.5145 13.7706C8.02858 13.7706 8.44084 13.8927 8.87734 14.022C9.34306 14.1601 9.82477 14.3028 10.4418 14.3028C11.1927 14.3028 11.8869 13.927 12.2988 13.2974C12.535 12.9363 12.6599 12.517 12.6599 12.0848C12.6599 10.7104 12.1246 9.41831 11.1528 8.44647C10.181 7.47462 8.8889 6.93945 7.5145 6.93945Z" fill="#1F1F1F"/>
</svg>
