<svg width="20" height="20" viewBox="0 0 20 20" fill="none" xmlns="http://www.w3.org/2000/svg">
<path d="M19.2193 1.61036L19.8292 1.00017C20.058 0.771299 20.0579 0.400322 19.8291 0.171494C19.6002 -0.0572168 19.2292 -0.0571777 19.0004 0.171689L18.3906 0.781689C18.5376 0.909033 18.6808 1.04212 18.8197 1.18103C18.9588 1.32001 19.0919 1.46329 19.2193 1.61036Z" fill="white"/>
<path d="M9.93517 7.46107C10.1961 7.20014 10.1961 6.77553 9.93517 6.51455C9.67423 6.25361 9.24962 6.25361 8.98869 6.51455C8.72775 6.77549 8.72771 7.2001 8.98869 7.46104C9.24962 7.72201 9.67419 7.72201 9.93517 7.46107Z" fill="white"/>
<path d="M8.98869 13.6151C8.72775 13.8761 8.72771 14.3007 8.98869 14.5616C9.24962 14.8226 9.67423 14.8226 9.93517 14.5616C10.1961 14.3007 10.1961 13.8761 9.93517 13.6151C9.67419 13.3542 9.24962 13.3542 8.98869 13.6151Z" fill="white"/>
<path d="M16.5621 4.26798C16.9043 4.95684 16.789 5.81524 16.215 6.38919C15.4959 7.10833 14.3299 7.10833 13.6107 6.38919C12.8916 5.67005 12.8916 4.50403 13.6107 3.78489C14.1853 3.21036 15.0447 3.09536 15.734 3.43876L17.5586 1.61341C14.8628 -0.662179 10.827 -0.530382 8.28689 2.00966L0.171621 10.1247C-0.057207 10.3535 -0.057207 10.7245 0.171621 10.9533L9.04666 19.8283C9.27549 20.0572 9.64631 20.0574 9.8751 19.8285L17.9904 11.7131C20.5302 9.17329 20.6622 5.13794 18.3872 2.44212L16.5621 4.26798ZM8.16088 5.6861C8.87873 4.96825 10.0468 4.96821 10.7646 5.6861C11.4825 6.40399 11.4825 7.57204 10.7646 8.28989C10.0467 9.00774 8.87869 9.00774 8.16084 8.28989C7.44299 7.57204 7.44299 6.40395 8.16088 5.6861ZM10.7646 15.3904C10.0468 16.1082 8.87869 16.1082 8.16084 15.3904C7.44299 14.6725 7.44299 13.5045 8.16084 12.7866C8.87869 12.0688 10.0467 12.0687 10.7646 12.7866C11.4824 13.5045 11.4825 14.6725 10.7646 15.3904ZM13.5215 10.6768L5.53338 11.5643C5.22873 11.5982 4.92389 11.3848 4.88635 11.0467C4.85061 10.7251 5.08236 10.4354 5.404 10.3996L13.3921 9.51204C13.7137 9.4763 14.0035 9.70802 14.0391 10.0297C14.0749 10.3513 13.8431 10.641 13.5215 10.6768Z" fill="white"/>
</svg>
