<svg width="26" height="26" viewBox="0 0 26 26" fill="none" xmlns="http://www.w3.org/2000/svg">
<g clip-path="url(#clip0_5580_31926)">
<path d="M20.6708 9.0061V23.2289H5.67717V9.0061H4.34766V23.2975C4.34766 24.2733 4.92131 25.0683 5.62543 25.0683H20.7203C21.4244 25.0683 21.998 24.2733 21.998 23.2975V9.0061H20.6685H20.6708Z" fill="white"/>
<path d="M24.0453 10.0554L13.4586 1.54733C13.3911 1.49745 13.3213 1.47251 13.2516 1.45692C13.2403 1.45692 13.2313 1.45068 13.2201 1.45068C13.1976 1.45068 13.1751 1.45068 13.1526 1.45068C13.1301 1.45068 13.1076 1.45068 13.0851 1.45068C13.0739 1.45068 13.0649 1.45692 13.0536 1.45692C12.9839 1.47251 12.9141 1.49745 12.8467 1.54733L2.296 10.0461C1.97881 10.2768 1.85733 10.8255 2.0238 11.2651C2.19027 11.7047 2.5862 11.8731 2.90339 11.6423L13.1504 3.36493L23.4334 11.6517C23.7506 11.8824 24.1443 11.714 24.313 11.2745C24.4795 10.8349 24.358 10.2893 24.0408 10.0554H24.0453Z" fill="white"/>
<path d="M8.4468 16.677C8.4468 16.6614 8.4468 16.6458 8.4468 16.6271C8.52778 15.1711 10.6109 14.0051 13.171 14.0051C15.722 14.0051 17.8006 15.1649 17.8951 16.6146C17.8951 16.6209 17.8951 16.6302 17.8951 16.6364C17.8951 16.6489 17.8951 16.6645 17.8951 16.677V17.4408V20.3246C17.8951 20.7455 17.6476 21.0885 17.344 21.0885C17.0403 21.0885 16.7928 20.7455 16.7928 20.3246V18.8843H9.53786V20.3246C9.53786 20.7455 9.2904 21.0885 8.9867 21.0885C8.683 21.0885 8.43555 20.7455 8.43555 20.3246V16.677H8.4468Z" fill="white"/>
<path d="M15.2389 11.564C15.2389 11.2866 15.0747 11.034 14.8767 11.0621C14.4515 11.1213 14.1636 11.2679 13.176 11.2679C12.2469 11.2679 11.8982 11.1182 11.473 11.0621C11.2751 11.0372 11.1109 11.2897 11.1109 11.564V13.126C10.454 13.2975 10.1053 13.3879 9.66211 13.6965V10.3637C9.66211 9.94597 9.90957 9.60303 10.211 9.60303H16.1387C16.4402 9.60303 16.6876 9.94597 16.6876 10.3637V13.6965C16.2444 13.391 15.8958 13.2975 15.2389 13.126V11.564Z" fill="white"/>
</g>
<defs>
<clipPath id="clip0_5580_31926">
<rect width="25.2" height="25.2" fill="white" transform="translate(0.400391 0.399902)"/>
</clipPath>
</defs>
</svg>
