<svg width="24" height="24" viewBox="0 0 24 24" fill="none" xmlns="http://www.w3.org/2000/svg">
<path d="M19.3056 8.19629V21.7418H5.02597V8.19629H3.75977V21.8071C3.75977 22.7365 4.3061 23.4937 4.9767 23.4937H19.3527C20.0233 23.4937 20.5696 22.7365 20.5696 21.8071V8.19629H19.3034H19.3056Z" fill="#1F1F1F"/>
<path d="M22.5185 9.19599L12.4359 1.09302C12.3716 1.04551 12.3052 1.02176 12.2388 1.00692C12.2281 1.00692 12.2195 1.00098 12.2088 1.00098C12.1874 1.00098 12.1659 1.00098 12.1445 1.00098C12.1231 1.00098 12.1017 1.00098 12.0802 1.00098C12.0695 1.00098 12.0609 1.00692 12.0502 1.00692C11.9838 1.02176 11.9174 1.04551 11.8531 1.09302L1.80488 9.18708C1.50279 9.4068 1.38709 9.92938 1.54564 10.348C1.70418 10.7667 2.08126 10.927 2.38335 10.7073L12.1424 2.82407L21.9357 10.7162C22.2378 10.9359 22.6128 10.7756 22.7735 10.357C22.932 9.93829 22.8163 9.41868 22.5142 9.19599H22.5185Z" fill="#1F1F1F"/>
<path d="M7.66306 15.5026C7.66306 15.4878 7.66306 15.4729 7.66306 15.4551C7.74019 14.0685 9.72413 12.958 12.1623 12.958C14.5918 12.958 16.5715 14.0626 16.6614 15.4432C16.6614 15.4492 16.6614 15.4581 16.6614 15.464C16.6614 15.4759 16.6614 15.4907 16.6614 15.5026V16.2301V18.9766C16.6614 19.3774 16.4258 19.704 16.1365 19.704C15.8473 19.704 15.6117 19.3774 15.6117 18.9766V17.6048H8.70216V18.9766C8.70216 19.3774 8.46649 19.704 8.17725 19.704C7.88802 19.704 7.65234 19.3774 7.65234 18.9766V15.5026H7.66306Z" fill="#1F1F1F"/>
<path d="M14.1315 10.6333C14.1315 10.369 13.9751 10.1285 13.7866 10.1552C13.3817 10.2116 13.1074 10.3512 12.1669 10.3512C11.282 10.3512 10.9499 10.2087 10.545 10.1552C10.3565 10.1315 10.2001 10.372 10.2001 10.6333V12.1208C9.57447 12.2841 9.24238 12.3702 8.82031 12.6642V9.49011C8.82031 9.09224 9.05599 8.76562 9.34308 8.76562H14.9885C15.2756 8.76562 15.5113 9.09224 15.5113 9.49011V12.6642C15.0892 12.3732 14.7571 12.2841 14.1315 12.1208V10.6333Z" fill="#1F1F1F"/>
</svg>
