<svg width="100" height="100" viewBox="0 0 100 100" fill="none" xmlns="http://www.w3.org/2000/svg">
<path d="M79.6068 95H19.4757C17.7545 95 16.3594 93.6048 16.3594 91.8837V14.3586C16.3594 9.19987 20.5545 5 25.718 5H73.3597C78.5232 5 82.7183 9.19987 82.7183 14.3586V91.8837C82.7183 93.6048 81.3231 95 79.602 95H79.6068ZM22.5921 88.7673H76.4904V14.3586C76.4904 12.6326 75.0857 11.2327 73.3645 11.2327H25.718C23.992 11.2327 22.5921 12.6374 22.5921 14.3586V88.7673Z" fill="#141618"/>
<path d="M86.9613 95H12.1163C10.3952 95 9 93.6049 9 91.8837C9 90.1625 10.3952 88.7673 12.1163 88.7673H86.9613C88.6825 88.7673 90.0777 90.1625 90.0777 91.8837C90.0777 93.6049 88.6825 95 86.9613 95Z" fill="#141618"/>
<path d="M43.8841 22.9069H32.6796C31.5807 22.9069 30.6899 23.7977 30.6899 24.8965V33.8572C30.6899 34.9561 31.5807 35.8469 32.6796 35.8469H43.8841C44.9829 35.8469 45.8737 34.9561 45.8737 33.8572V24.8965C45.8737 23.7977 44.9829 22.9069 43.8841 22.9069Z" fill="#141618"/>
<path d="M66.3982 22.9069H55.1938C54.0949 22.9069 53.2041 23.7977 53.2041 24.8965V33.8572C53.2041 34.9561 54.0949 35.8469 55.1938 35.8469H66.3982C67.4971 35.8469 68.3879 34.9561 68.3879 33.8572V24.8965C68.3879 23.7977 67.4971 22.9069 66.3982 22.9069Z" fill="#141618"/>
<path d="M43.8841 44.5391H32.6796C31.5807 44.5391 30.6899 45.4299 30.6899 46.5288V55.4896C30.6899 56.5885 31.5807 57.4793 32.6796 57.4793H43.8841C44.9829 57.4793 45.8737 56.5885 45.8737 55.4896V46.5288C45.8737 45.4299 44.9829 44.5391 43.8841 44.5391Z" fill="#141618"/>
<path d="M66.3982 44.5391H55.1938C54.0949 44.5391 53.2041 45.4299 53.2041 46.5288V55.4896C53.2041 56.5885 54.0949 57.4793 55.1938 57.4793H66.3982C67.4971 57.4793 68.3879 56.5885 68.3879 55.4896V46.5288C68.3879 45.4299 67.4971 44.5391 66.3982 44.5391Z" fill="#141618"/>
<path d="M43.8841 66.1666H32.6796C31.5807 66.1666 30.6899 67.0574 30.6899 68.1563V77.117C30.6899 78.2158 31.5807 79.1066 32.6796 79.1066H43.8841C44.9829 79.1066 45.8737 78.2158 45.8737 77.117V68.1563C45.8737 67.0574 44.9829 66.1666 43.8841 66.1666Z" fill="#141618"/>
<path d="M66.3982 66.1666H55.1938C54.0949 66.1666 53.2041 67.0574 53.2041 68.1563V77.117C53.2041 78.2158 54.0949 79.1066 55.1938 79.1066H66.3982C67.4971 79.1066 68.3879 78.2158 68.3879 77.117V68.1563C68.3879 67.0574 67.4971 66.1666 66.3982 66.1666Z" fill="#141618"/>
</svg>
