<svg width="103" height="54" viewBox="0 0 103 54" fill="none" xmlns="http://www.w3.org/2000/svg">
<path d="M81.7447 21.3965H27.0547V29.4865H87.1147V26.6865C87.0963 25.2754 86.5221 23.9284 85.5167 22.9381C84.5113 21.9477 83.1559 21.3937 81.7447 21.3965Z" fill="url(#paint0_linear_14473_20438)"/>
<path d="M14.5348 15.3066H10.1748V19.6666C10.1695 22.2782 11.2005 24.7852 13.0415 26.6375C14.8826 28.4898 17.3833 29.536 19.9948 29.5466H24.3548V25.1366C24.3496 22.5329 23.3136 20.0372 21.4734 18.1951C19.6332 16.3531 17.1385 15.3146 14.5348 15.3066Z" fill="url(#paint1_linear_14473_20438)"/>
<path d="M98.375 15.5467C92.725 15.5467 89.645 19.0567 89.645 24.4067V32.1567H7.475V3.54668C7.42545 2.58952 7.01033 1.6879 6.31532 1.02793C5.6203 0.367959 4.69844 0 3.74 0C2.78156 0 1.85969 0.367959 1.16468 1.02793C0.46966 1.6879 0.0545435 2.58952 0.00500022 3.54668V50.0467C-0.0212292 50.5534 0.0559334 51.0602 0.231792 51.5362C0.40765 52.0122 0.678525 52.4474 1.02793 52.8153C1.37734 53.1833 1.79796 53.4763 2.26421 53.6765C2.73046 53.8767 3.23257 53.98 3.74 53.98C4.24742 53.98 4.74954 53.8767 5.21579 53.6765C5.68203 53.4763 6.10266 53.1833 6.45207 52.8153C6.80147 52.4474 7.07235 52.0122 7.24821 51.5362C7.42406 51.0602 7.50123 50.5534 7.475 50.0467V42.9867H89.685V50.0467C89.6588 50.5534 89.7359 51.0602 89.9118 51.5362C90.0876 52.0122 90.3585 52.4474 90.7079 52.8153C91.0573 53.1833 91.478 53.4763 91.9442 53.6765C92.4105 53.8767 92.9126 53.98 93.42 53.98C93.9274 53.98 94.4295 53.8767 94.8958 53.6765C95.362 53.4763 95.7827 53.1833 96.1321 52.8153C96.4815 52.4474 96.7523 52.0122 96.9282 51.5362C97.1041 51.0602 97.1812 50.5534 97.155 50.0467V31.8267V24.4367C97.1366 24.265 97.1548 24.0915 97.2085 23.9274C97.2621 23.7633 97.35 23.6125 97.4662 23.4849C97.5825 23.3573 97.7245 23.2558 97.8829 23.1872C98.0412 23.1185 98.2124 23.0843 98.385 23.0867C98.8817 23.092 99.3744 22.9986 99.8347 22.8119C100.295 22.6251 100.714 22.3489 101.066 21.9991C101.419 21.6492 101.698 21.2329 101.889 20.7741C102.079 20.3154 102.176 19.8234 102.175 19.3267C102.218 18.8177 102.149 18.3055 101.973 17.8261C101.797 17.3466 101.518 16.9115 101.156 16.5513C100.794 16.1911 100.357 15.9145 99.8766 15.741C99.3963 15.5674 98.8837 15.5011 98.375 15.5467Z" fill="url(#paint2_linear_14473_20438)"/>
<defs>
<linearGradient id="paint0_linear_14473_20438" x1="32.8047" y1="39.4565" x2="79.6547" y2="12.4165" gradientUnits="userSpaceOnUse">
<stop offset="0.08"/>
<stop offset="0.89"/>
</linearGradient>
<linearGradient id="paint1_linear_14473_20438" x1="11.9948" y1="25.4466" x2="22.5348" y2="19.3566" gradientUnits="userSpaceOnUse">
<stop offset="0.08"/>
<stop offset="0.89"/>
</linearGradient>
<linearGradient id="paint2_linear_14473_20438" x1="1.645" y1="53.8867" x2="92.485" y2="1.44669" gradientUnits="userSpaceOnUse">
<stop offset="0.08"/>
<stop offset="0.89"/>
</linearGradient>
</defs>
</svg>
