<svg width="100" height="100" viewBox="0 0 100 100" fill="none" xmlns="http://www.w3.org/2000/svg">
<path d="M91.1586 55.2089C90.2197 55.2089 89.2748 54.8663 88.5366 54.1695L51.0128 19.0256C50.4931 18.5355 49.5069 18.5355 48.9872 19.0256L11.4634 54.1754C9.91616 55.6223 7.48899 55.5455 6.03623 53.9982C4.58937 52.451 4.66614 50.0238 6.21339 48.571L43.7431 13.4272C47.1919 10.1909 52.814 10.1909 56.2628 13.4272L93.7866 48.571C95.3339 50.0179 95.4106 52.451 93.9638 53.9982C93.2079 54.8073 92.1862 55.2148 91.1586 55.2148V55.2089Z" fill="#141618"/>
<path d="M80.381 88.8764H19.6189C17.4988 88.8764 15.7803 87.1579 15.7803 85.0378V41.4489C15.7803 39.3288 17.4988 37.6103 19.6189 37.6103C21.739 37.6103 23.4575 39.3288 23.4575 41.4489V81.2051H76.5424V41.443C76.5424 39.3229 78.2609 37.6044 80.381 37.6044C82.501 37.6044 84.2196 39.3229 84.2196 41.443V85.0378C84.2196 87.1579 82.501 88.8764 80.381 88.8764Z" fill="#141618"/>
<path d="M46.0167 46.9235H35.3394C34.436 46.9235 33.7036 47.6558 33.7036 48.5593V55.7877C33.7036 56.6911 34.436 57.4235 35.3394 57.4235H46.0167C46.9201 57.4235 47.6525 56.6911 47.6525 55.7877V48.5593C47.6525 47.6558 46.9201 46.9235 46.0167 46.9235Z" fill="#141618"/>
<path d="M46.0167 61.1619H35.3394C34.436 61.1619 33.7036 61.8943 33.7036 62.7977V70.0261C33.7036 70.9294 34.436 71.6617 35.3394 71.6617H46.0167C46.9201 71.6617 47.6525 70.9294 47.6525 70.0261V62.7977C47.6525 61.8943 46.9201 61.1619 46.0167 61.1619Z" fill="#141618"/>
<path d="M63.7803 46.9235H53.1031C52.1997 46.9235 51.4673 47.6558 51.4673 48.5593V55.7877C51.4673 56.6911 52.1997 57.4235 53.1031 57.4235H63.7803C64.6839 57.4235 65.4162 56.6911 65.4162 55.7877V48.5593C65.4162 47.6558 64.6839 46.9235 63.7803 46.9235Z" fill="#141618"/>
<path d="M63.7803 61.1619H53.1031C52.1997 61.1619 51.4673 61.8943 51.4673 62.7977V70.0261C51.4673 70.9294 52.1997 71.6617 53.1031 71.6617H63.7803C64.6839 71.6617 65.4162 70.9294 65.4162 70.0261V62.7977C65.4162 61.8943 64.6839 61.1619 63.7803 61.1619Z" fill="#141618"/>
</svg>
