<svg width="100" height="100" viewBox="0 0 100 100" fill="none" xmlns="http://www.w3.org/2000/svg">
<path d="M69.785 80.0351L60.0153 76.0561L69.691 72.0581C71.577 71.2731 72.463 69.1251 71.69 67.2571C70.898 65.3891 68.729 64.5111 66.8429 65.2771L50.3208 72.0951L33.9496 65.4071C32.1201 64.6601 30.0266 65.5191 29.2721 67.3321C28.5177 69.1441 29.3853 71.2171 31.2148 71.9651L40.9847 75.9441L31.3091 79.9421C29.423 80.7271 28.5366 82.8751 29.3098 84.7431C30.102 86.6111 32.271 87.4891 34.1571 86.7231L50.6792 79.9051L67.05 86.5931C68.88 87.3401 70.973 86.4811 71.728 84.6681C72.482 82.8561 71.615 80.7831 69.785 80.0351Z" fill="url(#paint0_linear_12525_254191)"/>
<path d="M68.946 45.7387C68.513 40.3477 66.2006 35.9114 63.5304 31.6811C59.7509 25.7099 55.2568 20.1692 54.2226 13C49.5781 16.1073 47.4721 21.3297 47.4909 26.7207C47.4909 26.7581 47.4909 26.7955 47.4909 26.8143C47.5473 32.0929 53.3576 39.3556 49.108 43.9604C44.4635 48.9957 36.6035 44.8776 38.8035 37.1282C39.8189 33.5155 39.1796 31.4003 38.6719 30.4082C34.0086 33.9273 31 39.4867 31 45.7574C31 56.165 39.2924 64.626 49.6533 65C59.7321 64.551 69.83 56.483 68.946 45.7012V45.7387Z" fill="url(#paint1_linear_12525_254191)"/>
<defs>
<linearGradient id="paint0_linear_12525_254191" x1="30.781" y1="87.2841" x2="70.068" y2="64.3921" gradientUnits="userSpaceOnUse">
<stop offset="0.08"/>
<stop offset="0.89"/>
</linearGradient>
<linearGradient id="paint1_linear_12525_254191" x1="31.6393" y1="52.0655" x2="65.5028" y2="32.4276" gradientUnits="userSpaceOnUse">
<stop offset="0.08"/>
<stop offset="0.89"/>
</linearGradient>
</defs>
</svg>
