<svg width="100" height="100" viewBox="0 0 100 100" fill="none" xmlns="http://www.w3.org/2000/svg">
<path d="M50.0571 20.1359C50.3047 19.8217 50.4666 19.6313 50.6189 19.4218C51.5235 18.1363 52.4471 16.8604 53.3231 15.5464C53.6659 15.0322 53.9992 14.9465 54.4657 15.3369L54.5895 15.4321C55.9702 16.4986 56.0273 16.8033 55.0846 18.2315C54.142 19.6598 53.1803 21.0881 52.2281 22.4783C52.069 22.6658 51.9818 22.9037 51.9818 23.1496C51.9818 23.3954 52.069 23.6334 52.2281 23.8208C55.4084 28.8293 85.0212 75.6954 88.1253 80.6848C88.3005 81.0352 88.5737 81.3275 88.9118 81.5256C89.2498 81.7227 89.6383 81.8179 90.0296 81.7989H94.124C94.7524 81.7989 95 81.9893 95 82.6653C95 83.3414 95 84.3983 95 84.3983C95 85.1696 94.8667 85.4171 94.0478 85.4076H5.69509C5.219 85.4076 5.00952 85.2077 5 84.7601C5 83.9793 5 83.189 5 82.3987C5 81.8369 5.3904 81.7989 5.80935 81.7989H9.91325C10.2862 81.8312 10.6604 81.7522 10.9889 81.5732C11.3175 81.3932 11.5858 81.1209 11.7605 80.7895C15.3407 75.0765 46.0389 26.963 48.0671 23.9161C48.2534 23.6986 48.3559 23.4217 48.3559 23.1353C48.3559 22.8489 48.2534 22.572 48.0671 22.3545C46.9435 20.7358 45.8771 19.079 44.744 17.4698C44.6563 17.378 44.5878 17.2696 44.5427 17.1509C44.4976 17.0323 44.4766 16.9058 44.481 16.779C44.4855 16.6521 44.5152 16.5274 44.5685 16.4122C44.6218 16.297 44.6977 16.1937 44.7916 16.1082C46.2199 14.5942 46.3532 14.6037 47.4577 16.3081C48.0766 17.2603 48.705 18.2125 49.362 19.2123C49.5525 19.4979 49.7524 19.7455 50.0571 20.1359ZM32.9846 81.6846H66.9107L50.1714 54.6715C44.3726 63.7741 38.7357 72.6389 32.9846 81.6846Z" fill="url(#paint0_linear_12525_254215)"/>
<defs>
<linearGradient id="paint0_linear_12525_254215" x1="6.2664" y1="87.1596" x2="74.9566" y2="47.5111" gradientUnits="userSpaceOnUse">
<stop offset="0.08"/>
<stop offset="0.96"/>
</linearGradient>
</defs>
</svg>
