<svg width="100" height="100" viewBox="0 0 100 100" fill="none" xmlns="http://www.w3.org/2000/svg">
<mask id="mask0_12562_157118" style="mask-type:luminance" maskUnits="userSpaceOnUse" x="5" y="21" width="90" height="59">
<path d="M95 21H5V79.9734H95V21Z" fill="white"/>
</mask>
<g mask="url(#mask0_12562_157118)">
<path d="M27.8384 76.0468V57.1164C27.8384 55.6695 29.0108 54.4971 30.4577 54.4971H40.0136C41.4605 54.4971 42.6329 55.6695 42.6329 57.1164V76.0468" fill="#141618"/>
<path d="M91.9761 51.1985C91.2363 51.1985 90.492 50.9287 89.9104 50.3797L65.104 27.1458C64.9412 26.9969 60.2935 22.7307 60.2935 22.7307C62.7592 20.4231 66.7696 20.4231 69.2353 22.7307L94.0417 45.9646C95.2606 47.1044 95.3211 49.0212 94.1813 50.2401C93.5858 50.8775 92.7809 51.1985 91.9714 51.1985H91.9761Z" fill="#141618"/>
<path d="M15.1515 43.5361C13.4813 43.5361 12.1274 42.1823 12.1274 40.5121V28.1461C12.1274 26.1223 13.7744 24.4707 15.8028 24.4707H18.9571C20.9809 24.4707 22.6325 26.1177 22.6325 28.1461V35.2084C22.6325 36.8786 21.2786 38.2324 19.6084 38.2324C19.092 38.2324 18.6082 38.1022 18.1802 37.8742V40.5121C18.1802 42.1823 16.8263 43.5361 15.1561 43.5361H15.1515Z" fill="#141618"/>
<path d="M18.115 76.9796C18.115 75.3262 16.7746 73.9858 15.1212 73.9858C13.4678 73.9858 12.1274 75.3262 12.1274 76.9796C12.1274 78.6331 13.4678 79.9734 15.1212 79.9734C16.7746 79.9734 18.115 78.6331 18.115 76.9796Z" fill="#141618"/>
<path d="M18.115 68.9403C18.115 67.287 16.7746 65.9467 15.1212 65.9467C13.4678 65.9467 12.1274 67.287 12.1274 68.9403C12.1274 70.5937 13.4678 71.9341 15.1212 71.9341C16.7746 71.9341 18.115 70.5937 18.115 68.9403Z" fill="#141618"/>
<path d="M18.115 60.901C18.115 59.2476 16.7746 57.9072 15.1212 57.9072C13.4678 57.9072 12.1274 59.2476 12.1274 60.901C12.1274 62.5544 13.4678 63.8948 15.1212 63.8948C16.7746 63.8948 18.115 62.5544 18.115 60.901Z" fill="#141618"/>
<path d="M18.115 52.8616C18.115 51.2082 16.7746 49.8678 15.1212 49.8678C13.4678 49.8678 12.1274 51.2082 12.1274 52.8616C12.1274 54.515 13.4678 55.8554 15.1212 55.8554C16.7746 55.8554 18.115 54.515 18.115 52.8616Z" fill="#141618"/>
<path d="M87.9001 73.9858H15.4117C13.7569 73.9858 12.4155 75.3262 12.4155 76.9796C12.4155 78.6331 13.7569 79.9734 15.4117 79.9734H87.9001C89.555 79.9734 90.8962 78.6331 90.8962 76.9796C90.8962 75.3262 89.555 73.9858 87.9001 73.9858Z" fill="#141618"/>
<path d="M87.9005 65.9467H55.3526C53.6977 65.9467 52.3564 67.287 52.3564 68.9403C52.3564 70.5937 53.6977 71.9341 55.3526 71.9341H87.9005C89.5554 71.9341 90.8966 70.5937 90.8966 68.9403C90.8966 67.287 89.5554 65.9467 87.9005 65.9467Z" fill="#141618"/>
<path d="M87.9005 57.9072H55.3526C53.6977 57.9072 52.3564 59.2476 52.3564 60.901C52.3564 62.5544 53.6977 63.8948 55.3526 63.8948H87.9005C89.5554 63.8948 90.8966 62.5544 90.8966 60.901C90.8966 59.2476 89.5554 57.9072 87.9005 57.9072Z" fill="#141618"/>
<path d="M62.4472 53.7109C62.2006 53.7109 61.9447 53.6877 61.6749 53.6411C61.6516 53.6411 61.6097 53.6318 61.5679 53.6225C61.3446 53.576 61.1259 53.5155 60.8979 53.4318C60.8235 53.4085 60.763 53.3853 60.6979 53.3573C60.5164 53.2829 60.3443 53.1945 60.1675 53.0922C60.0559 53.0317 59.9442 52.9572 59.8325 52.8782C59.7209 52.7991 59.6232 52.7246 59.5301 52.6455C59.4464 52.5851 59.3673 52.5246 59.2975 52.4548L57.4087 50.6822L55.357 49.8588C53.71 49.8588 52.3608 51.2079 52.3608 52.8549C52.3608 54.5018 53.71 55.851 55.357 55.851H87.9096C89.2634 55.851 90.4125 54.9438 90.7801 53.7063H62.4565L62.4472 53.7109Z" fill="#141618"/>
<path d="M92.0038 45.2109H63.7035L39.7066 22.7307C37.2408 20.4231 33.2305 20.4231 30.7647 22.7307L5.95835 45.9692C4.73943 47.1091 4.67895 49.0258 5.81878 50.2448C6.95861 51.4637 8.87538 51.5242 10.0943 50.3843L34.9007 27.1458C35.0635 26.9969 35.4125 26.9969 35.5753 27.1458L60.3817 50.3797C60.4236 50.4216 60.4747 50.4495 60.5166 50.482C60.5864 50.5425 60.6562 50.5937 60.7306 50.6495C60.8051 50.7007 60.8795 50.7472 60.9586 50.7937C61.0702 50.8589 61.1819 50.9147 61.3029 50.9659C61.3494 50.9845 61.3913 50.9984 61.4378 51.0171C61.5774 51.0682 61.7216 51.1101 61.8704 51.138C61.8937 51.138 61.917 51.1427 61.9402 51.1473C62.1031 51.1752 62.2752 51.1939 62.4473 51.1939H92.0038C93.6508 51.1939 94.9999 49.8447 94.9999 48.1977C94.9999 46.5508 93.6508 45.2016 92.0038 45.2016V45.2109Z" fill="#141618"/>
<path d="M64.8108 21H35.2544C33.5997 21 32.2583 22.3404 32.2583 23.9938C32.2583 25.6472 33.5997 26.9876 35.2544 26.9876H64.8108C66.4657 26.9876 67.807 25.6472 67.807 23.9938C67.807 22.3404 66.4657 21 64.8108 21Z" fill="#141618"/>
<path d="M58.344 52.8616C58.344 51.2082 57.0037 49.8678 55.3502 49.8678C53.6968 49.8678 52.3564 51.2082 52.3564 52.8616C52.3564 54.515 53.6968 55.8554 55.3502 55.8554C57.0037 55.8554 58.344 54.515 58.344 52.8616Z" fill="#141618"/>
</g>
</svg>
