<svg width="65" height="46" viewBox="0 0 65 46" fill="none" xmlns="http://www.w3.org/2000/svg">
<path d="M46.9301 16.1414C48.631 16.4352 50.3812 16.1799 51.9273 15.4127C53.4735 14.6455 54.7353 13.4061 55.5302 11.874C56.3251 10.3419 56.6117 8.59656 56.3486 6.8907C56.0855 5.18484 55.2863 3.60698 54.0667 2.38557C52.8471 1.16415 51.2705 0.362581 49.565 0.0968993C47.8596 -0.168783 46.1138 0.115215 44.5805 0.907774C43.0472 1.70033 41.8059 2.96032 41.0363 4.50532C40.2668 6.05031 40.0089 7.80013 40.3001 9.50143C40.5849 11.1571 41.3751 12.6841 42.5621 13.8729C43.7491 15.0617 45.2749 15.8541 46.9301 16.1414Z" fill="url(#paint0_linear_13991_20576)"/>
<path d="M50.3003 19.0812C50.1988 18.9743 50.0762 18.8897 49.9401 18.8329C49.8041 18.7761 49.6577 18.7482 49.5103 18.7512H47.3103C47.1629 18.7482 47.0166 18.7761 46.8805 18.8329C46.7445 18.8897 46.6218 18.9743 46.5203 19.0812C46.3709 19.2397 46.2773 19.4428 46.2539 19.6594C46.2304 19.876 46.2783 20.0943 46.3903 20.2812L47.5703 22.0612L46.2803 25.9312L48.1003 31.0412C48.1235 31.1048 48.1657 31.1597 48.2212 31.1985C48.2766 31.2372 48.3427 31.2581 48.4103 31.2581C48.478 31.2581 48.544 31.2372 48.5995 31.1985C48.6549 31.1597 48.6971 31.1048 48.7203 31.0412L50.5503 25.9312L49.2603 22.0212L50.4403 20.2412C50.5416 20.0576 50.5825 19.8468 50.5574 19.6386C50.5322 19.4305 50.4423 19.2355 50.3003 19.0812Z" fill="url(#paint1_linear_13991_20576)"/>
<path d="M2.3102 32.271H12.7002V36.931H17.3102V32.271H27.7002C28.0061 32.271 28.3089 32.2103 28.5912 32.0923C28.8734 31.9744 29.1294 31.8015 29.3443 31.5838C29.5592 31.3661 29.7287 31.1079 29.843 30.8242C29.9574 30.5405 30.0142 30.2368 30.0102 29.931V13.811C30.0102 13.1983 29.7668 12.6108 29.3336 12.1776C28.9004 11.7443 28.3128 11.501 27.7002 11.501H2.3102C2.00684 11.501 1.70646 11.5607 1.4262 11.6768C1.14594 11.7929 0.891281 11.9631 0.676777 12.1776C0.462274 12.3921 0.292122 12.6467 0.176033 12.927C0.0599449 13.2072 0.000194829 13.5076 0.000194829 13.811V29.931C-0.00377783 30.2368 0.0530388 30.5405 0.167347 30.8242C0.281656 31.1079 0.451181 31.3661 0.666081 31.5838C0.880981 31.8015 1.13698 31.9744 1.41921 32.0923C1.70145 32.2103 2.0043 32.271 2.3102 32.271Z" fill="url(#paint2_linear_13991_20576)"/>
<path d="M54.5801 18.9316L49.6501 32.4616C49.5573 32.7159 49.3885 32.9355 49.1667 33.0907C48.9449 33.2459 48.6808 33.3291 48.4101 33.3291C48.1394 33.3291 47.8752 33.2459 47.6534 33.0907C47.4316 32.9355 47.2629 32.7159 47.1701 32.4616L42.2401 18.9316C39.3703 19.6513 36.8218 21.3059 34.9966 23.6345C33.1714 25.963 32.1734 28.833 32.1601 31.7916V36.2316H0.0400609V43.1516C0.0387375 43.4554 0.0975827 43.7563 0.213202 44.0372C0.328822 44.3181 0.498927 44.5732 0.713694 44.788C0.928462 45.0028 1.18364 45.1729 1.4645 45.2885C1.74536 45.4041 2.04634 45.463 2.35006 45.4616H62.3501C62.6538 45.463 62.9548 45.4041 63.2356 45.2885C63.5165 45.1729 63.7717 45.0028 63.9864 44.788C64.2012 44.5732 64.3713 44.3181 64.4869 44.0372C64.6025 43.7563 64.6614 43.4554 64.6601 43.1516V31.7916C64.645 28.8335 63.6464 25.9643 61.8215 23.6361C59.9965 21.3079 57.449 19.6528 54.5801 18.9316Z" fill="url(#paint3_linear_13991_20576)"/>
<defs>
<linearGradient id="paint0_linear_13991_20576" x1="41.2601" y1="12.2014" x2="55.3501" y2="4.06143" gradientUnits="userSpaceOnUse">
<stop offset="0.08"/>
<stop offset="0.96"/>
</linearGradient>
<linearGradient id="paint1_linear_13991_20576" x1="45.3903" y1="26.3912" x2="52.2603" y2="22.4212" gradientUnits="userSpaceOnUse">
<stop offset="0.08"/>
<stop offset="0.96"/>
</linearGradient>
<linearGradient id="paint2_linear_13991_20576" x1="-0.00980499" y1="30.561" x2="30.0202" y2="13.211" gradientUnits="userSpaceOnUse">
<stop offset="0.08"/>
<stop offset="0.96"/>
</linearGradient>
<linearGradient id="paint3_linear_13991_20576" x1="6.64006" y1="55.2016" x2="61.8201" y2="23.3416" gradientUnits="userSpaceOnUse">
<stop offset="0.08"/>
<stop offset="0.96"/>
</linearGradient>
</defs>
</svg>
