<svg width="100" height="100" viewBox="0 0 100 100" fill="none" xmlns="http://www.w3.org/2000/svg">
<path d="M82.2908 22.2002H27.7803V29.0202H86.7808V26.6702C86.7668 25.4853 86.2898 24.3529 85.4498 23.5168C84.6098 22.6808 83.4758 22.208 82.2908 22.2002Z" fill="url(#paint0_linear_12525_232375)"/>
<path d="M17.2403 17.0801H13.5703V20.7501C13.5756 22.9427 14.4482 25.0442 15.9977 26.5955C17.5472 28.1469 19.6477 29.0221 21.8403 29.0301H25.5103V25.3601C25.505 23.1674 24.6323 21.0659 23.0828 19.5146C21.5333 17.9632 19.4329 17.088 17.2403 17.0801Z" fill="url(#paint1_linear_12525_232375)"/>
<path d="M82.2908 64.0499H27.7803V70.9199H86.7808V68.5199C86.7668 67.3349 86.2898 66.2029 85.4498 65.3669C84.6098 64.5309 83.4758 64.0579 82.2908 64.0499Z" fill="url(#paint2_linear_12525_232375)"/>
<path d="M92.2297 15.5C91.3967 15.5026 90.5977 15.8357 90.0087 16.4261C89.4207 17.0166 89.0897 17.8163 89.0897 18.65V31.29H11.3V12.15C11.3 11.3145 10.9681 10.5133 10.3774 9.9226C9.7866 9.3318 8.9854 9 8.15 9C7.3145 9 6.5133 9.3318 5.9226 9.9226C5.3318 10.5133 5 11.3145 5 12.15V88.1499C5 88.9859 5.3318 89.7869 5.9226 90.3769C6.5133 90.9679 7.3145 91.2999 8.15 91.2999C8.9854 91.2999 9.7866 90.9679 10.3774 90.3769C10.9681 89.7869 11.3 88.9859 11.3 88.1499V82.1999H89.0897V88.1499C89.1357 88.9539 89.4867 89.7089 90.0717 90.2619C90.6557 90.8149 91.4307 91.1229 92.2347 91.1229C93.0397 91.1229 93.8137 90.8149 94.3987 90.2619C94.9837 89.7089 95.3347 88.9539 95.3797 88.1499V18.65C95.3777 17.8154 95.0447 17.0157 94.4547 16.4255C93.8647 15.8353 93.0647 15.5026 92.2297 15.5ZM86.7997 73.1499H11.3V40.38H89.0897V73.1399L86.7997 73.1499Z" fill="url(#paint3_linear_12525_232375)"/>
<path d="M17.2404 58.9199H13.5704V62.5899C13.5665 63.6799 13.7773 64.7599 14.1907 65.7689C14.6042 66.7769 15.2123 67.6939 15.9802 68.4679C16.7482 69.2409 17.6609 69.8559 18.6664 70.2769C19.6719 70.6969 20.7505 70.9159 21.8404 70.9199H25.5104V67.2499C25.5157 66.1599 25.3058 65.0789 24.8928 64.0699C24.4798 63.0609 23.8718 62.1429 23.1036 61.3689C22.3354 60.5959 21.4221 59.9809 20.416 59.5609C19.4099 59.1399 18.3308 58.9229 17.2404 58.9199Z" fill="url(#paint4_linear_12525_232375)"/>
<defs>
<linearGradient id="paint0_linear_12525_232375" x1="33.6903" y1="39.2502" x2="79.4708" y2="12.8102" gradientUnits="userSpaceOnUse">
<stop offset="0.08"/>
<stop offset="0.89"/>
</linearGradient>
<linearGradient id="paint1_linear_12525_232375" x1="15.1003" y1="25.6201" x2="23.9803" y2="20.4901" gradientUnits="userSpaceOnUse">
<stop offset="0.08"/>
<stop offset="0.89"/>
</linearGradient>
<linearGradient id="paint2_linear_12525_232375" x1="33.6903" y1="81.0999" x2="79.4708" y2="54.6598" gradientUnits="userSpaceOnUse">
<stop offset="0.08"/>
<stop offset="0.89"/>
</linearGradient>
<linearGradient id="paint3_linear_12525_232375" x1="-0.519998" y1="79.4399" x2="98.0897" y2="22.51" gradientUnits="userSpaceOnUse">
<stop offset="0.08"/>
<stop offset="0.89"/>
</linearGradient>
<linearGradient id="paint4_linear_12525_232375" x1="15.1004" y1="67.4599" x2="23.9804" y2="62.3399" gradientUnits="userSpaceOnUse">
<stop offset="0.08"/>
<stop offset="0.89"/>
</linearGradient>
</defs>
</svg>
