<svg width="100" height="100" viewBox="0 0 100 100" fill="none" xmlns="http://www.w3.org/2000/svg">
<g clip-path="url(#clip0_12525_232228)">
<mask id="mask0_12525_232228" style="mask-type:luminance" maskUnits="userSpaceOnUse" x="5" y="11" width="90" height="78">
<path d="M94.6412 11H5V88.5706H94.6412V11Z" fill="white"/>
</mask>
<g mask="url(#mask0_12525_232228)">
<path d="M90.8175 55.0354C89.8822 55.0354 88.941 54.6943 88.2057 54.0001L50.8292 18.9943C50.3116 18.506 49.3292 18.506 48.8116 18.9943L11.4351 54.006C9.89393 55.4472 7.47629 55.3707 6.02923 53.8296C4.58805 52.2884 4.66452 49.8707 6.2057 48.4237L43.588 13.4178C47.0292 10.1942 52.6233 10.2001 56.0586 13.4178L93.4351 48.4237C94.9763 49.8648 95.0527 52.2884 93.6116 53.8296C92.8586 54.6354 91.841 55.0413 90.8175 55.0413V55.0354Z" fill="#141618"/>
<path d="M80.0824 88.5706H19.5589C17.4471 88.5706 15.7354 86.8588 15.7354 84.7471V41.3293C15.7354 39.2175 17.4471 37.5058 19.5589 37.5058C21.6706 37.5058 23.3824 39.2175 23.3824 41.3293V80.9294H76.2589V41.3234C76.2589 39.2116 77.9706 37.4999 80.0824 37.4999C82.1942 37.4999 83.9059 39.2116 83.9059 41.3234V84.7471C83.9059 86.8588 82.1942 88.5706 80.0824 88.5706Z" fill="#141618"/>
<path d="M67.3055 61.7766C67.3055 61.7354 67.3055 61.6884 67.2996 61.6472C66.9996 57.7649 59.2937 54.6472 49.829 54.6472C40.3643 54.6472 32.6996 57.7413 32.3584 61.606C32.3584 61.6237 32.3584 61.6472 32.3584 61.6649C32.3584 61.7002 32.3584 61.7355 32.3526 61.7707H32.3467V61.8766V63.806V71.5C32.3467 72.6177 33.2643 73.5353 34.382 73.5353C35.4996 73.5353 36.4173 72.6177 36.4173 71.5V67.6531H63.2467V71.5C63.2467 72.6177 64.1643 73.5353 65.282 73.5353C66.3996 73.5353 67.3173 72.6177 67.3173 71.5V61.7707H67.3114L67.3055 61.7766Z" fill="#141618"/>
<path d="M42.1879 48.6474C42.1879 47.9062 42.7938 47.2298 43.5291 47.3062C45.0997 47.4651 46.1644 47.8533 49.8232 47.8533C53.2585 47.8533 54.5468 47.4592 56.1232 47.3062C56.8585 47.2356 57.4644 47.9121 57.4644 48.6474V52.818C59.8938 53.2768 61.182 53.518 62.8173 54.3415V45.4474C62.8173 44.3298 61.8997 43.4121 60.782 43.4121H38.8644C37.7467 43.4121 36.8291 44.3298 36.8291 45.4474V54.3415C38.4703 53.5239 39.7585 53.2827 42.182 52.8239V48.6533L42.1879 48.6474Z" fill="#141618"/>
</g>
</g>
<defs>
<clipPath id="clip0_12525_232228">
<rect width="90" height="77.6471" fill="white" transform="translate(5 11)"/>
</clipPath>
</defs>
</svg>
