<svg width="100" height="100" viewBox="0 0 100 100" fill="none" xmlns="http://www.w3.org/2000/svg">
<path d="M94.9981 55.2843C94.9981 55.1678 94.9981 55.0619 94.9981 54.9454C94.2268 47.4041 74.3924 41.3562 50.0345 41.3562C25.6767 41.3562 5.92567 47.3617 4.99805 54.8818C5.00274 54.9205 5.00274 54.9597 4.99805 54.9984C4.99805 55.1255 4.99805 55.2631 4.99805 55.4008V77.3151C5.04968 78.3289 5.48235 79.2839 6.20675 79.9829C6.93114 80.6819 7.89197 81.0717 8.89092 81.0717C9.88988 81.0717 10.8507 80.6819 11.5751 79.9829C12.2995 79.2839 12.7322 78.3289 12.7838 77.3151V69.8162H87.2123V77.3151C87.2639 78.3289 87.6966 79.2839 88.421 79.9829C89.1454 80.6819 90.1062 81.0717 91.1052 81.0717C92.1041 81.0717 93.065 80.6819 93.7894 79.9829C94.5137 79.2839 94.9464 78.3289 94.9981 77.3151V55.2843Z" fill="#141618"/>
<path d="M19.2991 40.3606V29.7688C19.289 29.4457 19.3441 29.1238 19.4608 28.823C19.5776 28.5223 19.7536 28.2489 19.9781 28.0198C20.2026 27.7907 20.4708 27.6106 20.7663 27.4906C21.0618 27.3707 21.3782 27.3133 21.6963 27.3221C25.4132 27.9835 29.1794 28.3167 32.9528 28.3178C36.7247 28.2831 40.4883 27.9502 44.2093 27.3221C44.5324 27.3015 44.8562 27.3493 45.1601 27.4626C45.464 27.576 45.7414 27.7523 45.9747 27.9803C46.208 28.2084 46.392 28.4833 46.5151 28.7876C46.6383 29.0918 46.6978 29.4188 46.6899 29.7477V37.3737C47.7947 37.3737 48.91 37.3737 50.046 37.3737C51.1821 37.3737 52.2973 37.3737 53.4021 37.3737V29.7477C53.392 29.4236 53.4474 29.1008 53.5648 28.7993C53.6822 28.4978 53.8592 28.2239 54.0848 27.9947C54.3104 27.7654 54.5799 27.5855 54.8766 27.4662C55.1733 27.3469 55.4909 27.2907 55.8098 27.301C59.523 27.9632 63.2859 28.2963 67.0559 28.2966C70.8278 28.2619 74.5913 27.9291 78.3124 27.301C78.6304 27.2921 78.9469 27.3495 79.2424 27.4694C79.5378 27.5894 79.8061 27.7695 80.0305 27.9986C80.255 28.2277 80.4311 28.5011 80.5479 28.8019C80.6646 29.1026 80.7197 29.4245 80.7096 29.7477V40.3394H80.7617C83.4232 41.0909 86.0117 42.0871 88.4954 43.3157V21.6979C88.494 21.2093 88.3976 20.7258 88.2117 20.2752C88.0258 19.8245 87.7541 19.4157 87.4122 19.0722C87.0703 18.7286 86.6649 18.4572 86.2194 18.2734C85.7738 18.0897 85.297 17.9972 84.8162 18.0014H15.1925C14.2305 18.007 13.3095 18.3986 12.6302 19.0909C11.9508 19.7832 11.5682 20.7202 11.5654 21.6979V43.3263C14.0479 42.0977 16.6368 41.1049 19.2991 40.3606Z" fill="#141618"/>
</svg>
