<svg width="100" height="100" viewBox="0 0 100 100" fill="none" xmlns="http://www.w3.org/2000/svg">
<mask id="mask0_12562_157182" style="mask-type:luminance" maskUnits="userSpaceOnUse" x="5" y="11" width="90" height="78">
<path d="M95 11H5V88.8811H95V11Z" fill="white"/>
</mask>
<g mask="url(#mask0_12562_157182)">
<path d="M38.8115 84.3808V55.7428C38.8115 53.5577 40.5833 51.7859 42.7685 51.7859H57.2261C59.4113 51.7859 61.1831 53.5577 61.1831 55.7428V84.3808" fill="#141618"/>
<path d="M91.1615 55.2116C90.2224 55.2116 89.2775 54.869 88.5392 54.1721L51.0132 19.0261C50.4934 18.5359 49.5072 18.5359 48.9874 19.0261L11.4614 54.178C9.91402 55.625 7.4867 55.5482 6.03385 54.0009C4.5869 52.4535 4.66368 50.0262 6.21103 48.5733L43.743 13.4273C47.192 10.1909 52.8145 10.1909 56.2635 13.4273L93.7896 48.5733C95.3369 50.0203 95.4137 52.4535 93.9668 54.0009C93.2108 54.81 92.1891 55.2175 91.1615 55.2175V55.2116Z" fill="#141618"/>
<path d="M80.383 88.881H19.6172C17.4969 88.881 15.7783 87.1624 15.7783 85.0422V41.4505C15.7783 39.3303 17.4969 37.6117 19.6172 37.6117C21.7374 37.6117 23.456 39.3303 23.456 41.4505V81.2093H76.5441V44.4035C76.5441 42.2833 78.2627 40.5646 80.383 40.5646C82.5032 40.5646 84.2218 42.2833 84.2218 44.4035V85.0481C84.2218 87.1683 82.5032 88.887 80.383 88.887V88.881Z" fill="#141618"/>
<path d="M19.6172 43.6185C17.4969 43.6185 15.7783 41.8999 15.7783 39.7797V21.0757C15.7783 18.418 17.9399 16.2565 20.5975 16.2565H25.3695C28.0272 16.2565 30.1887 18.418 30.1887 21.0757V31.7595C30.1887 33.8797 28.4701 35.5983 26.3499 35.5983C25.1923 35.5983 24.1588 35.0904 23.456 34.2813V39.7856C23.456 41.9058 21.7374 43.6244 19.6172 43.6244V43.6185Z" fill="#141618"/>
</g>
</svg>
