<svg width="100" height="100" viewBox="0 0 100 100" fill="none" xmlns="http://www.w3.org/2000/svg">
<g clip-path="url(#clip0_12562_157083)">
<mask id="mask0_12562_157083" style="mask-type:luminance" maskUnits="userSpaceOnUse" x="5" y="10" width="91" height="79">
<path d="M95.1948 10.9945H5.19482V88.8756H95.1948V10.9945Z" fill="white"/>
</mask>
<g mask="url(#mask0_12562_157083)">
<path d="M91.3563 55.2061C90.4173 55.2061 89.4723 54.8636 88.7341 54.1667L51.208 19.0207C50.6883 18.5305 49.702 18.5305 49.1823 19.0207L11.6562 54.1726C10.1088 55.6196 7.68152 55.5428 6.22867 53.9954C4.78173 52.4481 4.8585 50.0208 6.40585 48.5679L43.9378 13.4219C47.3869 10.1914 53.0093 10.1914 56.4583 13.4219L93.9844 48.5679C95.5318 50.0149 95.6085 52.4481 94.1616 53.9954C93.4056 54.8046 92.3839 55.2121 91.3563 55.2121V55.2061Z" fill="#141618"/>
<path d="M80.5778 88.8761H19.812C17.6918 88.8761 15.9731 87.1575 15.9731 85.0373V41.4457C15.9731 39.3255 17.6918 37.6069 19.812 37.6069C21.9322 37.6069 23.6508 39.3255 23.6508 41.4457V81.2043H76.7389V41.4398C76.7389 39.3196 78.4576 37.601 80.5778 37.601C82.698 37.601 84.4166 39.3196 84.4166 41.4398V85.0373C84.4166 87.1575 82.698 88.8761 80.5778 88.8761Z" fill="#141618"/>
<path d="M66.28 67.136V52.2708C66.28 51.3673 65.5477 50.6349 64.6441 50.6349H54.2614C53.3579 50.6349 52.6255 51.3673 52.6255 52.2708V67.136C52.6255 68.0395 53.3579 68.7719 54.2614 68.7719H64.6441C65.5477 68.7719 66.28 68.0395 66.28 67.136Z" fill="#141618"/>
<path d="M47.7648 67.136V52.2708C47.7648 51.3673 47.0323 50.6349 46.1289 50.6349H35.7463C34.8428 50.6349 34.1104 51.3673 34.1104 52.2708V67.136C34.1104 68.0395 34.8428 68.7719 35.7463 68.7719H46.1289C47.0323 68.7719 47.7648 68.0395 47.7648 67.136Z" fill="#141618"/>
</g>
</g>
<defs>
<clipPath id="clip0_12562_157083">
<rect width="90" height="77.6471" fill="white" transform="translate(5 11)"/>
</clipPath>
</defs>
</svg>
