<svg width="146" height="149" viewBox="0 0 146 149" fill="none" xmlns="http://www.w3.org/2000/svg">
<g clip-path="url(#clip0_14820_20322)">
<path d="M86.22 148.579H3.27C1.74 148.579 0.5 147.339 0.5 145.809V138.939H81.02C82 138.939 82.95 139.299 83.7 139.939L88.04 143.719C89.97 145.399 88.78 148.579 86.22 148.579Z" fill="black"/>
<path d="M99.3995 117.09C106.73 120.24 115.24 116.85 118.39 109.51C121.54 102.18 118.15 93.6697 110.81 90.5197C103.48 87.3697 94.9695 90.7597 91.8195 98.0997C88.6695 105.43 92.0595 113.94 99.3995 117.09Z" fill="black"/>
<path d="M138.93 129.26H103.39C97.62 124.32 79.79 109.07 79.79 109.07C73.84 104.26 67.55 102.2 57.01 102.2H6.81C3.33 102.2 0.5 105.02 0.5 108.51V131.11H82.55C84.84 131.11 86.21 132.11 86.6 132.44C89.08 134.56 96.51 140.92 96.51 140.92C97.02 141.36 97.6 141.68 98.19 141.93C98.38 142.02 98.57 142.11 98.77 142.18C98.8 142.19 98.84 142.2 98.88 142.21C99.54 142.44 100.23 142.59 100.96 142.59H138.93C142.44 142.59 145.31 139.72 145.31 136.21V135.63C145.31 132.12 142.44 129.25 138.93 129.25V129.26Z" fill="black"/>
<path d="M77.8702 83.6101L55.6602 70.4401L51.4102 45.7101C51.3802 45.5501 51.3202 45.4101 51.2902 45.2601C50.9402 40.0001 47.7402 35.1001 42.5902 32.8901C35.2902 29.7501 26.7402 33.1601 23.6002 40.4701L3.68017 87.0101C2.17017 90.5301 4.76017 94.4401 8.58017 94.4401H26.3302C29.7302 94.4401 32.8102 92.4101 34.1502 89.2801L42.1402 70.6001L43.0302 75.7601C43.0502 75.8801 43.1002 75.9901 43.1302 76.1101C43.1602 76.2401 43.2002 76.3601 43.2302 76.4801C43.3202 76.7801 43.4202 77.0801 43.5502 77.3601C43.5902 77.4601 43.6502 77.5501 43.7002 77.6501C43.8502 77.9401 44.0002 78.2101 44.1902 78.4701C44.2602 78.5701 44.3402 78.6601 44.4202 78.7601C44.6102 79.0001 44.8102 79.2301 45.0302 79.4301C45.1302 79.5201 45.2402 79.6101 45.3402 79.7001C45.5702 79.9001 45.8202 80.0801 46.0802 80.2401C46.1302 80.2701 46.1702 80.3101 46.2202 80.3401L71.2902 95.2001C74.7002 97.2201 79.2302 95.8301 80.8302 92.0601C82.1602 88.9501 80.7902 85.3201 77.8702 83.6001V83.6101Z" fill="black"/>
<path d="M50.2203 28.9297C55.9203 29.0397 61.3903 25.7497 63.7803 20.1897C64.3303 18.9197 64.6603 17.6097 64.8303 16.2997C64.8303 16.2497 64.8503 16.1997 64.8503 16.1597C64.8903 15.8097 64.9103 15.4497 64.9303 15.0997C64.9303 14.9797 64.9503 14.8497 64.9503 14.7297C64.9503 14.4597 64.9503 14.1897 64.9303 13.9197C64.9303 13.7097 64.9203 13.4897 64.9003 13.2797C64.8903 13.1097 64.8603 12.9397 64.8403 12.7697C64.8003 12.4597 64.7603 12.1397 64.7103 11.8297C64.7003 11.7697 64.6803 11.7097 64.6703 11.6497C64.1603 9.03966 62.9303 6.53966 60.9603 4.47966C55.4503 -1.30034 46.3003 -1.51034 40.5203 3.99966C39.6003 4.87966 38.8303 5.85966 38.2003 6.88966H38.1903C34.8203 12.2897 30.7803 14.7797 25.9503 14.5797L25.8203 14.5297C32.8103 27.8097 44.1303 29.2497 50.2303 28.9397L50.2203 28.9297Z" fill="black"/>
</g>
<defs>
<clipPath id="clip0_14820_20322">
<rect width="144.81" height="148.58" fill="white" transform="translate(0.5)"/>
</clipPath>
</defs>
</svg>
