<svg width="100" height="100" viewBox="0 0 100 100" fill="none" xmlns="http://www.w3.org/2000/svg">
<mask id="mask0_12562_157155" style="mask-type:luminance" maskUnits="userSpaceOnUse" x="14" y="5" width="72" height="90">
<path d="M85.5921 5H14V95H85.5921V5Z" fill="white"/>
</mask>
<g mask="url(#mask0_12562_157155)">
<path d="M54.4216 81.8713H43.2505V95H54.4216V81.8713Z" fill="#141618"/>
<path d="M73.9095 76.5921H25.6826C19.2414 76.5921 14 71.3507 14 64.9095V16.6826C14 10.2414 19.2414 5 25.6826 5H73.9095C80.3507 5 85.5921 10.2414 85.5921 16.6826V64.9095C85.5921 71.3507 80.3507 76.5921 73.9095 76.5921ZM25.6826 13.2094C23.7692 13.2094 22.2094 14.7692 22.2094 16.6826V64.9095C22.2094 66.8229 23.7692 68.3827 25.6826 68.3827H73.9095C75.8229 68.3827 77.3827 66.8229 77.3827 64.9095V16.6826C77.3827 14.7692 75.8229 13.2094 73.9095 13.2094H25.6826Z" fill="#141618"/>
<path d="M62.6623 23.364C60.2626 21.2927 57.042 20.2507 53.0004 20.2507H35.4829V60.4767H43.8312V46.0155H52.3753C56.8336 46.0155 60.2626 45.0304 62.6623 43.0665C65.0619 41.1025 66.2617 37.743 66.2617 32.9942C66.2617 28.6432 65.0619 25.4353 62.6623 23.3577V23.364ZM56.3031 37.6357C55.1917 38.6018 53.6446 39.0818 51.6617 39.0818H43.8312V27.235H51.6617C53.6446 27.235 55.1854 27.6834 56.2905 28.5738C57.3893 29.4642 57.9387 30.9545 57.9387 33.051C57.9387 35.1476 57.3956 36.6695 56.3031 37.6357Z" fill="#141618"/>
</g>
</svg>
