<svg width="115" height="85" viewBox="0 0 115 85" fill="none" xmlns="http://www.w3.org/2000/svg">
<path d="M13.2977 26.63L19.2977 2.29C19.4566 1.63774 19.8296 1.05761 20.3572 0.642449C20.8848 0.227283 21.5363 0.00107279 22.2077 4.55555e-06H48.2077L47.4577 6H24.5277L19.5277 26.63H13.2977ZM66.2977 6H90.1977L95.1977 26.63H101.378L95.3777 2.29C95.2184 1.63607 94.8438 1.05471 94.3142 0.639363C93.7846 0.224019 93.1307 -0.00116793 92.4577 4.55555e-06H65.4577L66.2977 6ZM108.128 54.19H101.958L107.858 78.32H75.1377L75.8477 84.32H111.678C112.134 84.3212 112.584 84.2184 112.994 84.0196C113.404 83.8207 113.764 83.531 114.045 83.1724C114.327 82.8138 114.523 82.3957 114.618 81.95C114.714 81.5043 114.707 81.0426 114.598 80.6L108.128 54.19ZM38.5577 78.33H6.86768L12.7277 54.19H6.54768L0.0876807 80.6C-0.0215303 81.0417 -0.028818 81.5025 0.0663661 81.9475C0.16155 82.3925 0.356713 82.81 0.637083 83.1684C0.917453 83.5268 1.27568 83.8168 1.68466 84.0163C2.09363 84.2158 2.54264 84.3197 2.99768 84.32H37.8677L38.5577 78.33Z" fill="url(#paint0_linear_14473_20427)"/>
<defs>
<linearGradient id="paint0_linear_14473_20427" x1="-0.00231843" y1="42.16" x2="114.678" y2="42.16" gradientUnits="userSpaceOnUse">
<stop offset="0.08"/>
<stop offset="0.89"/>
</linearGradient>
</defs>
</svg>
