<svg xmlns="http://www.w3.org/2000/svg" width="79" height="84" fill="none" viewBox="0 0 79 84">
  <path fill="url(#a)" d="M7.478 37.18c.86 4 1.13 4.04 5.12 4.04h53.41c3.8 0 3.96.11 4.88-4.09.08-.36 5.27-27.51 5.27-27.51.46-2.35-.16-4.86-1.85-6.55a7.22 7.22 0 0 0-5.12-2.13H9.118c-2 0-3.81.82-5.12 2.13-1.7 1.7-2.31 4.2-1.85 6.55l5.34 27.56h-.01Z"/>
  <path fill="url(#b)" d="M78.68 51.519c0-2.97-2.43-5.4-5.4-5.4H5.4c-2.97 0-5.4 2.43-5.4 5.4s2.43 5.4 5.4 5.4h4.67l-6.25 21.72c-.55 1.98.63 4.05 2.61 4.59s4.05-.63 4.59-2.61l6.82-23.7h43.07l6.41 23.89c.55 1.98 2.61 3.16 4.59 2.61 1.98-.55 3.16-2.61 2.61-4.59l-5.88-21.91h4.63c2.97 0 5.4-2.43 5.4-5.4h.01Z"/>
  <defs>
    <linearGradient id="a" x1="7.518" x2="73.218" y1="38.66" y2=".729" gradientUnits="userSpaceOnUse">
      <stop offset=".08"/>
      <stop offset=".96"/>
    </linearGradient>
    <linearGradient id="b" x1="5.41" x2="74.89" y1="83.609" y2="43.499" gradientUnits="userSpaceOnUse">
      <stop offset=".08"/>
      <stop offset=".96"/>
    </linearGradient>
  </defs>
</svg>
