<svg xmlns="http://www.w3.org/2000/svg" width="96" height="88" fill="none" viewBox="0 0 96 88">
  <path fill="url(#a)" fill-rule="evenodd" d="M79.39 28.66c-4.05 10.8-15.32 17.09-26.64 14.86 2.56 2.34 5.58 4.13 8.86 5.25 13.07 4.3 27.21-2.45 32.09-15.32 4.53-12.88-2.14-27-14.96-31.68-1.19-.43-2.4-.78-3.64-1.03-.73-.14-1.47.21-1.81.87-.34.66-.21 1.47.32 1.99 6.82 6.41 9.1 16.3 5.79 25.05l-.01.01Z" clip-rule="evenodd"/>
  <path fill="url(#b)" d="M84.78 49.31c-4.52 2.74-9.7 4.2-14.98 4.21-8.1 0-15.83-3.44-21.26-9.46-.81-.9-.92-2.23-.26-3.24a2.681 2.681 0 0 1 3.06-1.11 20.43 20.43 0 0 0 19.86-4.73H21.27c-.58 0-1.11.3-1.43.79L2.27 63.599h91.52l-9.01-14.28v-.01Zm-65.37 9.229c-.93 0-1.68-.75-1.68-1.68 0-.93.75-1.68 1.68-1.68.93 0 1.68.75 1.68 1.68 0 .93-.75 1.68-1.68 1.68Zm3.37-8.42c-.93 0-1.68-.75-1.68-1.68 0-.93.75-1.68 1.68-1.68.93 0 1.68.75 1.68 1.68 0 .93-.75 1.68-1.68 1.68Zm3.36-8.41c-.93 0-1.68-.75-1.68-1.68 0-.93.75-1.68 1.68-1.68.93 0 1.68.75 1.68 1.68 0 .93-.75 1.68-1.68 1.68Zm11.79 16.83c-.93 0-1.68-.75-1.68-1.68 0-.93.75-1.68 1.68-1.68.93 0 1.68.75 1.68 1.68 0 .93-.75 1.68-1.68 1.68Zm1.68-8.42c-.93 0-1.68-.75-1.68-1.68 0-.93.75-1.68 1.68-1.68.93 0 1.68.75 1.68 1.68 0 .93-.75 1.68-1.68 1.68Zm1.68-8.41c-.93 0-1.68-.75-1.68-1.68 0-.93.75-1.68 1.68-1.68.93 0 1.68.75 1.68 1.68 0 .93-.75 1.68-1.68 1.68Zm16.84 16.83c-.93 0-1.68-.75-1.68-1.68 0-.93.75-1.68 1.68-1.68.93 0 1.68.75 1.68 1.68 0 .93-.75 1.68-1.68 1.68Zm18.51 0c-.93 0-1.68-.75-1.68-1.68 0-.93.75-1.68 1.68-1.68.93 0 1.68.75 1.68 1.68 0 .93-.75 1.68-1.68 1.68Z"/>
  <path fill="url(#c)" fill-rule="evenodd" d="M17.73 70.319h77.43v-3.1c0-.09-.01-.18-.02-.27H.91c0 .09-.02.18-.02.27v3.1h8.42c.93 0 1.68.75 1.68 1.68 0 .93-.75 1.68-1.68 1.68H.89v11.78c0 .93.75 1.68 1.68 1.68h90.9c.93 0 1.68-.75 1.68-1.68v-11.78H17.73c-.93 0-1.68-.75-1.68-1.68 0-.93.75-1.68 1.68-1.68Z" clip-rule="evenodd"/>
  <defs>
    <linearGradient id="a" x1="50.57" x2="93.17" y1="39.749" y2="15.149" gradientUnits="userSpaceOnUse">
      <stop offset=".08"/>
      <stop offset=".89"/>
    </linearGradient>
    <linearGradient id="b" x1="9.829" x2="78.47" y1="76.689" y2="37.059" gradientUnits="userSpaceOnUse">
      <stop offset=".08"/>
      <stop offset=".89"/>
    </linearGradient>
    <linearGradient id="c" x1="8.68" x2="87.58" y1="99.419" y2="53.869" gradientUnits="userSpaceOnUse">
      <stop offset=".08"/>
      <stop offset=".89"/>
    </linearGradient>
  </defs>
</svg>
