<svg width="177" height="106" viewBox="0 0 177 106" fill="none" xmlns="http://www.w3.org/2000/svg">
<g clip-path="url(#clip0_14266_20339)">
<path d="M170.31 105.87H92.0601C89.5201 105.87 87.2201 104.39 86.1601 102.09L43.3801 9.22C42.4501 7.21 42.6101 4.86 43.8101 3C45.0001 1.13 47.0601 0 49.2801 0H127.53C130.07 0 132.37 1.48 133.43 3.78L176.21 96.65C177.14 98.66 176.98 101.01 175.78 102.87C174.59 104.74 172.52 105.87 170.31 105.87ZM96.2201 92.87H160.15L123.36 13H59.4301L96.2201 92.87Z" fill="black"/>
<path d="M49.28 105.87H6.50003C4.28003 105.87 2.22003 104.74 1.03003 102.87C-0.169969 101 -0.329969 98.6599 0.600031 96.6499L43.38 3.77992C44.66 1.00992 47.69 -0.500079 50.67 0.149921C53.65 0.799921 55.78 3.44992 55.78 6.49992V99.3699C55.78 102.96 52.87 105.87 49.28 105.87ZM16.65 92.8699H42.78V36.1399L16.65 92.8699Z" fill="black"/>
</g>
<defs>
<clipPath id="clip0_14266_20339">
<rect width="176.81" height="105.87" fill="white"/>
</clipPath>
</defs>
</svg>
