<svg width="100" height="100" viewBox="0 0 100 100" fill="none" xmlns="http://www.w3.org/2000/svg">
<mask id="mask0_12525_232243" style="mask-type:luminance" maskUnits="userSpaceOnUse" x="5" y="17" width="90" height="67">
<path d="M95 17H5V83.9112H95V17Z" fill="white"/>
</mask>
<g mask="url(#mask0_12525_232243)">
<path d="M42.5938 77.8287V58.881C42.5938 57.4359 43.7664 56.2632 45.2116 56.2632H54.778C56.2232 56.2632 57.3959 57.4359 57.3959 58.881V77.8287" fill="#141618"/>
<path d="M30.8723 50.0736C30.0646 50.0736 29.252 49.7671 28.634 49.1491C27.398 47.9132 27.398 45.9133 28.634 44.6773L43.9811 29.3302C45.5966 27.7196 47.7376 26.8292 50.0197 26.8292C52.3018 26.8292 54.4477 27.7196 56.0583 29.3302L71.1767 44.4486C72.4126 45.6846 72.4126 47.6845 71.1767 48.9204C69.9408 50.1564 67.9409 50.1564 66.7049 48.9204L51.5865 33.802C51.168 33.3836 50.6133 33.1549 50.0197 33.1549C49.426 33.1549 48.8713 33.3836 48.4529 33.802L33.1058 49.1491C32.4878 49.7671 31.6801 50.0736 30.8674 50.0736H30.8723Z" fill="#141618"/>
<path d="M89.5599 46.8767H66.1548C64.408 46.8767 62.992 45.4607 62.992 43.7138C62.992 41.967 64.408 40.551 66.1548 40.551H88.1293L79.8718 23.8074C79.7259 23.5105 79.429 23.3256 79.0982 23.3256H20.8969C20.566 23.3256 20.2692 23.5105 20.1232 23.8074L11.8706 40.551H33.8841C35.6309 40.551 37.0469 41.967 37.0469 43.7138C37.0469 45.4607 35.6309 46.8767 33.8841 46.8767H10.4401C8.54725 46.8767 6.82471 45.9181 5.82233 44.3123C4.82482 42.7066 4.7275 40.7359 5.56444 39.0377L14.4545 21.0095C15.6709 18.5376 18.1428 16.9999 20.8969 16.9999H79.0982C81.8571 16.9999 84.3241 18.5376 85.5455 21.0095L94.4355 39.0377C95.2725 40.7359 95.1751 42.7066 94.1776 44.3123C93.1801 45.9181 91.4527 46.8767 89.5599 46.8767Z" fill="#141618"/>
<path d="M30.9304 83.3467C29.1836 83.3467 27.7676 81.9307 27.7676 80.1838V45.1832C27.7676 43.4364 29.1836 42.0204 30.9304 42.0204C32.6773 42.0204 34.0933 43.4364 34.0933 45.1832V80.179C34.0933 81.9258 32.6773 83.3418 30.9304 83.3418V83.3467Z" fill="#141618"/>
<path d="M69.1086 83.3466C67.3618 83.3466 65.9458 81.9307 65.9458 80.1838V44.1663C65.9458 42.4195 67.3618 41.0035 69.1086 41.0035C70.8555 41.0035 72.2715 42.4195 72.2715 44.1663V80.1838C72.2715 81.9307 70.8555 83.3466 69.1086 83.3466Z" fill="#141618"/>
<path d="M82.4071 83.9111H17.5931C14.1578 83.9111 11.3647 81.118 11.3647 77.6827V45.1396C11.3647 43.3928 12.7807 41.9768 14.5276 41.9768C16.2745 41.9768 17.6904 43.3928 17.6904 45.1396V77.5902H82.3098V43.7139C82.3098 41.9671 83.7257 40.5511 85.4726 40.5511C87.2195 40.5511 88.6355 41.9671 88.6355 43.7139V77.6876C88.6355 81.1229 85.8424 83.9159 82.4071 83.9159V83.9111Z" fill="#141618"/>
</g>
</svg>
