<svg width="20" height="20" viewBox="0 0 20 20" fill="none" xmlns="http://www.w3.org/2000/svg">
<path d="M17 7.41536C17 6.81928 16.8802 6.24162 16.6457 5.69577C16.4181 5.17001 16.0929 4.69783 15.6787 4.29263C15.2646 3.88743 14.7819 3.56929 14.2445 3.3466C13.6883 3.11553 13.0961 3 12.4868 3C11.8775 3 11.2871 3.11721 10.7291 3.3466C10.1917 3.56929 9.70908 3.88743 9.2949 4.29263C8.88072 4.69783 8.55554 5.17001 8.32791 5.69577C8.09172 6.23994 7.97363 6.81928 7.97363 7.41536C7.97363 8.16046 8.16532 8.8905 8.52986 9.54016L3.12671 14.8212C3.00177 14.9434 2.9624 15.1293 3.03942 15.3051C3.05483 15.3419 3.0805 15.3754 3.10959 15.4039L4.31961 16.5876C4.34871 16.6161 4.38294 16.6396 4.42059 16.6563C4.6003 16.7317 4.79027 16.6948 4.91521 16.5709L5.66313 15.8392L6.73965 16.8924C6.76875 16.9208 6.80298 16.9443 6.84061 16.961C7.02032 17.0364 7.21031 16.9996 7.33523 16.8756L8.52814 15.7086C8.55723 15.6801 8.58119 15.6466 8.59831 15.6098C8.67532 15.434 8.63767 15.2481 8.51102 15.1259L7.45161 14.0895L10.3132 11.2882C10.9756 11.6449 11.7235 11.8324 12.4851 11.8324C13.0944 11.8324 13.6848 11.7152 14.2428 11.4858C14.7802 11.2631 15.2628 10.945 15.677 10.5398C16.0912 10.1346 16.4163 9.66241 16.644 9.13663C16.8802 8.58911 17 8.01144 17 7.41536Z" stroke="#000" stroke-width="1.5"/>
</svg>
