<svg width="17" height="16" viewBox="0 0 17 16" fill="none" xmlns="http://www.w3.org/2000/svg">
<g id="Line Icon">
<path id="Union" fill-rule="evenodd" clip-rule="evenodd" d="M6.00065 2.75C4.94211 2.75 4.08398 3.60812 4.08398 4.66667C4.08398 5.72521 4.9421 6.58333 6.00065 6.58333C7.0592 6.58333 7.91732 5.72521 7.91732 4.66667C7.91732 3.60812 7.0592 2.75 6.00065 2.75ZM2.58398 4.66667C2.58398 2.77969 4.11368 1.25 6.00065 1.25C7.88762 1.25 9.41732 2.7797 9.41732 4.66667C9.41732 6.55364 7.88762 8.08333 6.00065 8.08333C4.11368 8.08333 2.58398 6.55364 2.58398 4.66667ZM4.00065 10.75C2.9421 10.75 2.08398 11.6081 2.08398 12.6667C2.08398 12.9888 2.34515 13.25 2.66732 13.25L9.33399 13.25C9.65615 13.25 9.91732 12.9888 9.91732 12.6667C9.91732 11.6081 9.0592 10.75 8.00065 10.75L4.00065 10.75ZM11.4173 12.6667C11.4173 13.8173 10.4846 14.75 9.33398 14.75L2.66732 14.75C1.51672 14.75 0.583982 13.8173 0.583982 12.6667C0.583983 10.7797 2.11368 9.25 4.00065 9.25L8.00065 9.25C9.88762 9.25 11.4173 10.7797 11.4173 12.6667ZM14.084 4.66667C14.084 4.25246 13.7482 3.91667 13.334 3.91667C12.9198 3.91667 12.584 4.25245 12.584 4.66667L12.584 5.91667L11.334 5.91667C10.9198 5.91667 10.584 6.25246 10.584 6.66667C10.584 7.08088 10.9198 7.41667 11.334 7.41667L12.584 7.41667L12.584 8.66667C12.584 9.08088 12.9198 9.41667 13.334 9.41667C13.7482 9.41667 14.084 9.08088 14.084 8.66667L14.084 7.41667L15.334 7.41667C15.7482 7.41667 16.084 7.08088 16.084 6.66667C16.084 6.25246 15.7482 5.91667 15.334 5.91667L14.084 5.91667L14.084 4.66667Z" fill="#000000"/>
</g>
</svg>
