<svg width="14" height="15" viewBox="0 0 14 15" fill="none" xmlns="http://www.w3.org/2000/svg">
<g clip-path="url(#clip0_2329_96099)">
<path d="M14 12.0664C14 12.2477 13.933 12.4216 13.8136 12.5498C13.6943 12.678 13.5324 12.75 13.3636 12.75H5.72727C5.5585 12.75 5.39664 12.678 5.2773 12.5498C5.15795 12.4216 5.09091 12.2477 5.09091 12.0664C5.09091 10.9786 5.49318 9.93536 6.20923 9.16616C6.92528 8.39697 7.89645 7.96484 8.90909 7.96484H10.1818C11.1945 7.96484 12.1656 8.39697 12.8817 9.16616C13.5977 9.93536 14 10.9786 14 12.0664ZM9.54545 1.8125C9.04201 1.8125 8.54987 1.97287 8.13128 2.27333C7.71268 2.57378 7.38642 3.00083 7.19376 3.50048C7.0011 4.00012 6.95069 4.54991 7.04891 5.08033C7.14713 5.61074 7.38956 6.09796 7.74555 6.48037C8.10153 6.86278 8.55509 7.1232 9.04886 7.22871C9.54263 7.33422 10.0544 7.28007 10.5196 7.07311C10.9847 6.86615 11.3822 6.51568 11.6619 6.06601C11.9416 5.61635 12.0909 5.08768 12.0909 4.54688C12.0909 3.82167 11.8227 3.12617 11.3454 2.61338C10.868 2.10058 10.2206 1.8125 9.54545 1.8125ZM3.81818 1.8125C3.31474 1.8125 2.8226 1.97287 2.404 2.27333C1.98541 2.57378 1.65915 3.00083 1.46649 3.50048C1.27383 4.00012 1.22342 4.54991 1.32164 5.08033C1.41985 5.61074 1.66229 6.09796 2.01827 6.48037C2.37426 6.86278 2.82782 7.1232 3.32159 7.22871C3.81536 7.33422 4.32716 7.28007 4.79229 7.07311C5.25741 6.86615 5.65495 6.51568 5.93465 6.06601C6.21435 5.61635 6.36364 5.08768 6.36364 4.54688C6.36364 3.82167 6.09546 3.12617 5.61809 2.61338C5.14072 2.10058 4.49328 1.8125 3.81818 1.8125ZM3.81818 12.0664C3.81724 11.3484 3.94893 10.6373 4.20563 9.97428C4.46233 9.3113 4.83894 8.70962 5.31364 8.2041C4.92516 8.04655 4.51342 7.9655 4.09818 7.96484H3.53818C2.60031 7.96665 1.70134 8.36767 1.03817 9.08006C0.374994 9.79246 0.00168228 10.7582 0 11.7656V12.0664C0 12.2477 0.0670452 12.4216 0.186387 12.5498C0.305728 12.678 0.467589 12.75 0.636364 12.75H3.93273C3.85864 12.5308 3.8199 12.2996 3.81818 12.0664Z" fill="#000"/>
</g>
<defs>
<clipPath id="clip0_2329_96099">
<rect width="14" height="14" fill="white" transform="translate(0 0.5)"/>
</clipPath>
</defs>
</svg>
