<svg width="14" height="15" viewBox="0 0 14 15" fill="none" xmlns="http://www.w3.org/2000/svg">
<g clip-path="url(#clip0_2329_65470)">
<path d="M7.00002 6.54545H4.66668V4.63636C4.66668 3.84891 5.29673 3.20455 6.06668 3.20455H11.2C11.97 3.20455 12.6 3.84891 12.6 4.63636V6.54545H10.2667V6.06818C10.2667 5.54314 9.84673 5.11364 9.33335 5.11364H7.93335C7.41997 5.11364 7.00002 5.54314 7.00002 6.06818V6.54545ZM13.0667 10.8409V11.7955H14V12.75H1.52588e-05V11.7955H1.40002V6.54545H2.33335V11.7955H4.20002V10.8409H3.26668V8.93182C3.26668 8.14227 3.89468 7.5 4.66668 7.5H12.6C13.372 7.5 14 8.14227 14 8.93182V10.8409H13.0667ZM12.1333 10.8409H5.13335V11.7955H12.1333V10.8409ZM3.00373 2.55971L2.89002 2.25H0.843342L0.729638 2.55971C0.558511 3.0265 1.52588e-05 4.59045 1.52588e-05 5.11364V5.59091H3.73335V5.11364C3.73335 4.59045 3.17485 3.0265 3.00373 2.55971Z" fill="#000"/>
</g>
<defs>
<clipPath id="clip0_2329_65470">
<rect width="14" height="14" fill="white" transform="translate(0 0.5)"/>
</clipPath>
</defs>
</svg>
