<svg width="21" height="20" viewBox="0 0 21 20" fill="none" xmlns="http://www.w3.org/2000/svg">
<path d="M16.5877 6.83008V18.118H4.68799V6.83008H3.63281V18.1725C3.63281 18.9469 4.08809 19.5779 4.64692 19.5779H16.6269C17.1858 19.5779 17.641 18.9469 17.641 18.1725V6.83008H16.5859H16.5877Z" fill="#1F1F1F"/>
<path d="M19.2661 7.66316L10.8639 0.910688C10.8103 0.871099 10.755 0.851305 10.6996 0.838933C10.6907 0.838933 10.6836 0.833984 10.6746 0.833984C10.6568 0.833984 10.6389 0.833984 10.6211 0.833984C10.6032 0.833984 10.5854 0.833984 10.5675 0.833984C10.5586 0.833984 10.5514 0.838933 10.5425 0.838933C10.4872 0.851305 10.4318 0.871099 10.3783 0.910688L2.00472 7.65574C1.75297 7.83884 1.65656 8.27432 1.78868 8.62321C1.9208 8.97209 2.23503 9.1057 2.48677 8.9226L10.6193 2.35323L18.7804 8.93003C19.0322 9.11313 19.3446 8.97951 19.4785 8.63063C19.6106 8.28175 19.5142 7.84874 19.2625 7.66316H19.2661Z" fill="#1F1F1F"/>
<path d="M6.88588 12.9184C6.88588 12.906 6.88588 12.8936 6.88588 12.8788C6.95016 11.7233 8.60344 10.7979 10.6352 10.7979C12.6599 10.7979 14.3096 11.7183 14.3845 12.8689C14.3845 12.8738 14.3845 12.8812 14.3845 12.8862C14.3845 12.8961 14.3845 12.9085 14.3845 12.9184V13.5246V15.8133C14.3845 16.1474 14.1881 16.4196 13.9471 16.4196C13.7061 16.4196 13.5097 16.1474 13.5097 15.8133V14.6702H7.7518V15.8133C7.7518 16.1474 7.55541 16.4196 7.31438 16.4196C7.07335 16.4196 6.87695 16.1474 6.87695 15.8133V12.9184H6.88588Z" fill="#1F1F1F"/>
<path d="M12.2766 8.86007C12.2766 8.63985 12.1463 8.43943 11.9891 8.4617C11.6517 8.50871 11.4232 8.62501 10.6394 8.62501C9.90201 8.62501 9.62528 8.50624 9.28784 8.4617C9.13072 8.44191 9.00039 8.64233 9.00039 8.86007V10.0997C8.47905 10.2358 8.20231 10.3076 7.85059 10.5525V7.90745C7.85059 7.57589 8.04698 7.30371 8.28622 7.30371H12.9908C13.23 7.30371 13.4264 7.57589 13.4264 7.90745V10.5525C13.0747 10.31 12.7979 10.2358 12.2766 10.0997V8.86007Z" fill="#1F1F1F"/>
</svg>
