<svg width="24" height="24" viewBox="0 0 24 24" fill="none" xmlns="http://www.w3.org/2000/svg">
  <path fill-rule="evenodd" clip-rule="evenodd" d="M12.0001 22.002C17.523 22.002 22.0001 17.5248 22.0001 12.002C22.0001 6.47911 17.523 2.00195 12.0001 2.00195C6.47728 2.00195 2.00012 6.47911 2.00012 12.002C2.00012 17.5248 6.47728 22.002 12.0001 22.002ZM16.4421 9.44422C16.6862 9.20014 16.6862 8.80441 16.4421 8.56034C16.198 8.31626 15.8023 8.31626 15.5582 8.56034L11.0001 13.1184L9.44208 11.5603C9.19801 11.3163 8.80228 11.3163 8.5582 11.5603C8.31412 11.8044 8.31412 12.2001 8.5582 12.4442L10.5582 14.4442C10.6754 14.5614 10.8344 14.6273 11.0001 14.6273C11.1659 14.6273 11.3249 14.5614 11.4421 14.4442L16.4421 9.44422Z" fill="black"/>
</svg>
