<svg width="32" height="24" viewBox="0 0 32 24" fill="none" xmlns="http://www.w3.org/2000/svg">
<path d="M21.0482 7.29395C20.9219 7.29395 20.7953 7.24782 20.6958 7.15464L16.6361 3.3519C16.4282 3.15723 16.4176 2.83093 16.6123 2.62309C16.8069 2.41529 17.1333 2.40456 17.3411 2.59928L21.4008 6.40206C21.6087 6.59673 21.6193 6.92303 21.4247 7.13087C21.3232 7.2392 21.1859 7.29395 21.0482 7.29395Z" fill="#8E8E8E"/>
<path d="M11.5159 7.29431C11.3782 7.29431 11.2409 7.23956 11.1394 7.13119C10.9447 6.92334 10.9554 6.59704 11.1633 6.40237L15.2239 2.59922C15.4318 2.40459 15.7581 2.41528 15.9527 2.62308C16.1474 2.83092 16.1367 3.15722 15.9289 3.35189L11.8682 7.15505C11.7688 7.24819 11.6421 7.29431 11.5159 7.29431Z" fill="#8E8E8E"/>
<path d="M16.2819 3.73987C15.3834 3.73987 14.6525 3.01078 14.6525 2.11462C14.7343 -0.0384881 17.8299 -0.0379258 17.9114 2.11462C17.9114 3.01082 17.1804 3.73987 16.2819 3.73987ZM16.2819 1.52067C15.9521 1.52067 15.6837 1.78711 15.6837 2.11467C15.7137 2.90156 16.8503 2.90137 16.8802 2.11467C16.8802 1.78711 16.6118 1.52067 16.2819 1.52067Z" fill="#8E8E8E"/>
<path d="M0 10.5C0 8.29086 1.79086 6.5 4 6.5H28C30.2091 6.5 32 8.29086 32 10.5V18.5C32 20.7091 30.2091 22.5 28 22.5H4C1.79086 22.5 0 20.7091 0 18.5V10.5Z" fill="#8E8E8E"/>
<path d="M4.37945 17.1294C4.03274 17.1294 3.71453 17.0676 3.42482 16.9441C3.13511 16.8206 2.88339 16.6449 2.66967 16.4169C2.45594 16.1842 2.28971 15.9111 2.17098 15.5977C2.05699 15.2842 2 14.9399 2 14.5647C2 14.2085 2.06174 13.8784 2.18523 13.5744C2.31346 13.2657 2.48919 12.995 2.71241 12.7623C2.93563 12.5296 3.19447 12.3491 3.48894 12.2208C3.7834 12.0926 4.10161 12.0285 4.44357 12.0285C4.68579 12.0285 4.92088 12.0665 5.14885 12.1425C5.38157 12.2137 5.59055 12.3158 5.77577 12.4488C5.96575 12.5771 6.12011 12.7243 6.23884 12.8905L5.72591 13.4248C5.52168 13.2158 5.31271 13.0591 5.09898 12.9546C4.88526 12.8501 4.66679 12.7979 4.44357 12.7979C4.21085 12.7979 3.99237 12.843 3.78815 12.9333C3.58867 13.0187 3.41295 13.1399 3.26097 13.2966C3.11373 13.4533 2.99737 13.6409 2.91188 13.8594C2.8264 14.0731 2.78365 14.3082 2.78365 14.5647C2.78365 14.8354 2.82402 15.0824 2.90476 15.3056C2.99025 15.5241 3.10899 15.7117 3.26097 15.8684C3.41295 16.0251 3.59342 16.1462 3.8024 16.2317C4.01612 16.3125 4.25122 16.3528 4.50768 16.3528C4.66441 16.3528 4.81877 16.3315 4.97075 16.2887C5.12273 16.246 5.26521 16.1842 5.3982 16.1035C5.53118 16.0227 5.65229 15.9278 5.76153 15.8185L6.14623 16.4454C6.03699 16.5737 5.88738 16.69 5.69741 16.7945C5.51218 16.899 5.30321 16.9821 5.07049 17.0439C4.84252 17.1009 4.61217 17.1294 4.37945 17.1294Z" fill="white"/>
<path d="M7.19141 17.0581V12.0712H7.96081V16.3172H10.2975V17.0581H7.19141Z" fill="white"/>
<path d="M13.4044 17.1294C13.0529 17.1294 12.7276 17.0652 12.4283 16.937C12.1339 16.8088 11.875 16.6307 11.6518 16.4027C11.4333 16.17 11.2624 15.8993 11.1389 15.5905C11.0202 15.2771 10.9608 14.9351 10.9608 14.5647C10.9608 14.1942 11.0202 13.8546 11.1389 13.5459C11.2624 13.2325 11.4333 12.9618 11.6518 12.7338C11.875 12.5011 12.1339 12.3206 12.4283 12.1924C12.7276 12.0641 13.0529 12 13.4044 12C13.7558 12 14.0788 12.0641 14.3732 12.1924C14.6724 12.3206 14.9313 12.5011 15.1498 12.7338C15.373 12.9665 15.544 13.2396 15.6627 13.5531C15.7862 13.8618 15.8479 14.199 15.8479 14.5647C15.8479 14.9304 15.7862 15.27 15.6627 15.5834C15.544 15.8921 15.373 16.1628 15.1498 16.3956C14.9313 16.6283 14.6724 16.8088 14.3732 16.937C14.0788 17.0652 13.7558 17.1294 13.4044 17.1294ZM13.4044 16.3813C13.6466 16.3813 13.8674 16.3362 14.0669 16.246C14.2711 16.1557 14.4468 16.0299 14.5941 15.8684C14.7413 15.7022 14.8553 15.5098 14.936 15.2913C15.0215 15.0681 15.0643 14.8259 15.0643 14.5647C15.0643 14.3035 15.0215 14.0636 14.936 13.8451C14.8553 13.6219 14.7413 13.4296 14.5941 13.2681C14.4468 13.1019 14.2711 12.9736 14.0669 12.8834C13.8674 12.7932 13.6466 12.748 13.4044 12.748C13.1621 12.748 12.9389 12.7932 12.7347 12.8834C12.5352 12.9736 12.3595 13.0995 12.2075 13.261C12.0603 13.4224 11.9463 13.6148 11.8655 13.838C11.7848 14.0565 11.7444 14.2987 11.7444 14.5647C11.7444 14.9161 11.8157 15.2296 11.9582 15.5051C12.1006 15.7758 12.2954 15.9895 12.5423 16.1462C12.7941 16.303 13.0814 16.3813 13.4044 16.3813Z" fill="white"/>
<path d="M18.4285 17.1294C18.02 17.1294 17.6591 17.0486 17.3456 16.8871C17.0369 16.7257 16.7709 16.4834 16.5477 16.1605L17.0749 15.5549C17.3076 15.8874 17.5308 16.1177 17.7445 16.246C17.9583 16.3742 18.2124 16.4383 18.5068 16.4383C18.6873 16.4383 18.8512 16.4098 18.9984 16.3528C19.1456 16.2958 19.262 16.2175 19.3475 16.1177C19.433 16.018 19.4757 15.904 19.4757 15.7758C19.4757 15.6903 19.4614 15.6095 19.433 15.5336C19.4045 15.4576 19.3593 15.3887 19.2976 15.327C19.2406 15.2652 19.1646 15.2082 19.0696 15.156C18.9794 15.1037 18.8725 15.0586 18.749 15.0206C18.6256 14.9779 18.4831 14.9423 18.3216 14.9138C18.0651 14.8615 17.8419 14.7926 17.6519 14.7072C17.462 14.6217 17.3028 14.5148 17.1746 14.3866C17.0464 14.2583 16.9514 14.1135 16.8896 13.952C16.8279 13.7858 16.797 13.6005 16.797 13.3963C16.797 13.1256 16.873 12.8858 17.025 12.6768C17.177 12.4678 17.3812 12.304 17.6377 12.1852C17.8989 12.0617 18.191 12 18.5139 12C18.8986 12 19.2335 12.076 19.5184 12.228C19.8082 12.3752 20.0361 12.5913 20.2024 12.8763L19.6609 13.4106C19.5184 13.1779 19.3475 12.9997 19.148 12.8763C18.9533 12.7528 18.7348 12.691 18.4926 12.691C18.3073 12.691 18.1459 12.7195 18.0081 12.7765C17.8704 12.8335 17.7612 12.9143 17.6804 13.0187C17.6044 13.1185 17.5664 13.2372 17.5664 13.375C17.5664 13.4747 17.5854 13.5673 17.6234 13.6528C17.6614 13.7335 17.7184 13.8071 17.7944 13.8736C17.8751 13.9354 17.982 13.9924 18.115 14.0446C18.248 14.0921 18.4071 14.1349 18.5923 14.1729C18.8535 14.2298 19.0862 14.3035 19.2905 14.3937C19.4947 14.4792 19.668 14.5813 19.8105 14.7C19.953 14.8188 20.0599 14.9518 20.1311 15.099C20.2071 15.2462 20.2451 15.4053 20.2451 15.5763C20.2451 15.8945 20.1715 16.17 20.0243 16.4027C19.877 16.6354 19.668 16.8159 19.3973 16.9441C19.1266 17.0676 18.8037 17.1294 18.4285 17.1294Z" fill="white"/>
<path d="M21.3353 17.0581V12.0712H24.477V12.8121H22.1047V16.3172H24.477V17.0581H21.3353ZM21.6843 14.871V14.1301H24.0852V14.871H21.6843Z" fill="white"/>
<path d="M25.7113 17.0581V12.0712H27.6633C28.0195 12.0712 28.3401 12.1306 28.625 12.2493C28.9148 12.3681 29.1617 12.5391 29.366 12.7623C29.5702 12.9855 29.7269 13.2491 29.8361 13.5531C29.9454 13.857 30 14.1942 30 14.5647C30 14.9351 29.9454 15.2747 29.8361 15.5834C29.7269 15.8874 29.5702 16.151 29.366 16.3742C29.1665 16.5927 28.9219 16.7613 28.6322 16.88C28.3425 16.9987 28.0195 17.0581 27.6633 17.0581H25.7113ZM26.4807 16.3956L26.4593 16.3172H27.6277C27.8794 16.3172 28.1026 16.2768 28.2973 16.1961C28.4968 16.1154 28.663 16.0014 28.796 15.8541C28.9338 15.7022 29.0382 15.5169 29.1095 15.2985C29.1807 15.08 29.2163 14.8354 29.2163 14.5647C29.2163 14.294 29.1807 14.0517 29.1095 13.838C29.0382 13.6195 28.9338 13.4343 28.796 13.2823C28.6583 13.1304 28.4921 13.014 28.2973 12.9333C28.1026 12.8525 27.8794 12.8121 27.6277 12.8121H26.4379L26.4807 12.748V16.3956Z" fill="white"/>
</svg>
