<svg width="25" height="24" viewBox="0 0 25 24" fill="none" xmlns="http://www.w3.org/2000/svg">
  <path fill-rule="evenodd" clip-rule="evenodd" d="M15.9697 16.5303C16.2626 16.8232 16.7374 16.8232 17.0303 16.5303C17.3232 16.2374 17.3232 15.7626 17.0303 15.4697L13.0303 11.4697C12.7374 11.1768 12.2626 11.1768 11.9697 11.4697L7.96967 15.4697C7.67678 15.7626 7.67678 16.2374 7.96967 16.5303C8.26256 16.8232 8.73744 16.8232 9.03033 16.5303L12.5 13.0607L15.9697 16.5303ZM17.9697 12.5303C18.2626 12.8232 18.7374 12.8232 19.0303 12.5303C19.3232 12.2374 19.3232 11.7626 19.0303 11.4697L13.1718 5.61109C12.8008 5.24009 12.1992 5.24009 11.8282 5.61109L5.96967 11.4697C5.67678 11.7626 5.67678 12.2374 5.96967 12.5303C6.26256 12.8232 6.73744 12.8232 7.03033 12.5303L12.5 7.06066L17.9697 12.5303Z" fill="black"/>
</svg>
