<svg width="24" height="24" viewBox="0 0 24 24" fill="none" xmlns="http://www.w3.org/2000/svg">
    <path
        d="M4.0825 12.499C4.0279 12.338 4.00003 12.1691 4 11.999C4.03581 11.5028 4.26591 11.0406 4.64036 10.713C5.0148 10.3854 5.50337 10.2186 6 10.249C6.49663 10.2186 6.9852 10.3854 7.35964 10.713C7.73409 11.0406 7.96419 11.5028 8 11.999C7.99997 12.1691 7.9721 12.338 7.9175 12.499H10.5V9.51352C10.5 9.37592 10.5377 9.24095 10.609 9.12327C10.6803 9.0056 10.7825 8.90971 10.9045 8.84602C11.023 8.78321 11.1565 8.7541 11.2904 8.76186C11.4243 8.76962 11.5535 8.81395 11.664 8.89002C11.762 8.96026 11.8794 8.99834 12 8.99902C12.4065 8.99902 12.75 8.54102 12.75 7.99902C12.75 7.45702 12.4065 6.99902 12 6.99902C11.8796 6.9997 11.7623 7.03741 11.664 7.10702C11.5534 7.18309 11.4241 7.22741 11.2901 7.23517C11.1562 7.24293 11.0226 7.21382 10.904 7.15102C10.782 7.08757 10.6797 6.9918 10.6085 6.87416C10.5372 6.75652 10.4997 6.62156 10.5 6.48402V3.49902H3.5C2.96957 3.49902 2.46086 3.70974 2.08579 4.08481C1.71071 4.45988 1.5 4.96859 1.5 5.49902V12.499H4.0825Z"
        fill="#000000" />
    <path
        d="M12.7502 5.66275C12.8792 5.55199 13.0255 5.46299 13.1832 5.39925C13.6569 5.24681 14.1716 5.2873 14.6157 5.51196C15.0598 5.73661 15.3973 6.12729 15.5552 6.59925C15.7693 7.04838 15.7976 7.56381 15.6341 8.03371C15.4706 8.50361 15.1283 8.89008 14.6817 9.10925C14.5239 9.17255 14.3569 9.20987 14.1872 9.21975L15.1547 11.6143L17.9227 10.4958C18.0501 10.444 18.1894 10.4282 18.3252 10.4503C18.461 10.4723 18.5881 10.5313 18.6927 10.6208C18.7953 10.7072 18.8723 10.8201 18.9153 10.9472C18.9583 11.0743 18.9657 11.2107 18.9367 11.3418C18.9086 11.4582 18.9174 11.5805 18.9617 11.6918C19.1012 11.869 19.2945 11.9962 19.5125 12.0541C19.7305 12.1121 19.9614 12.0977 20.1706 12.0131C20.3797 11.9285 20.5557 11.7784 20.6721 11.5851C20.7885 11.3919 20.8391 11.1662 20.8162 10.9418C20.7703 10.8303 20.6912 10.7357 20.5897 10.6708C20.4776 10.5968 20.388 10.4935 20.3307 10.372C20.2734 10.2506 20.2505 10.1158 20.2647 9.98225C20.2779 9.84544 20.3284 9.71487 20.4108 9.60483C20.4931 9.49478 20.6041 9.40948 20.7317 9.35825L23.5002 8.24175L20.8782 1.75025C20.7798 1.50665 20.6344 1.28482 20.4503 1.09741C20.2662 0.910012 20.047 0.760717 19.8052 0.658056C19.5634 0.555396 19.3037 0.501382 19.041 0.499099C18.7783 0.496816 18.5177 0.54631 18.2742 0.644753L11.7842 3.26875L12.7502 5.66275Z"
        fill="#000000" />
    <path
        d="M17.9175 13.5C17.9721 13.661 18 13.8299 18 14C17.9642 14.4963 17.7341 14.9584 17.3596 15.286C16.9852 15.6137 16.4966 15.7804 16 15.75C15.5034 15.7804 15.0148 15.6137 14.6404 15.286C14.2659 14.9584 14.0358 14.4963 14 14C14 13.8299 14.0279 13.661 14.0825 13.5H11.5V16.485C11.5003 16.6225 11.4628 16.7575 11.3915 16.8751C11.3203 16.9928 11.218 17.0886 11.096 17.152C10.9776 17.215 10.8441 17.2442 10.7102 17.2367C10.5763 17.2291 10.4471 17.1849 10.3365 17.109C10.2383 17.0388 10.1207 17.0007 10 17C9.5935 17 9.25 17.458 9.25 18C9.25 18.542 9.5935 19 10 19C10.121 18.9992 10.2387 18.961 10.337 18.8905C10.4475 18.8148 10.5765 18.7708 10.7102 18.7631C10.8439 18.7555 10.9771 18.7845 11.0955 18.847C11.2175 18.9106 11.3197 19.0065 11.3911 19.1242C11.4624 19.2419 11.5001 19.3769 11.5 19.5145V22.5H18.5C19.0304 22.5 19.5391 22.2893 19.9142 21.9142C20.2893 21.5391 20.5 21.0304 20.5 20.5V13.5H17.9175Z"
        fill="#000000" />
    <path
        d="M10.5 19.9175C10.339 19.9721 10.1701 20 10 20C9.50373 19.9642 9.04162 19.7341 8.71398 19.3596C8.38634 18.9852 8.21961 18.4966 8.25 18C8.21961 17.5034 8.38634 17.0148 8.71398 16.6404C9.04162 16.2659 9.50373 16.0358 10 16C10.1701 16 10.339 16.0279 10.5 16.0825V13.5H7.515C7.37747 13.5003 7.2425 13.4628 7.12487 13.3915C7.00723 13.3203 6.91145 13.218 6.848 13.096C6.78504 12.9776 6.75576 12.8441 6.76335 12.7102C6.77093 12.5763 6.81508 12.4471 6.891 12.3365C6.96124 12.2383 6.99933 12.1207 7 12C7 11.5935 6.542 11.25 6 11.25C5.458 11.25 5 11.5935 5 12C5.00075 12.121 5.03901 12.2387 5.1095 12.337C5.18531 12.4474 5.22944 12.5765 5.23711 12.7102C5.24477 12.8439 5.21569 12.9771 5.153 13.0955C5.08936 13.2175 4.99348 13.3197 4.87579 13.3911C4.7581 13.4624 4.62311 13.5001 4.4855 13.5H1.5V20.5C1.5 21.0304 1.71071 21.5391 2.08579 21.9142C2.46086 22.2893 2.96957 22.5 3.5 22.5H10.5V19.9175Z"
        fill="#000000" />
</svg>