<svg width="24" height="24" viewBox="0 0 24 24" fill="none" xmlns="http://www.w3.org/2000/svg">
<path d="M8.25635 20.44C7.92291 20.4396 7.60324 20.3069 7.36747 20.0711C7.1317 19.8353 6.99908 19.5156 6.9987 19.1822V15.9704C6.99868 15.9478 6.99401 15.9254 6.98499 15.9047C6.97596 15.8839 6.96277 15.8652 6.94622 15.8498L5.98901 14.9588L5.39418 16.2221C5.37336 16.2662 5.34819 16.3082 5.31904 16.3474L3.0848 19.3366C2.99207 19.4845 2.8698 19.6116 2.72565 19.7099C2.5815 19.8083 2.41858 19.8759 2.24711 19.9083C2.0006 19.9562 1.74546 19.9307 1.51329 19.835C1.28112 19.7394 1.08211 19.5777 0.940908 19.37C0.799707 19.1624 0.722512 18.9178 0.718884 18.6668C0.715256 18.4157 0.785352 18.169 0.920495 17.9574L2.98273 15.0129C2.99329 14.9979 3.00118 14.9812 3.00608 14.9635L4.35852 10.184C4.36643 10.157 4.36718 10.1284 4.3607 10.101C4.35423 10.0737 4.34074 10.0485 4.32157 10.0279C4.31235 10.018 4.30202 10.0091 4.2908 10.0015L3.31476 12.1902C3.25698 12.3239 3.17337 12.445 3.06873 12.5464C2.96409 12.6477 2.84047 12.7275 2.70496 12.781C2.56944 12.8345 2.4247 12.8608 2.27902 12.8583C2.13334 12.8558 1.98958 12.8246 1.85599 12.7664C1.7224 12.7083 1.60159 12.6243 1.5005 12.5194C1.3994 12.4145 1.32001 12.2906 1.26686 12.155C1.21371 12.0193 1.18785 11.8745 1.19076 11.7288C1.19367 11.5831 1.2253 11.4395 1.28383 11.306L2.57405 8.43328C2.67965 8.22616 2.84499 8.05551 3.04867 7.94341C3.06024 7.93729 3.07217 7.93187 3.0844 7.9272L5.75232 6.9219C5.9307 6.85407 6.12866 6.8595 6.30305 6.93701L7.95442 7.66866C8.10357 7.7349 8.22619 7.84925 8.30266 7.99342L8.77069 8.87755C8.78645 8.90691 8.81061 8.93092 8.84006 8.94651L11.3956 10.2911C11.53 10.3612 11.6493 10.4571 11.7466 10.5734C11.8439 10.6896 11.9174 10.8239 11.9627 10.9685C12.0081 11.1132 12.0245 11.2653 12.0111 11.4163C11.9976 11.5673 11.9545 11.7142 11.8842 11.8485C11.8139 11.9828 11.7178 12.1019 11.6015 12.1991C11.4851 12.2963 11.3507 12.3695 11.206 12.4147C11.0613 12.4599 10.9091 12.4761 10.7582 12.4624C10.6072 12.4487 10.4604 12.4054 10.3262 12.335C10.3248 12.3341 8.74583 11.4937 7.92475 11.0549C7.90316 11.0434 7.87929 11.0369 7.85487 11.0358C7.83045 11.0347 7.8061 11.0391 7.78357 11.0486C7.76105 11.0581 7.74092 11.0725 7.72466 11.0907C7.7084 11.109 7.69641 11.1306 7.68956 11.1541L7.37291 12.2355C7.36589 12.2597 7.36449 12.2852 7.36882 12.31C7.37315 12.3348 7.3831 12.3583 7.39791 12.3786L9.34929 15.0514C9.45669 15.1979 9.51445 15.375 9.51413 15.5566V19.1822C9.51375 19.5157 9.38111 19.8354 9.14531 20.0712C8.90952 20.307 8.58982 20.4396 8.25635 20.44ZM5.89863 14.209C5.96973 14.209 6.03821 14.2359 6.09026 14.2843L7.32965 15.4379C7.40264 15.5061 7.46088 15.5886 7.50074 15.6801C7.5406 15.7717 7.56124 15.8705 7.56139 15.9704V19.1822C7.56139 19.2735 7.57937 19.3638 7.6143 19.4482C7.64923 19.5325 7.70043 19.6091 7.76497 19.6737C7.82951 19.7382 7.90613 19.7894 7.99045 19.8243C8.07478 19.8593 8.16516 19.8772 8.25643 19.8772C8.34771 19.8772 8.43809 19.8593 8.52242 19.8243C8.60674 19.7894 8.68336 19.7382 8.7479 19.6737C8.81244 19.6091 8.86364 19.5325 8.89857 19.4482C8.9335 19.3638 8.95148 19.2735 8.95148 19.1822V15.5566C8.9515 15.4942 8.93163 15.4334 8.89474 15.383L6.94349 12.7105C6.87807 12.6204 6.83412 12.5164 6.81498 12.4067C6.79583 12.2969 6.80201 12.1842 6.83304 12.0772L7.14969 10.9958C7.18002 10.8921 7.23311 10.7964 7.3051 10.7158C7.37708 10.6351 7.46615 10.5715 7.5658 10.5297C7.66546 10.4878 7.77321 10.4687 7.88119 10.4737C7.98917 10.4787 8.09468 10.5078 8.19001 10.5587C9.01068 10.9975 10.5891 11.8374 10.5891 11.8374C10.6607 11.8747 10.7391 11.8969 10.8196 11.9027C10.9001 11.9085 10.9809 11.8978 11.0571 11.8711C11.1332 11.8445 11.2031 11.8025 11.2624 11.7478C11.3218 11.6931 11.3692 11.6268 11.4019 11.553C11.4625 11.4157 11.4687 11.2604 11.4191 11.1187C11.3696 10.977 11.268 10.8594 11.135 10.7898L11.1339 10.7892L8.57753 9.44407C8.44796 9.37601 8.34199 9.27038 8.27353 9.14103L7.80536 8.25662C7.78818 8.22401 7.76049 8.19817 7.72678 8.18326L6.07542 7.45162C6.03602 7.43421 5.99135 7.43303 5.95109 7.44832L3.30295 8.44593C3.20806 8.50152 3.13068 8.58262 3.07958 8.68L1.79816 11.5343C1.76979 11.6001 1.75465 11.6708 1.75362 11.7424C1.75259 11.814 1.76568 11.8851 1.79215 11.9516C1.81861 12.0182 1.85794 12.0788 1.90787 12.1302C1.9578 12.1815 2.01736 12.2225 2.08314 12.2508C2.14893 12.2791 2.21964 12.2941 2.29124 12.295C2.36284 12.296 2.43393 12.2828 2.50043 12.2563C2.56693 12.2297 2.62755 12.1903 2.67882 12.1403C2.73008 12.0903 2.77099 12.0307 2.7992 11.9649L3.85945 9.5864C3.87797 9.54491 3.90627 9.50853 3.94191 9.48035C3.97755 9.45217 4.01949 9.43303 4.06413 9.42458C4.18595 9.40143 4.31166 9.4098 4.42933 9.44889C4.547 9.48799 4.65273 9.55651 4.73648 9.64795C4.82022 9.73939 4.87921 9.85071 4.90784 9.97136C4.93647 10.092 4.93378 10.218 4.90005 10.3373L3.54761 15.1168C3.5255 15.195 3.4904 15.2689 3.44376 15.3355L1.38796 18.2703C1.29384 18.4237 1.26042 18.6068 1.29424 18.7835C1.32807 18.9603 1.4267 19.1181 1.57081 19.2259C1.65136 19.2861 1.7436 19.3287 1.84161 19.3512C1.93963 19.3736 2.04125 19.3753 2.13995 19.3561C2.23865 19.3369 2.33225 19.2973 2.41474 19.2398C2.49724 19.1823 2.5668 19.1082 2.61896 19.0223L4.86804 16.0111C4.87463 16.0022 4.88028 15.9928 4.88492 15.9828L5.64405 14.3706C5.66288 14.3305 5.69093 14.2954 5.72591 14.2682C5.76089 14.2411 5.8018 14.2226 5.8453 14.2142C5.86286 14.2107 5.88072 14.209 5.89863 14.209ZM7.77446 6.9818C7.43603 6.9818 7.10521 6.88144 6.82382 6.69342C6.54242 6.5054 6.32311 6.23816 6.1936 5.9255C6.06409 5.61283 6.0302 5.26879 6.09622 4.93686C6.16225 4.60494 6.32522 4.30005 6.56452 4.06074C6.80382 3.82144 7.10871 3.65847 7.44064 3.59245C7.77256 3.52643 8.11661 3.56031 8.42927 3.68982C8.74194 3.81933 9.00918 4.03865 9.1972 4.32004C9.38522 4.60143 9.48557 4.93226 9.48557 5.27068C9.48504 5.72434 9.3046 6.15926 8.98381 6.48005C8.66303 6.80083 8.22811 6.98127 7.77446 6.9818ZM7.77445 4.12224C7.54731 4.12224 7.32527 4.18959 7.13641 4.31578C6.94755 4.44197 6.80036 4.62133 6.71343 4.83118C6.62651 5.04103 6.60377 5.27194 6.64808 5.49472C6.6924 5.71749 6.80177 5.92212 6.96238 6.08273C7.12299 6.24334 7.32763 6.35272 7.5504 6.39703C7.77317 6.44134 8.00408 6.4186 8.21393 6.33168C8.42378 6.24476 8.60314 6.09756 8.72933 5.9087C8.85553 5.71984 8.92288 5.49781 8.92288 5.27067C8.92255 4.96619 8.80144 4.67427 8.58614 4.45897C8.37084 4.24367 8.07893 4.12257 7.77445 4.12224Z" fill="#000" stroke="#000" stroke-width="0.4"/>
<path d="M21.8097 4.5H16.4853C15.9569 4.50078 15.4503 4.75398 15.0767 5.20407C14.703 5.65416 14.4928 6.26439 14.4922 6.90091V8.3825C14.4922 8.5691 14.5537 8.74806 14.6633 8.88C14.7728 9.01194 14.9213 9.08607 15.0762 9.08607C15.2311 9.08607 15.3797 9.01194 15.4892 8.88C15.5988 8.74806 15.6603 8.5691 15.6603 8.3825V6.90091C15.6606 6.63744 15.7476 6.38485 15.9022 6.19855C16.0569 6.01224 16.2666 5.90744 16.4853 5.90713H21.8097C22.0283 5.90767 22.2378 6.01259 22.3922 6.19887C22.5467 6.38516 22.6335 6.63762 22.6337 6.90091V17.0991C22.6335 17.3625 22.5466 17.6151 22.392 17.8014C22.2374 17.9877 22.0277 18.0926 21.809 18.0929H16.4853C16.2666 18.0926 16.0569 17.9878 15.9022 17.8015C15.7476 17.6152 15.6606 17.3626 15.6603 17.0991V15.385C15.6603 15.1984 15.5988 15.0195 15.4892 14.8875C15.3797 14.7556 15.2311 14.6815 15.0762 14.6815C14.9213 14.6815 14.7728 14.7556 14.6633 14.8875C14.5537 15.0195 14.4922 15.1984 14.4922 15.385V17.0991C14.4928 17.7356 14.703 18.3458 15.0767 18.7959C15.4503 19.246 15.9569 19.4992 16.4853 19.5H21.8097C22.338 19.4989 22.8443 19.2456 23.2177 18.7955C23.5912 18.3455 23.8012 17.7354 23.8019 17.0991V6.90091C23.8012 6.26459 23.5912 5.65454 23.2177 5.20448C22.8443 4.75442 22.338 4.50109 21.8097 4.5Z" fill="#000"/>
<path d="M20.8306 11.6022L18.8322 9.66002C18.7282 9.55887 18.5876 9.50143 18.4406 9.50003C18.2935 9.49862 18.1517 9.55337 18.0457 9.65251C17.8188 9.86481 17.8241 10.2243 18.0469 10.441L19.0875 11.4536H13.5616C13.4127 11.4536 13.2698 11.5111 13.1645 11.6135C13.0592 11.716 13 11.8549 13 11.9997C13 12.1445 13.0592 12.2835 13.1645 12.3859C13.2698 12.4883 13.4127 12.5458 13.5616 12.5458H19.0877L18.0371 13.5675C17.9317 13.67 17.8725 13.8089 17.8725 13.9537C17.8725 14.0986 17.9316 14.2375 18.037 14.34C18.1423 14.4424 18.2851 14.5 18.4341 14.5C18.5831 14.5 18.7259 14.4425 18.8313 14.3401L20.8306 12.3966C20.8843 12.3444 20.9269 12.2825 20.956 12.2144C20.985 12.1462 21 12.0732 21 11.9994C21 11.9256 20.985 11.8525 20.956 11.7844C20.9269 11.7162 20.8843 11.6543 20.8306 11.6022Z" fill="#000"/>
</svg>
