<svg width="16" height="17" viewBox="0 0 16 17" fill="none" xmlns="http://www.w3.org/2000/svg">
<path fill-rule="evenodd" clip-rule="evenodd" d="M13.8401 3.94714C14.1454 4.22703 14.1661 4.70146 13.8862 5.0068L12.9695 6.0068C12.6896 6.31214 12.2152 6.33276 11.9098 6.05287C11.6045 5.77298 11.5839 5.29855 11.8638 4.99321L12.7804 3.99321C13.0603 3.68787 13.5347 3.66724 13.8401 3.94714ZM11.0901 6.94714C11.3954 7.22703 11.4161 7.70146 11.1362 8.0068L9.30282 10.0068C9.02293 10.3121 8.5485 10.3328 8.24317 10.0529C7.93783 9.77298 7.9172 9.29855 8.19709 8.99321L10.0304 6.99321C10.3103 6.68787 10.7847 6.66724 11.0901 6.94714ZM2.1363 8.63634C2.42919 8.34345 2.90406 8.34345 3.19696 8.63634L4.03029 9.46967C4.32318 9.76257 4.32318 10.2374 4.03029 10.5303C3.7374 10.8232 3.26252 10.8232 2.96963 10.5303L2.1363 9.697C1.8434 9.40411 1.8434 8.92923 2.1363 8.63634ZM7.42342 10.9471C7.72876 11.227 7.74939 11.7015 7.46949 12.0068L6.55282 13.0068C6.4146 13.1576 6.22077 13.2454 6.01625 13.2498C5.81174 13.2543 5.61428 13.175 5.46963 13.0303L4.6363 12.197C4.3434 11.9041 4.3434 11.4292 4.6363 11.1363C4.92919 10.8434 5.40406 10.8434 5.69696 11.1363L5.9764 11.4158L6.36376 10.9932C6.64365 10.6879 7.11808 10.6672 7.42342 10.9471Z" fill="#000"/>
</svg>
