<svg width="18" height="18" viewBox="0 0 18 18" fill="none" xmlns="http://www.w3.org/2000/svg">
<g id="Line Icon">
<path id="Union" fill-rule="evenodd" clip-rule="evenodd" d="M6.75001 0.75C6.75001 0.335786 6.41422 0 6.00001 0C5.5858 0 5.25001 0.335786 5.25001 0.75V1.60638C3.32627 2.01987 1.84327 3.58555 1.55142 5.55303C1.49989 5.90043 1.49993 6.30019 1.50001 6.92857L1.50001 7V9.35L1.50001 9.383C1.5 10.4751 1.5 11.3406 1.557 12.0383C1.61528 12.7517 1.73689 13.3553 2.01773 13.9065C2.47313 14.8002 3.19979 15.5269 4.09356 15.9823C4.64473 16.2631 5.24835 16.3847 5.96174 16.443C6.65935 16.5 7.52482 16.5 8.61692 16.5H8.61699H8.65001H9.35001H9.38303H9.3831C10.4752 16.5 11.3407 16.5 12.0383 16.443C12.7517 16.3847 13.3553 16.2631 13.9065 15.9823C14.8002 15.5269 15.5269 14.8002 15.9823 13.9065C16.2631 13.3553 16.3847 12.7517 16.443 12.0383C16.5 11.3407 16.5 10.4752 16.5 9.38306V9.38305V9.38303V9.38302V9.35V8.65V8.61698V8.61697V8.61695V8.61694C16.5 7.52482 16.5 6.65934 16.443 5.96173C16.3847 5.24834 16.2631 4.64472 15.9823 4.09354C15.5269 3.19978 14.8002 2.47312 13.9065 2.01772C13.5484 1.83526 13.1681 1.72001 12.75 1.64567V0.75C12.75 0.335786 12.4142 0 12 0C11.5858 0 11.25 0.335786 11.25 0.75V1.51589C10.7135 1.49999 10.0967 1.5 9.38303 1.5H9.38301L9.35001 1.5H7.00001L6.92858 1.49999L6.75001 1.50002V0.75ZM12 3.75C11.5913 3.75 11.259 3.4231 11.2502 3.01652C10.736 3.00027 10.1186 3 9.35001 3H7.00001L6.75001 3.00015C6.74993 3.41429 6.41417 3.75 6.00001 3.75C5.63805 3.75 5.33598 3.49359 5.26553 3.15251C4.09721 3.52335 3.2194 4.53126 3.03519 5.77313C3.00206 5.99647 3.00001 6.27645 3.00001 7V9.35C3.00001 10.4825 3.00059 11.2867 3.05202 11.9161C3.10272 12.5367 3.1991 12.921 3.35424 13.2255C3.66583 13.837 4.16301 14.3342 4.77454 14.6458C5.07901 14.8009 5.46326 14.8973 6.08389 14.948C6.71328 14.9994 7.51753 15 8.65001 15H9.35001C10.4825 15 11.2867 14.9994 11.9161 14.948C12.5368 14.8973 12.921 14.8009 13.2255 14.6458C13.837 14.3342 14.3342 13.837 14.6458 13.2255C14.8009 12.921 14.8973 12.5367 14.948 11.9161C14.9994 11.2867 15 10.4825 15 9.35V8.65C15 7.51752 14.9994 6.71326 14.948 6.08388C14.8973 5.46325 14.8009 5.079 14.6458 4.77453C14.3342 4.163 13.837 3.66582 13.2255 3.35423C13.083 3.28166 12.9232 3.22194 12.7298 3.17375C12.6514 3.50418 12.3544 3.75 12 3.75ZM5.25001 5.25C4.8358 5.25 4.50001 5.58579 4.50001 6C4.50001 6.41421 4.8358 6.75 5.25001 6.75H12.75C13.1642 6.75 13.5 6.41421 13.5 6C13.5 5.58579 13.1642 5.25 12.75 5.25H5.25001Z" fill="#1F1F1F"/>
</g>
</svg>
