<svg width="24" height="24" viewBox="0 0 24 24" fill="none" xmlns="http://www.w3.org/2000/svg">
<path d="M24 11.9995C24 10.3709 23.2854 8.83449 22.0734 7.86896C22.2135 6.24439 21.633 4.65287 20.4821 3.50004C19.3311 2.34922 17.7448 1.7663 16.2015 1.94258C14.1858 -0.617477 9.83112 -0.665553 7.86247 1.90752C4.62676 1.52291 1.51515 4.57174 1.94151 7.78483C-0.616638 9.80202 -0.665679 14.1599 1.90648 16.131C1.76636 17.7556 2.34685 19.3471 3.49781 20.5C4.64878 21.6508 6.23711 22.2337 7.7784 22.0574C9.79409 24.6175 14.1487 24.6656 16.1174 22.0925C17.7388 22.2317 19.3301 21.6528 20.4821 20.5C21.632 19.3481 22.2125 17.7556 22.0384 16.2162C23.2854 15.1665 24 13.6301 24 12.0015V11.9995ZM7.98658 8.99474C7.99258 7.68467 9.98225 7.68467 9.98825 8.99474C9.98225 10.3048 7.99258 10.3048 7.98658 8.99474ZM10.821 15.5601C10.5127 16.0239 9.88717 16.1421 9.43279 15.8376C8.9724 15.5311 8.8483 14.9091 9.15556 14.4484L13.1589 8.43886C13.4652 7.97913 14.0857 7.85294 14.5471 8.16142C15.0075 8.46791 15.1316 9.08989 14.8243 9.55062L10.821 15.5601ZM14.9924 16.0058C13.6834 15.9998 13.6834 14.0087 14.9924 14.0027C16.3015 14.0087 16.3015 15.9998 14.9924 16.0058Z" fill="#FFB524"/>
</svg>
