<svg width="24" height="24" viewBox="0 0 24 24" fill="none" xmlns="http://www.w3.org/2000/svg">
<path d="M3.9624 20.44C4.29584 20.4396 4.61551 20.3069 4.85128 20.0711C5.08705 19.8353 5.21967 19.5156 5.22005 19.1822V15.9704C5.22007 15.9478 5.22474 15.9254 5.23376 15.9047C5.24279 15.8839 5.25598 15.8652 5.27253 15.8498L6.22974 14.9588L6.82457 16.2221C6.84539 16.2662 6.87056 16.3082 6.89971 16.3474L9.13395 19.3366C9.22668 19.4845 9.34895 19.6116 9.4931 19.7099C9.63725 19.8083 9.80017 19.8759 9.97164 19.9083C10.2182 19.9562 10.4733 19.9307 10.7055 19.835C10.9376 19.7394 11.1366 19.5777 11.2778 19.37C11.419 19.1624 11.4962 18.9178 11.4999 18.6668C11.5035 18.4157 11.4334 18.169 11.2983 17.9574L9.23602 15.0129C9.22546 14.9979 9.21757 14.9812 9.21267 14.9635L7.86023 10.184C7.85232 10.157 7.85157 10.1284 7.85805 10.101C7.86452 10.0737 7.87801 10.0485 7.89718 10.0279C7.9064 10.018 7.91673 10.0091 7.92795 10.0015L8.90399 12.1902C8.96177 12.3239 9.04538 12.445 9.15002 12.5464C9.25466 12.6477 9.37828 12.7275 9.51379 12.781C9.64931 12.8345 9.79405 12.8608 9.93973 12.8583C10.0854 12.8558 10.2292 12.8246 10.3628 12.7664C10.4964 12.7083 10.6172 12.6243 10.7183 12.5194C10.8193 12.4145 10.8987 12.2906 10.9519 12.155C11.005 12.0193 11.0309 11.8745 11.028 11.7288C11.0251 11.5831 10.9934 11.4395 10.9349 11.306L9.6447 8.43328C9.5391 8.22616 9.37376 8.05551 9.17008 7.94341C9.15851 7.93729 9.14658 7.93187 9.13435 7.9272L6.46643 6.9219C6.28805 6.85407 6.09009 6.8595 5.9157 6.93701L4.26433 7.66866C4.11518 7.7349 3.99256 7.84925 3.91609 7.99342L3.44806 8.87755C3.4323 8.90691 3.40814 8.93092 3.37869 8.94651L0.82313 10.2911C0.688721 10.3612 0.569449 10.4571 0.472137 10.5734C0.374825 10.6896 0.301382 10.8239 0.256006 10.9685C0.210631 11.1132 0.194214 11.2653 0.207695 11.4163C0.221176 11.5673 0.26429 11.7142 0.334571 11.8485C0.404852 11.9828 0.500922 12.1019 0.617287 12.1991C0.73365 12.2963 0.868026 12.3695 1.01273 12.4147C1.15743 12.4599 1.30962 12.4761 1.46059 12.4624C1.61157 12.4487 1.75836 12.4054 1.89258 12.335C1.89396 12.3341 3.47292 11.4937 4.294 11.0549C4.31559 11.0434 4.33946 11.0369 4.36388 11.0358C4.3883 11.0347 4.41265 11.0391 4.43518 11.0486C4.4577 11.0581 4.47783 11.0725 4.49409 11.0907C4.51035 11.109 4.52234 11.1306 4.52919 11.1541L4.84584 12.2355C4.85286 12.2597 4.85426 12.2852 4.84993 12.31C4.8456 12.3348 4.83565 12.3583 4.82084 12.3786L2.86946 15.0514C2.76206 15.1979 2.7043 15.375 2.70462 15.5566V19.1822C2.705 19.5157 2.83764 19.8354 3.07344 20.0712C3.30923 20.307 3.62893 20.4396 3.9624 20.44ZM6.32012 14.209C6.24902 14.209 6.18054 14.2359 6.12849 14.2843L4.8891 15.4379C4.81611 15.5061 4.75787 15.5886 4.71801 15.6801C4.67815 15.7717 4.65751 15.8705 4.65736 15.9704V19.1822C4.65736 19.2735 4.63938 19.3638 4.60445 19.4482C4.56952 19.5325 4.51832 19.6091 4.45378 19.6737C4.38924 19.7382 4.31262 19.7894 4.2283 19.8243C4.14397 19.8593 4.05359 19.8772 3.96232 19.8772C3.87104 19.8772 3.78066 19.8593 3.69633 19.8243C3.61201 19.7894 3.53539 19.7382 3.47085 19.6737C3.40631 19.6091 3.35511 19.5325 3.32018 19.4482C3.28525 19.3638 3.26727 19.2735 3.26727 19.1822V15.5566C3.26725 15.4942 3.28712 15.4334 3.32401 15.383L5.27526 12.7105C5.34068 12.6204 5.38463 12.5164 5.40377 12.4067C5.42292 12.2969 5.41674 12.1842 5.38571 12.0772L5.06906 10.9958C5.03873 10.8921 4.98564 10.7964 4.91365 10.7158C4.84167 10.6351 4.7526 10.5715 4.65295 10.5297C4.55329 10.4878 4.44554 10.4687 4.33756 10.4737C4.22958 10.4787 4.12407 10.5078 4.02874 10.5587C3.20807 10.9975 1.62965 11.8374 1.62965 11.8374C1.55809 11.8747 1.47965 11.8969 1.39916 11.9027C1.31868 11.9085 1.23786 11.8978 1.16169 11.8711C1.08552 11.8445 1.01562 11.8025 0.956306 11.7478C0.896991 11.6931 0.84952 11.6268 0.816822 11.553C0.756216 11.4157 0.750069 11.2604 0.799627 11.1187C0.849185 10.977 0.950744 10.8594 1.08374 10.7898L1.08484 10.7892L3.64122 9.44407C3.77079 9.37601 3.87676 9.27038 3.94522 9.14103L4.41339 8.25662C4.43057 8.22401 4.45826 8.19817 4.49197 8.18326L6.14333 7.45162C6.18273 7.43421 6.2274 7.43303 6.26766 7.44832L8.9158 8.44593C9.01069 8.50152 9.08807 8.58262 9.13917 8.68L10.4206 11.5343C10.449 11.6001 10.4641 11.6708 10.4651 11.7424C10.4662 11.814 10.4531 11.8851 10.4266 11.9516C10.4001 12.0182 10.3608 12.0788 10.3109 12.1302C10.2609 12.1815 10.2014 12.2225 10.1356 12.2508C10.0698 12.2791 9.99911 12.2941 9.92751 12.295C9.85591 12.296 9.78482 12.2828 9.71832 12.2563C9.65182 12.2297 9.5912 12.1903 9.53993 12.1403C9.48867 12.0903 9.44776 12.0307 9.41955 11.9649L8.3593 9.5864C8.34078 9.54491 8.31248 9.50853 8.27684 9.48035C8.2412 9.45217 8.19926 9.43303 8.15462 9.42458C8.0328 9.40143 7.90709 9.4098 7.78942 9.44889C7.67175 9.48799 7.56602 9.55651 7.48227 9.64795C7.39853 9.73939 7.33954 9.85071 7.31091 9.97136C7.28228 10.092 7.28497 10.218 7.3187 10.3373L8.67114 15.1168C8.69325 15.195 8.72835 15.2689 8.77499 15.3355L10.8308 18.2703C10.9249 18.4237 10.9583 18.6068 10.9245 18.7835C10.8907 18.9603 10.792 19.1181 10.6479 19.2259C10.5674 19.2861 10.4752 19.3287 10.3771 19.3512C10.2791 19.3736 10.1775 19.3753 10.0788 19.3561C9.9801 19.3369 9.8865 19.2973 9.80401 19.2398C9.72151 19.1823 9.65195 19.1082 9.59979 19.0223L7.35071 16.0111C7.34412 16.0022 7.33847 15.9928 7.33383 15.9828L6.5747 14.3706C6.55587 14.3305 6.52782 14.2954 6.49284 14.2682C6.45786 14.2411 6.41695 14.2226 6.37345 14.2142C6.35589 14.2107 6.33803 14.209 6.32012 14.209ZM4.44429 6.9818C4.78272 6.9818 5.11354 6.88144 5.39493 6.69342C5.67633 6.5054 5.89564 6.23816 6.02515 5.9255C6.15466 5.61283 6.18855 5.26879 6.12253 4.93686C6.0565 4.60494 5.89353 4.30005 5.65423 4.06074C5.41493 3.82144 5.11004 3.65847 4.77811 3.59245C4.44619 3.52643 4.10214 3.56031 3.78948 3.68982C3.47681 3.81933 3.20957 4.03865 3.02155 4.32004C2.83353 4.60143 2.73318 4.93226 2.73318 5.27068C2.73371 5.72434 2.91415 6.15926 3.23494 6.48005C3.55572 6.80083 3.99064 6.98127 4.44429 6.9818ZM4.4443 4.12224C4.67144 4.12224 4.89348 4.18959 5.08234 4.31578C5.2712 4.44197 5.41839 4.62133 5.50532 4.83118C5.59224 5.04103 5.61498 5.27194 5.57067 5.49472C5.52635 5.71749 5.41698 5.92212 5.25637 6.08273C5.09576 6.24334 4.89112 6.35272 4.66835 6.39703C4.44558 6.44134 4.21467 6.4186 4.00482 6.33168C3.79497 6.24476 3.61561 6.09756 3.48942 5.9087C3.36322 5.71984 3.29587 5.49781 3.29587 5.27067C3.2962 4.96619 3.41731 4.67427 3.63261 4.45897C3.84791 4.24367 4.13982 4.12257 4.4443 4.12224Z" fill="#000" stroke="#000" stroke-width="0.4"/>
<path d="M21.8097 4.5H16.4853C15.9569 4.50078 15.4503 4.75398 15.0767 5.20407C14.703 5.65416 14.4928 6.26439 14.4922 6.90091V8.3825C14.4922 8.5691 14.5537 8.74806 14.6633 8.88C14.7728 9.01194 14.9213 9.08607 15.0762 9.08607C15.2311 9.08607 15.3797 9.01194 15.4892 8.88C15.5988 8.74806 15.6603 8.5691 15.6603 8.3825V6.90091C15.6606 6.63744 15.7476 6.38485 15.9022 6.19855C16.0569 6.01224 16.2666 5.90744 16.4853 5.90713H21.8097C22.0283 5.90767 22.2378 6.01259 22.3922 6.19887C22.5467 6.38516 22.6335 6.63762 22.6337 6.90091V17.0991C22.6335 17.3625 22.5466 17.6151 22.392 17.8014C22.2374 17.9877 22.0277 18.0926 21.809 18.0929H16.4853C16.2666 18.0926 16.0569 17.9878 15.9022 17.8015C15.7476 17.6152 15.6606 17.3626 15.6603 17.0991V15.385C15.6603 15.1984 15.5988 15.0195 15.4892 14.8875C15.3797 14.7556 15.2311 14.6815 15.0762 14.6815C14.9213 14.6815 14.7728 14.7556 14.6633 14.8875C14.5537 15.0195 14.4922 15.1984 14.4922 15.385V17.0991C14.4928 17.7356 14.703 18.3458 15.0767 18.7959C15.4503 19.246 15.9569 19.4992 16.4853 19.5H21.8097C22.338 19.4989 22.8443 19.2456 23.2177 18.7955C23.5912 18.3455 23.8012 17.7354 23.8019 17.0991V6.90091C23.8012 6.26459 23.5912 5.65454 23.2177 5.20448C22.8443 4.75442 22.338 4.50109 21.8097 4.5Z" fill="#000"/>
<path d="M11.6698 11.6022L13.6682 9.66002C13.7721 9.55887 13.9128 9.50143 14.0598 9.50003C14.2069 9.49862 14.3486 9.55337 14.4546 9.65251C14.6816 9.86481 14.6762 10.2243 14.4535 10.441L13.4129 11.4536H18.9388C19.0877 11.4536 19.2306 11.5111 19.3359 11.6135C19.4412 11.716 19.5004 11.8549 19.5004 11.9997C19.5004 12.1445 19.4412 12.2835 19.3359 12.3859C19.2306 12.4883 19.0877 12.5458 18.9388 12.5458H13.4126L14.4633 13.5675C14.5686 13.67 14.6278 13.8089 14.6279 13.9537C14.6279 14.0986 14.5687 14.2375 14.4634 14.34C14.3581 14.4424 14.2152 14.5 14.0663 14.5C13.9173 14.5 13.7744 14.4425 13.6691 14.3401L11.6698 12.3966C11.6161 12.3444 11.5735 12.2825 11.5444 12.2144C11.5153 12.1462 11.5004 12.0732 11.5004 11.9994C11.5004 11.9256 11.5153 11.8525 11.5444 11.7844C11.5735 11.7162 11.6161 11.6543 11.6698 11.6022Z" fill="#000"/>
</svg>
