<svg width="12" height="13" viewBox="0 0 12 13" fill="none" xmlns="http://www.w3.org/2000/svg">
<g clip-path="url(#clip0_92_91400)">
<path d="M9.29055 1C6.22328 1.00196 4.63263 0.997283 2.53646 1.01076C2.13601 1.00409 2 1.20676 2 1.42686V10.2467C2 10.4312 2.11581 10.5942 2.2917 10.6543L7.68402 12.4732C7.94346 12.5769 8.25028 12.367 8.25028 12.0656V3.24574C8.25028 3.06128 8.13444 2.89827 7.95854 2.8425L6.31752 2.28695C6.38122 2.28695 9.33679 2.28695 9.29055 2.28695C9.42354 2.28695 9.53078 2.39419 9.53078 2.53147V9.57535C9.53078 9.71263 9.42354 9.81988 9.29055 9.81988H9.09321V11.1068H9.29055C10.1356 11.1068 10.8177 10.4205 10.8177 9.57535V2.53147C10.8177 1.68636 10.1356 1 9.29055 1ZM6.78314 6.86206C6.78314 7.12376 6.56865 7.34252 6.30697 7.34252C6.04101 7.34252 5.82222 7.12376 5.82222 6.86206C5.82222 6.59609 6.04101 6.37731 6.30697 6.37731C6.56865 6.37731 6.78314 6.59609 6.78314 6.86206Z" fill="#000000"/>
</g>
<defs>
<clipPath id="clip0_92_91400">
<rect width="12" height="12" fill="white" transform="translate(0 0.5)"/>
</clipPath>
</defs>
</svg>
