<svg width="19" height="19" viewBox="0 0 19 19" fill="none" xmlns="http://www.w3.org/2000/svg">
  <g clip-path="url(#clip0_2234_113366)">
    <mask id="mask0_2234_113366" style="mask-type:luminance" maskUnits="userSpaceOnUse" x="0" y="0" width="19" height="19">
      <path d="M0 0H19V19H0V0Z" fill="white"/>
    </mask>
    <g mask="url(#mask0_2234_113366)">
      <path d="M8.70835 14.2493C8.70835 15.1202 7.99585 15.8327 7.12502 15.8327C6.25419 15.8327 5.54169 15.1202 5.54169 14.2493C5.54169 13.3785 6.25419 12.666 7.12502 12.666C7.99585 12.666 8.70835 13.3785 8.70835 14.2493ZM7.12502 7.91602C6.25419 7.91602 5.54169 8.62852 5.54169 9.49935C5.54169 10.3702 6.25419 11.0827 7.12502 11.0827C7.99585 11.0827 8.70835 10.3702 8.70835 9.49935C8.70835 8.62852 7.99585 7.91602 7.12502 7.91602ZM7.12502 3.16602C6.25419 3.16602 5.54169 3.87852 5.54169 4.74935C5.54169 5.62018 6.25419 6.33268 7.12502 6.33268C7.99585 6.33268 8.70835 5.62018 8.70835 4.74935C8.70835 3.87852 7.99585 3.16602 7.12502 3.16602ZM11.875 6.33268C12.7459 6.33268 13.4584 5.62018 13.4584 4.74935C13.4584 3.87852 12.7459 3.16602 11.875 3.16602C11.0042 3.16602 10.2917 3.87852 10.2917 4.74935C10.2917 5.62018 11.0042 6.33268 11.875 6.33268ZM11.875 7.91602C11.0042 7.91602 10.2917 8.62852 10.2917 9.49935C10.2917 10.3702 11.0042 11.0827 11.875 11.0827C12.7459 11.0827 13.4584 10.3702 13.4584 9.49935C13.4584 8.62852 12.7459 7.91602 11.875 7.91602ZM11.875 12.666C11.0042 12.666 10.2917 13.3785 10.2917 14.2493C10.2917 15.1202 11.0042 15.8327 11.875 15.8327C12.7459 15.8327 13.4584 15.1202 13.4584 14.2493C13.4584 13.3785 12.7459 12.666 11.875 12.666Z" fill="black"/>
    </g>
  </g>
  <defs>
    <clipPath id="clip0_2234_113366">
      <rect width="19" height="19" fill="white"/>
    </clipPath>
  </defs>
</svg>
