<svg width="20" height="20" viewBox="0 0 20 20" fill="none" xmlns="http://www.w3.org/2000/svg">
<path fill-rule="evenodd" clip-rule="evenodd" d="M15.7202 3.44654C15.3228 3.04908 14.6784 3.04907 14.2809 3.44652L14.0615 3.66594C14.0703 4.45303 14.7136 5.09639 15.5006 5.10537L15.7202 4.88582C16.1176 4.48837 16.1176 3.84399 15.7202 3.44654ZM16.3753 6.35204L16.7808 5.94648C17.7641 4.96325 17.7641 3.36915 16.7809 2.3859C15.7977 1.40264 14.2035 1.40261 13.2202 2.38585L7.39032 8.2157L7.34622 8.2598C6.92162 8.68428 6.64782 8.95802 6.42213 9.27197C6.22215 9.55016 6.05286 9.84916 5.9172 10.1638C5.7641 10.5188 5.67024 10.8944 5.5247 11.4769L5.50958 11.5374L5.10619 13.151C5.0423 13.4065 5.11718 13.6769 5.30347 13.8632C5.48975 14.0495 5.76012 14.1244 6.0157 14.0605L7.62926 13.6571L7.68978 13.642C8.27224 13.4964 8.64786 13.4026 9.00291 13.2495C9.31751 13.1138 9.61651 12.9445 9.89469 12.7445C10.2086 12.5189 10.4824 12.2451 10.9069 11.8205L10.9509 11.7764L16.3523 6.37498C16.3602 6.36749 16.3678 6.35985 16.3753 6.35204ZM14.2746 6.33139C13.6427 6.03652 13.1302 5.52399 12.8354 4.89203L8.45097 9.27637C7.96774 9.7596 7.78604 9.94448 7.64008 10.1475C7.50325 10.3379 7.38742 10.5424 7.29461 10.7577C7.19559 10.9873 7.13054 11.2382 6.96479 11.9012L6.86457 12.3021L7.26546 12.2019C7.92844 12.0361 8.17936 11.9711 8.40898 11.8721C8.62423 11.7792 8.82881 11.6634 9.01914 11.5266C9.22218 11.3806 9.40706 11.1989 9.89029 10.7157L14.2746 6.33139ZM2.58398 17.4995C2.58398 17.0853 2.91977 16.7495 3.33398 16.7495H16.6673C17.0815 16.7495 17.4173 17.0853 17.4173 17.4995C17.4173 17.9137 17.0815 18.2495 16.6673 18.2495H3.33398C2.91977 18.2495 2.58398 17.9137 2.58398 17.4995Z" fill="#000"/>
</svg>
