<svg width="14" height="15" viewBox="0 0 14 15" fill="none" xmlns="http://www.w3.org/2000/svg">
<g clip-path="url(#clip0_2329_65476)">
<path d="M3.73336 6.84091H1.40002V4.93182C1.40002 4.14436 2.03007 3.5 2.80002 3.5H7.93336C8.70331 3.5 9.33336 4.14436 9.33336 4.93182V6.84091H7.00002V6.36364C7.00002 5.83859 6.58007 5.40909 6.06669 5.40909H4.66669C4.15331 5.40909 3.73336 5.83859 3.73336 6.36364V6.84091ZM9.80002 11.1364V12.0909H10.7334V13.0455H0L2.44379e-05 12.0909H0.933358V11.1364H2.46763e-05V9.22727C2.46763e-05 8.43772 0.628019 7.79545 1.40002 7.79545H9.33336C10.1054 7.79545 10.7334 8.43772 10.7334 9.22727V11.1364H9.80002ZM8.86669 11.1364H1.86669V12.0909H8.86669V11.1364Z" fill="#8E8E8E"/>
<path fill-rule="evenodd" clip-rule="evenodd" d="M11.5 0.96875C10.3782 0.96875 9.46875 1.87817 9.46875 3C9.46875 3.25126 9.52938 3.49713 9.60309 3.70436C9.65827 3.85952 9.69833 3.97222 9.72546 4.05719C9.75357 4.14526 9.76287 4.18918 9.76429 4.21166C9.7672 4.25797 9.76683 4.28031 9.76452 4.29901C9.7622 4.31771 9.75711 4.33946 9.743 4.38366C9.73521 4.40805 9.71982 4.4408 9.68648 4.49593C9.65312 4.55107 9.60707 4.62021 9.54186 4.71803L9.49499 4.78833C9.46303 4.83627 9.46005 4.89792 9.48724 4.94873C9.51443 4.99953 9.56738 5.03125 9.625 5.03125H11.5C12.6218 5.03125 13.5313 4.12183 13.5313 3C13.5313 1.87817 12.6218 0.96875 11.5 0.96875ZM11.5 2.21875C11.5863 2.21875 11.6563 2.28871 11.6563 2.375V2.84375H12.125C12.2113 2.84375 12.2813 2.91371 12.2813 3C12.2813 3.08629 12.2113 3.15625 12.125 3.15625H11.6563V3.625C11.6563 3.71129 11.5863 3.78125 11.5 3.78125C11.4137 3.78125 11.3438 3.71129 11.3438 3.625V3.15625H10.875C10.7887 3.15625 10.7188 3.08629 10.7188 3C10.7188 2.91371 10.7887 2.84375 10.875 2.84375H11.3438V2.375C11.3438 2.28871 11.4137 2.21875 11.5 2.21875Z" fill="#8E8E8E"/>
</g>
<defs>
<clipPath id="clip0_2329_65476">
<rect width="14" height="14" fill="white" transform="translate(0 0.5)"/>
</clipPath>
</defs>
</svg>
