<svg width="20" height="20" viewBox="0 0 20 20" fill="none" xmlns="http://www.w3.org/2000/svg">
<path d="M11.872 19C13.7587 18.8953 15.5098 18.0773 16.6673 16.753C17.2397 16.0918 17.6425 15.3267 17.8418 14.5161C18.6474 11.334 16.2179 8.493 14.0937 6.17432C13.9919 6.06212 13.8902 5.94917 13.7884 5.84073C12.5673 4.47444 12.1306 2.68863 12.6097 1C9.9343 1.94563 7.7253 3.70518 6.38124 5.95668C5.68165 7.08618 5.18134 8.30199 4.89726 9.56321C4.54959 8.84273 4.33759 8.07309 4.25703 7.29257C2.67978 9.43938 1.52652 11.9532 2.19219 14.5462C2.3957 15.3496 2.79426 16.1001 3.36241 16.753C4.51143 18.0664 6.24132 18.8844 8.11537 18.9966C6.87731 18.3215 6.39396 16.9406 6.99179 15.7661C7.7677 14.2651 9.28559 13.1694 9.9979 11.6346C10.7102 13.1694 12.2281 14.2651 13.004 15.7661C13.6018 16.9444 13.1143 18.3287 11.872 19Z" fill="#F8F7FA"/>
</svg>
