<svg width="32" height="28" viewBox="0 0 32 28" fill="none" xmlns="http://www.w3.org/2000/svg">
<path fill-rule="evenodd" clip-rule="evenodd" d="M18.75 4H13.25V9.75H18.75V4ZM18.75 11.25H13.25V16.75H18.75V11.25ZM11.75 9.75V4H9.2C8.0799 4 7.51984 4 7.09202 4.21799C6.71569 4.40973 6.40973 4.71569 6.21799 5.09202C6 5.51984 6 6.0799 6 7.2V9.75H11.75ZM6 11.25H11.75V16.75H6V11.25ZM20.25 11.25H26V16.75H20.25V11.25ZM26 9.75H20.25V4H22.8C23.9201 4 24.4802 4 24.908 4.21799C25.2843 4.40973 25.5903 4.71569 25.782 5.09202C26 5.51984 26 6.0799 26 7.2V9.75ZM11.75 18.25H6V20.8C6 21.9201 6 22.4802 6.21799 22.908C6.40973 23.2843 6.71569 23.5903 7.09202 23.782C7.51984 24 8.0799 24 9.2 24H11.75V18.25ZM18.75 18.25H13.25V24H18.75V18.25ZM20.25 24V18.25H26V20.8C26 21.9201 26 22.4802 25.782 22.908C25.5903 23.2843 25.2843 23.5903 24.908 23.782C24.4802 24 23.9201 24 22.8 24H20.25Z" fill="#000"/>
</svg>
