<svg width="28" height="28" viewBox="0 0 28 28" fill="none" xmlns="http://www.w3.org/2000/svg">
<g clip-path="url(#clip0_5852_50232)">
<path d="M6.73635 23.134L6.73639 23.1395C6.7374 23.2763 6.68612 23.4162 6.61146 23.5091C6.54238 23.5951 6.49239 23.6 6.47334 23.6H1.27273C1.19551 23.6 1.10721 23.5676 1.03152 23.4863C0.953803 23.4028 0.9 23.2767 0.9 23.1328V22.532C0.903179 20.7356 1.56949 19.0255 2.73508 17.7734C3.89871 16.5234 5.46175 15.8329 7.07761 15.8297C7.07778 15.8297 7.07794 15.8297 7.0781 15.8297H8.19495C8.19514 15.8297 8.19534 15.8297 8.19553 15.8297C8.47039 15.8301 8.74445 15.8511 9.01579 15.8922C9.01536 15.8996 9.01446 15.9078 9.01289 15.9167C9.00711 15.9495 8.99356 15.984 8.97109 16.0157C8.40278 16.8165 7.93235 17.6929 7.57197 18.6236C7.01789 20.0546 6.73433 21.5875 6.73635 23.134ZM27.1 23.1328C27.1 23.2767 27.0462 23.4028 26.9685 23.4863C26.8928 23.5676 26.8045 23.6 26.7273 23.6H11.4545C11.3773 23.6 11.289 23.5676 11.2133 23.4863C11.1356 23.4028 11.0818 23.2767 11.0818 23.1328C11.0818 21.1759 11.8061 19.311 13.0772 17.9456C14.3463 16.5823 16.0532 15.8297 17.8182 15.8297H20.3636C22.1286 15.8297 23.8355 16.5823 25.1046 17.9456C26.3757 19.311 27.1 21.1759 27.1 23.1328ZM16.7874 4.2778C17.4754 3.78392 18.277 3.525 19.0909 3.525C20.1808 3.525 21.2402 3.98949 22.032 4.83999L22.6907 4.22676L22.032 4.83999C22.8257 5.69267 23.2818 6.86208 23.2818 8.09375C23.2818 9.01111 23.0283 9.90317 22.5596 10.6567C22.0913 11.4096 21.4321 11.9863 20.6732 12.3239C19.9153 12.6612 19.0856 12.7482 18.2858 12.5773C17.4854 12.4063 16.7407 11.9822 16.1498 11.3475C15.5584 10.7122 15.1491 9.89513 14.9828 8.99678C14.8164 8.09829 14.9023 7.16758 15.2273 6.32475C15.5521 5.48224 16.0984 4.77234 16.7874 4.2778L16.2626 3.54665L16.7874 4.2778ZM5.33281 4.2778C6.02088 3.78392 6.82244 3.525 7.63636 3.525C8.72622 3.525 9.7857 3.98949 10.5774 4.83999C11.3712 5.69267 11.8273 6.86208 11.8273 8.09375C11.8273 9.01111 11.5738 9.90317 11.1051 10.6567C10.6367 11.4096 9.97757 11.9863 9.2187 12.3239C8.46079 12.6612 7.63101 12.7482 6.83124 12.5773C6.03082 12.4063 5.28612 11.9822 4.69529 11.3475C4.10383 10.7122 3.69458 9.89513 3.52823 8.99678C3.36186 8.09829 3.44772 7.16758 3.77271 6.32475C4.09758 5.48224 4.64381 4.77234 5.33281 4.2778Z" stroke="currentColor" stroke-width="1.8"/>
</g>
<defs>
<clipPath id="clip0_5852_50232">
<rect width="28" height="28" fill="white"/>
</clipPath>
</defs>
</svg>
