<svg width="64" height="74" viewBox="0 0 64 74" fill="none" xmlns="http://www.w3.org/2000/svg">
  <g clip-path="url(#clip0_1092_54792)">
    <path d="M58.1996 21.3402C58.3589 21.6022 58.442 21.9035 58.4396 22.2102V50.8402C58.4407 51.1435 58.3576 51.4412 58.1996 51.7002C58.0485 51.9644 57.8314 52.1849 57.5696 52.3402V52.3402L32.7696 66.6502C32.5048 66.8018 32.2048 66.8811 31.8996 66.8802C31.5948 66.8784 31.2955 66.7993 31.0296 66.6502L6.23962 52.3402C5.96862 52.1911 5.74114 51.974 5.57961 51.7102C5.43052 51.4443 5.35138 51.145 5.34961 50.8402V22.2002C5.35004 21.8952 5.42928 21.5955 5.57961 21.3302C5.73764 21.0705 5.95752 20.8541 6.21961 20.7002L31.0296 6.38019C31.2927 6.22326 31.5933 6.14034 31.8996 6.14019C32.2063 6.13778 32.5076 6.22089 32.7696 6.38019L57.5796 20.7102C57.8365 20.864 58.0499 21.0809 58.1996 21.3402V21.3402Z" fill="black"/>
    <path d="M63.5803 18.26C63.3352 17.8487 62.9915 17.505 62.5803 17.26L33.4103 0.379997C32.9806 0.134716 32.4951 0.00387544 32.0003 0C31.5023 0.00394533 31.0136 0.134725 30.5803 0.379997L1.41029 17.22C0.99823 17.464 0.654308 17.8079 0.410285 18.22C0.161572 18.6483 0.030474 19.1347 0.0302803 19.63V53.35C0.0291842 53.8486 0.160311 54.3386 0.410285 54.77C0.654308 55.1821 0.99823 55.526 1.41029 55.77L30.5803 72.65C31.0117 72.9 31.5017 73.0311 32.0003 73.03C32.4957 73.0308 32.9824 72.8996 33.4103 72.65L62.5803 55.81C62.9915 55.565 63.3352 55.2213 63.5803 54.81C63.8303 54.3786 63.9614 53.8886 63.9603 53.39V19.71C63.9672 19.2012 63.8359 18.7 63.5803 18.26V18.26ZM62.0003 52.71C62.0027 53.0604 61.913 53.4052 61.7403 53.71C61.5636 54.0094 61.312 54.2575 61.0103 54.43L32.8903 70.71C32.5855 70.8828 32.2406 70.9724 31.8903 70.97C31.5399 70.9724 31.1951 70.8828 30.8903 70.71L2.77029 54.47C2.46956 54.2996 2.22071 54.0507 2.05028 53.75C1.87403 53.4462 1.7809 53.1013 1.78028 52.75V20.28C1.7809 19.9287 1.87403 19.5838 2.05028 19.28C2.22277 18.9782 2.47093 18.7266 2.77029 18.55L30.8903 2.32C31.193 2.14103 31.5386 2.0477 31.8903 2.05C32.2421 2.04617 32.5882 2.13961 32.8903 2.32L61.0103 18.55C61.3098 18.7298 61.5605 18.9805 61.7403 19.28C61.913 19.5848 62.0027 19.9296 62.0003 20.28V52.71Z" fill="black"/>
    <path d="M58.1996 21.3402C58.3589 21.6022 58.442 21.9035 58.4396 22.2102V50.8402C58.4407 51.1435 58.3576 51.4412 58.1996 51.7002C58.0485 51.9644 57.8314 52.1849 57.5696 52.3402V52.3402L32.7696 66.6502C32.5048 66.8018 32.2048 66.8811 31.8996 66.8802C31.5948 66.8784 31.2955 66.7993 31.0296 66.6502L6.23962 52.3402C5.96862 52.1911 5.74114 51.974 5.57961 51.7102C5.43052 51.4443 5.35138 51.145 5.34961 50.8402V22.2002C5.35004 21.8952 5.42928 21.5955 5.57961 21.3302C5.73764 21.0705 5.95752 20.8541 6.21961 20.7002L31.0296 6.38019C31.2927 6.22326 31.5933 6.14034 31.8996 6.14019C32.2063 6.13778 32.5076 6.22089 32.7696 6.38019L57.5796 20.7102C57.8365 20.864 58.0499 21.0809 58.1996 21.3402V21.3402Z" fill="black"/>
    <path d="M63.1495 18.5199C62.949 18.1644 62.655 17.8705 62.2995 17.6699L33.1595 0.839903C32.8083 0.632931 32.4072 0.525746 31.9995 0.529902C31.5919 0.525746 31.1908 0.632931 30.8396 0.839903L1.69955 17.7099C1.341 17.9099 1.04369 18.2037 0.83955 18.5599C0.629547 18.9103 0.518924 19.3114 0.519551 19.7199V53.3499C0.517871 53.7573 0.62488 54.1577 0.829548 54.5099C1.03199 54.8606 1.32126 55.1533 1.66954 55.3599L30.8295 72.1899C31.1808 72.3969 31.5819 72.5041 31.9896 72.4999C32.397 72.5026 32.7977 72.3955 33.1495 72.1899L62.2995 55.3599C62.655 55.1593 62.949 54.8654 63.1495 54.5099C63.3521 54.1573 63.4557 53.7565 63.4495 53.3499V19.7099C63.4602 19.2933 63.3564 18.8817 63.1495 18.5199V18.5199ZM61.9995 52.7099C62.002 53.0603 61.9123 53.4051 61.7395 53.7099C61.5629 54.0093 61.3113 54.2574 61.0095 54.4299L32.8895 70.7099C32.5847 70.8827 32.2399 70.9723 31.8895 70.9699C31.5392 70.9723 31.1944 70.8827 30.8895 70.7099L2.76955 54.4699C2.46882 54.2995 2.21998 54.0506 2.04955 53.7499C1.8733 53.4461 1.78017 53.1012 1.77955 52.7499V20.2799C1.78017 19.9286 1.8733 19.5837 2.04955 19.2799C2.22204 18.9781 2.47019 18.7265 2.76955 18.5499L30.8895 2.3199C31.1922 2.14093 31.5379 2.04761 31.8895 2.0499C32.2414 2.04607 32.5874 2.13951 32.8895 2.3199L61.0095 18.5499C61.3091 18.7297 61.5598 18.9804 61.7395 19.2799C61.9123 19.5847 62.002 19.9295 61.9995 20.2799V52.7099Z" fill="black"/>
  </g>
  <defs>
    <clipPath id="clip0_1092_54792">
      <rect width="64" height="73.03" fill="white"/>
    </clipPath>
  </defs>
</svg>
