<svg width="16" height="16" viewBox="0 0 16 16" fill="none" xmlns="http://www.w3.org/2000/svg">
<path fill-rule="evenodd" clip-rule="evenodd" d="M8 2.75C5.10051 2.75 2.75 5.10051 2.75 8C2.75 10.8995 5.10051 13.25 8 13.25C10.8995 13.25 13.25 10.8995 13.25 8C13.25 5.10051 10.8995 2.75 8 2.75ZM1.25 8C1.25 4.27208 4.27208 1.25 8 1.25C11.7279 1.25 14.75 4.27208 14.75 8C14.75 11.7279 11.7279 14.75 8 14.75C4.27208 14.75 1.25 11.7279 1.25 8ZM8 6.58333C8.41421 6.58333 8.75 6.91912 8.75 7.33333V10.6667C8.75 11.0809 8.41421 11.4167 8 11.4167C7.58579 11.4167 7.25 11.0809 7.25 10.6667V7.33333C7.25 6.91912 7.58579 6.58333 8 6.58333ZM8 6C8.36819 6 8.66667 5.70152 8.66667 5.33333C8.66667 4.96514 8.36819 4.66667 8 4.66667C7.63181 4.66667 7.33333 4.96514 7.33333 5.33333C7.33333 5.70152 7.63181 6 8 6Z" fill="#000"/>
</svg>
