<svg width="14" height="14" viewBox="0 0 14 14" fill="none" xmlns="http://www.w3.org/2000/svg">
<path d="M7 1.3125C5.87512 1.3125 4.7755 1.64607 3.8402 2.27102C2.90489 2.89597 2.17591 3.78423 1.74544 4.82349C1.31496 5.86274 1.20233 7.00631 1.42179 8.10958C1.64124 9.21284 2.18292 10.2263 2.97833 11.0217C3.77374 11.8171 4.78716 12.3588 5.89043 12.5782C6.99369 12.7977 8.13726 12.685 9.17651 12.2546C10.2158 11.8241 11.104 11.0951 11.729 10.1598C12.3539 9.2245 12.6875 8.12488 12.6875 7C12.6859 5.49207 12.0862 4.04636 11.0199 2.98009C9.95365 1.91382 8.50793 1.31409 7 1.3125ZM6.78125 3.9375C6.91105 3.9375 7.03793 3.97599 7.14585 4.0481C7.25377 4.12021 7.33788 4.2227 7.38755 4.34261C7.43722 4.46253 7.45021 4.59448 7.42489 4.72178C7.39957 4.84908 7.33707 4.96601 7.24529 5.05779C7.15351 5.14957 7.03658 5.21207 6.90928 5.23739C6.78198 5.26271 6.65003 5.24972 6.53012 5.20005C6.4102 5.15038 6.30771 5.06626 6.2356 4.95834C6.16349 4.85042 6.125 4.72354 6.125 4.59375C6.125 4.4197 6.19414 4.25278 6.31721 4.12971C6.44028 4.00664 6.6072 3.9375 6.78125 3.9375ZM7.4375 10.0625C7.20544 10.0625 6.98288 9.97031 6.81878 9.80622C6.65469 9.64212 6.5625 9.41956 6.5625 9.1875V7C6.44647 7 6.33519 6.95391 6.25314 6.87186C6.1711 6.78981 6.125 6.67853 6.125 6.5625C6.125 6.44647 6.1711 6.33519 6.25314 6.25314C6.33519 6.17109 6.44647 6.125 6.5625 6.125C6.79457 6.125 7.01713 6.21719 7.18122 6.38128C7.34531 6.54538 7.4375 6.76794 7.4375 7V9.1875C7.55353 9.1875 7.66481 9.23359 7.74686 9.31564C7.82891 9.39769 7.875 9.50897 7.875 9.625C7.875 9.74103 7.82891 9.85231 7.74686 9.93436C7.66481 10.0164 7.55353 10.0625 7.4375 10.0625Z" fill="#727272"/>
</svg>
