<svg width="14" height="15" viewBox="0 0 14 15" fill="none" xmlns="http://www.w3.org/2000/svg">
<path d="M13.1249 5.23844C13.1249 4.71687 13.0201 4.21141 12.815 3.73379C12.6158 3.27376 12.3312 2.8606 11.9688 2.50605C11.6064 2.1515 11.1841 1.87313 10.7139 1.67827C10.2272 1.47609 9.70903 1.375 9.17591 1.375C8.64278 1.375 8.12613 1.47756 7.63793 1.67827C7.16771 1.87313 6.74539 2.1515 6.38298 2.50605C6.02057 2.8606 5.73604 3.27376 5.53686 3.73379C5.3302 4.20995 5.22687 4.71687 5.22687 5.23844C5.22687 5.89041 5.3946 6.52919 5.71357 7.09764L0.985813 11.7185C0.876492 11.8255 0.842048 11.9881 0.909438 12.1419C0.922916 12.1742 0.945379 12.2035 0.970837 12.2284L2.0296 13.2642C2.05506 13.2891 2.08501 13.3096 2.11796 13.3243C2.2752 13.3902 2.44143 13.358 2.55075 13.2495L3.20518 12.6093L4.14714 13.5308C4.1726 13.5557 4.20255 13.5763 4.23548 13.5909C4.39272 13.6568 4.55896 13.6246 4.66827 13.5162L5.71206 12.495C5.73752 12.4701 5.75849 12.4408 5.77346 12.4086C5.84085 12.2548 5.8079 12.0921 5.69709 11.9852L4.7701 11.0783L7.27401 8.62719C7.85356 8.93926 8.50799 9.10335 9.17439 9.10335C9.70752 9.10335 10.2242 9.00079 10.7124 8.80007C11.1826 8.60522 11.6049 8.32685 11.9673 7.9723C12.3297 7.61776 12.6142 7.20461 12.8134 6.74455C13.0201 6.26547 13.1249 5.76001 13.1249 5.23844Z" fill="#000"/>
</svg>
