<svg width="14" height="15" viewBox="0 0 14 15" fill="none" xmlns="http://www.w3.org/2000/svg">
<g clip-path="url(#clip0_2329_96105)">
<path d="M7.87498 2.6875C6.89683 2.44263 7.44295 1.42724 7.43749 0.9375C5.2025 1.48846 5.6875 3.5625 5.6875 3.5625L7.0553 3.52821L7.87498 2.6875Z" fill="#000"/>
<path d="M4.72068 13.3333C4.56463 13.3253 4.41709 13.2597 4.3066 13.1492C4.19612 13.0387 4.13052 12.8912 4.1225 12.7351C4.1225 11.9505 4.1225 10.0913 4.1225 9.79224C4.13215 9.64136 4.10818 9.49022 4.0523 9.34974C3.99643 9.20925 3.91005 9.08293 3.79941 8.9799C2.63444 7.83339 1.47686 6.67211 0.322963 5.51268C0.203351 5.39613 0.11271 5.25318 0.0583075 5.09529C0.00390501 4.93739 -0.0127455 4.76894 0.00969086 4.60345C0.0321272 4.43796 0.0930263 4.28003 0.187505 4.14232C0.281985 4.00461 0.407415 3.89095 0.553741 3.81046C0.760114 3.6972 0.997666 3.65397 1.23071 3.68726C1.46375 3.72055 1.6797 3.82857 1.8461 3.99508C2.26704 4.41233 2.68429 4.83388 3.09784 5.25975C3.60925 5.78592 4.11327 6.31948 4.62467 6.8475C4.93639 7.16592 5.30897 7.41839 5.72023 7.58991C6.13149 7.76142 6.57305 7.84848 7.01864 7.84589C7.46423 7.84331 7.90475 7.75114 8.314 7.57487C8.72324 7.39859 9.09286 7.14182 9.40087 6.81981C10.3055 5.87454 11.2212 4.94404 12.1351 4.00985C12.2691 3.86225 12.4424 3.75589 12.6347 3.70324C12.8269 3.6506 13.0302 3.65385 13.2207 3.71261C13.3983 3.76259 13.5599 3.85801 13.6894 3.98946C13.8189 4.1209 13.9119 4.28383 13.9592 4.46218C14.0127 4.64784 14.0136 4.84472 13.9618 5.03086C13.9099 5.217 13.8074 5.38508 13.6657 5.51637L10.7523 8.44265C10.5381 8.65681 10.3258 8.87282 10.1098 9.08329C10.0408 9.14576 9.98535 9.22176 9.94692 9.30655C9.90849 9.39135 9.8879 9.48314 9.88643 9.57623C9.88643 10.0009 9.88643 11.9339 9.87535 12.7351C9.87634 12.814 9.86155 12.8922 9.83183 12.9652C9.80212 13.0382 9.7581 13.1046 9.70236 13.1603C9.64661 13.2161 9.58027 13.2601 9.50725 13.2898C9.43423 13.3195 9.356 13.3343 9.27717 13.3333H4.72068Z" fill="#000"/>
<path d="M9.3417 4.51691C9.34207 4.97984 9.20517 5.43249 8.94832 5.81763C8.69147 6.20277 8.3262 6.50311 7.89869 6.68069C7.47117 6.85826 7.0006 6.9051 6.54647 6.81528C6.09233 6.72546 5.67502 6.50301 5.3473 6.17606C5.01957 5.8491 4.79613 5.43232 4.70524 4.9784C4.61434 4.52448 4.66007 4.05381 4.83663 3.62587C5.0132 3.19793 5.31268 2.83195 5.69721 2.57419C6.08174 2.31643 6.53406 2.17847 6.99699 2.17774C7.30458 2.17725 7.60924 2.23738 7.89357 2.3547C8.1779 2.47201 8.43633 2.64421 8.65408 2.86145C8.87183 3.07868 9.04464 3.3367 9.16262 3.62075C9.28061 3.90481 9.34146 4.20933 9.3417 4.51691Z" fill="#000"/>
</g>
<defs>
<clipPath id="clip0_2329_96105">
<rect width="14" height="11.8125" fill="white" transform="translate(0 0.9375)"/>
</clipPath>
</defs>
</svg>
