<svg width="32" height="28" viewBox="0 0 32 28" fill="none" xmlns="http://www.w3.org/2000/svg">
<path fill-rule="evenodd" clip-rule="evenodd" d="M6 8.8C6 7.11984 6 6.27976 6.32698 5.63803C6.6146 5.07354 7.07354 4.6146 7.63803 4.32698C8.27976 4 9.11984 4 10.8 4H21.2C22.8802 4 23.7202 4 24.362 4.32698C24.9265 4.6146 25.3854 5.07354 25.673 5.63803C26 6.27976 26 7.11984 26 8.8V9.75H6V8.8ZM6 11.25H26V16.75H6V11.25ZM6 18.25V19.2C6 20.8802 6 21.7202 6.32698 22.362C6.6146 22.9265 7.07354 23.3854 7.63803 23.673C8.27976 24 9.11984 24 10.8 24H21.2C22.8802 24 23.7202 24 24.362 23.673C24.9265 23.3854 25.3854 22.9265 25.673 22.362C26 21.7202 26 20.8802 26 19.2V18.25H6Z" fill="#000"/>
</svg>
