<svg width="16" height="16" viewBox="0 0 16 16" fill="none" xmlns="http://www.w3.org/2000/svg">
<path fill-rule="evenodd" clip-rule="evenodd" d="M3.29102 6.76415C3.29102 5.11907 3.89089 3.93312 4.75215 3.15338C5.62405 2.364 6.80232 1.95703 7.99935 1.95703C9.19637 1.95703 10.3746 2.36401 11.2465 3.15339C12.1078 3.93314 12.7077 5.11909 12.7077 6.76415C12.7077 9.21253 11.018 11.3188 9.52238 12.689C8.64526 13.4925 7.35371 13.4925 6.47656 12.689C4.98079 11.3189 3.29102 9.21255 3.29102 6.76415ZM13.9577 6.76415C13.9577 4.78782 13.2242 3.25771 12.0855 2.22675C10.9574 1.20542 9.46899 0.707035 7.99935 0.707031C6.52971 0.707028 5.04131 1.2054 3.91321 2.22673C2.77447 3.25769 2.04102 4.78781 2.04102 6.76415C2.04102 9.76563 4.0797 12.1886 5.63222 13.6108C6.98719 14.8519 9.01182 14.8519 10.3667 13.6107C11.9192 12.1885 13.9577 9.76557 13.9577 6.76415ZM6.62435 6.66538C6.62435 5.90599 7.23996 5.29038 7.99935 5.29038C8.75874 5.29038 9.37435 5.90599 9.37435 6.66538C9.37435 7.42478 8.75874 8.04038 7.99935 8.04038C7.23996 8.04038 6.62435 7.42478 6.62435 6.66538ZM7.99935 4.04039C6.5496 4.04039 5.37435 5.21564 5.37435 6.66538C5.37435 8.11513 6.5496 9.29038 7.99935 9.29038C9.4491 9.29038 10.6243 8.11513 10.6243 6.66538C10.6243 5.21564 9.4491 4.04039 7.99935 4.04039Z" fill="black"/>
</svg>
