<svg width="16" height="16" viewBox="0 0 16 16" fill="none" xmlns="http://www.w3.org/2000/svg">
<path fill-rule="evenodd" clip-rule="evenodd" d="M7.99967 2.08399C7.30932 2.08399 6.74967 2.64363 6.74967 3.33398L6.74967 4.72893C7.15094 4.63414 7.56945 4.58399 7.99967 4.58399C8.4299 4.58399 8.84841 4.63414 9.24967 4.72893L9.24967 3.33399C9.24967 2.64363 8.69003 2.08399 7.99967 2.08399ZM5.24967 3.33398L5.24967 5.33299C3.65363 6.27534 2.58301 8.01297 2.58301 10.0007C2.58301 12.9922 5.00813 15.4173 7.99967 15.4173C10.9912 15.4173 13.4163 12.9922 13.4163 10.0007C13.4163 8.01297 12.3457 6.27534 10.7497 5.33299L10.7497 3.33399C10.7497 1.8152 9.51846 0.583986 7.99967 0.583985C6.48089 0.583985 5.24967 1.8152 5.24967 3.33398ZM7.99967 6.08399C5.83656 6.08398 4.08301 7.83754 4.08301 10.0007C4.08301 12.1638 5.83656 13.9173 7.99967 13.9173C10.1628 13.9173 11.9163 12.1638 11.9163 10.0007C11.9163 7.83754 10.1628 6.08399 7.99967 6.08399ZM8.74967 9.33399C8.74967 8.91977 8.41389 8.58398 7.99967 8.58398C7.58546 8.58398 7.24967 8.91977 7.24967 9.33399L7.24967 10.6673C7.24967 11.0815 7.58546 11.4173 7.99967 11.4173C8.41389 11.4173 8.74967 11.0815 8.74967 10.6673L8.74967 9.33399Z" fill="#8E8E8E"/>
</svg>
