<svg xmlns="http://www.w3.org/2000/svg" viewBox="0 0 157.02 179.72"><defs><style>.cls-1{fill:#000000;}</style></defs><g id="Layer_2" data-name="Layer 2"><g id="Layer_1-2" data-name="Layer 1"><path class="cls-1" d="M154.44,43,81.09.69a5.17,5.17,0,0,0-5.16,0L2.58,43A5.14,5.14,0,0,0,0,47.51v84.7a5.14,5.14,0,0,0,2.58,4.46L75.93,179a5.17,5.17,0,0,0,5.16,0l73.35-42.36a5.14,5.14,0,0,0,2.58-4.46V47.51A5.14,5.14,0,0,0,154.44,43Zm-9,88.09L80.78,168.47a4.54,4.54,0,0,1-4.54,0L11.57,131.13a4.54,4.54,0,0,1-2.28-3.93V52.52a4.54,4.54,0,0,1,2.28-3.93L76.24,11.25a4.5,4.5,0,0,1,4.54,0l64.67,37.34a4.54,4.54,0,0,1,2.28,3.93V127.2A4.54,4.54,0,0,1,145.45,131.13Z"/><path class="cls-1" d="M39.44,55.76v31.8H54a2.31,2.31,0,0,1,2.31,2.3,11.71,11.71,0,0,1-1.55,5.6A7.26,7.26,0,0,0,53.65,99a5.53,5.53,0,1,0,11.06,0,7.36,7.36,0,0,0-1.06-3.54,11.71,11.71,0,0,1-1.55-5.6,2.3,2.3,0,0,1,2.3-2.3H76.46V78.29c-1.7.7-3.6,2.13-6.83,2.13a10.14,10.14,0,1,1,0-20.27c3.24,0,5.14,1.43,6.83,2.13V50.54H44.66A5.22,5.22,0,0,0,39.44,55.76Z"/><path class="cls-1" d="M108.48,80.73c0,3.24-1.43,5.14-2.13,6.83h11.73V55.76a5.22,5.22,0,0,0-5.22-5.22H81.07V65.06a2.32,2.32,0,0,1-2.31,2.31,11.71,11.71,0,0,1-5.6-1.55,7.19,7.19,0,0,0-3.54-1.06,5.53,5.53,0,0,0,0,11,7.3,7.3,0,0,0,3.54-1.06,11.71,11.71,0,0,1,5.6-1.55,2.31,2.31,0,0,1,2.31,2.3V87.56h9.27c-.71-1.7-2.13-3.6-2.13-6.83a10.14,10.14,0,1,1,20.27,0Z"/><path class="cls-1" d="M51.18,92.17H39.44V124a5.22,5.22,0,0,0,5.22,5.22h31.8V114.66a2.3,2.3,0,0,1,2.3-2.3,11.71,11.71,0,0,1,5.6,1.55A7.36,7.36,0,0,0,87.9,115a5.53,5.53,0,0,0,0-11.06A7.26,7.26,0,0,0,84.36,105a11.71,11.71,0,0,1-5.6,1.54,2.3,2.3,0,0,1-2.3-2.3v-12H67.19c.7,1.7,2.13,3.59,2.13,6.83a10.14,10.14,0,1,1-20.27,0C49.05,95.76,50.48,93.86,51.18,92.17Z"/><path class="cls-1" d="M87.9,119.58c-3.24,0-5.14-1.43-6.83-2.13v11.73h31.79a5.21,5.21,0,0,0,5.22-5.22V92.17H103.56a2.31,2.31,0,0,1-2.3-2.31,11.71,11.71,0,0,1,1.55-5.6,7.29,7.29,0,0,0,1.06-3.53,5.53,5.53,0,1,0-11.06,0,7.2,7.2,0,0,0,1.07,3.53,11.71,11.71,0,0,1,1.54,5.6,2.3,2.3,0,0,1-2.3,2.31H81.07v9.27c1.7-.71,3.59-2.13,6.83-2.13a10.14,10.14,0,1,1,0,20.27Z"/></g></g></svg>