<svg width="16" height="16" viewBox="0 0 16 16" fill="none" xmlns="http://www.w3.org/2000/svg">
  <path fill-rule="evenodd" clip-rule="evenodd" d="M6.11129 2.16699H6.1335H9.86683H9.88904H9.88905C10.7103 2.16699 11.3573 2.16699 11.8779 2.20953C12.4091 2.25292 12.8527 2.34308 13.2558 2.54847C13.9144 2.88403 14.4498 3.41946 14.7854 4.07803C14.9361 4.37391 15.0248 4.6916 15.0785 5.04974C15.1342 5.13039 15.1668 5.22821 15.1668 5.33366C15.1668 5.40086 15.1536 5.46496 15.1295 5.52349C15.1668 6.03229 15.1668 6.65869 15.1668 7.44477V7.46699V8.53366V8.55588C15.1668 9.37714 15.1668 10.0241 15.1243 10.5448C15.0809 11.0759 14.9907 11.5195 14.7854 11.9226C14.4498 12.5812 13.9144 13.1166 13.2558 13.4522C12.8527 13.6576 12.4091 13.7477 11.8779 13.7911C11.3573 13.8337 10.7103 13.8337 9.889 13.8337H9.86683H6.1335H6.11133C5.29004 13.8337 4.64305 13.8337 4.12239 13.7911C3.59121 13.7477 3.14763 13.6576 2.74453 13.4522C2.08596 13.1166 1.55053 12.5812 1.21497 11.9226C1.00958 11.5195 0.919428 11.0759 0.876029 10.5448C0.83349 10.0241 0.833493 9.37714 0.833496 8.55587V8.55586V8.53366V7.46699V7.44479V7.44478C0.833493 6.65869 0.833491 6.03229 0.870793 5.52349C0.846753 5.46496 0.833496 5.40086 0.833496 5.33366C0.833496 5.22821 0.866139 5.13039 0.921871 5.04974C0.97554 4.6916 1.06421 4.37391 1.21497 4.07803C1.55053 3.41946 2.08596 2.88403 2.74453 2.54847C3.14763 2.34308 3.59121 2.25292 4.12239 2.20953C4.64304 2.16699 5.29001 2.16699 6.11128 2.16699H6.11129ZM13.8943 4.53202C13.9403 4.62215 13.9793 4.72067 14.0122 4.83366H1.98814C2.02101 4.72067 2.06005 4.62215 2.10598 4.53202C2.34566 4.06161 2.72811 3.67916 3.19852 3.43948C3.43715 3.31789 3.73448 3.24455 4.20382 3.2062C4.67899 3.16738 5.28517 3.16699 6.1335 3.16699H9.86683C10.7152 3.16699 11.3213 3.16738 11.7965 3.2062C12.2658 3.24455 12.5632 3.31789 12.8018 3.43948C13.2722 3.67916 13.6547 4.06161 13.8943 4.53202ZM1.8335 7.46699C1.8335 6.78547 1.83375 6.26024 1.85398 5.83366H14.1464C14.1666 6.26024 14.1668 6.78547 14.1668 7.46699V8.53366C14.1668 9.38199 14.1664 9.98816 14.1276 10.4633C14.0893 10.9327 14.0159 11.23 13.8943 11.4686C13.6547 11.939 13.2722 12.3215 12.8018 12.5612C12.5632 12.6828 12.2658 12.7561 11.7965 12.7944C11.3213 12.8333 10.7152 12.8337 9.86683 12.8337H6.1335C5.28517 12.8337 4.67899 12.8333 4.20382 12.7944C3.73448 12.7561 3.43715 12.6828 3.19852 12.5612C2.72811 12.3215 2.34566 11.939 2.10598 11.4686C1.98439 11.23 1.91105 10.9327 1.87271 10.4633C1.83389 9.98816 1.8335 9.38199 1.8335 8.53366V7.46699ZM4.00016 7.50032C3.72402 7.50032 3.50016 7.72418 3.50016 8.00032C3.50016 8.27647 3.72402 8.50032 4.00016 8.50032H6.66683C6.94297 8.50032 7.16683 8.27647 7.16683 8.00032C7.16683 7.72418 6.94297 7.50032 6.66683 7.50032H4.00016Z" fill="black"/>
</svg>
