<svg width="120" height="120" viewBox="0 0 120 120" fill="none" xmlns="http://www.w3.org/2000/svg">
<g clip-path="url(#clip0_1583_185579)">
<path d="M35.272 28.9547C34.8989 28.4382 34.1775 28.3219 33.6612 28.6955C31.1034 30.5447 28.7375 32.6638 26.6295 34.9941C26.2053 35.4464 26.2152 36.1558 26.6569 36.5975C26.8819 36.8225 27.1771 36.9349 27.4722 36.9349C27.7681 36.9349 28.0642 36.822 28.2899 36.5964C28.3035 36.5825 28.3169 36.5684 28.3298 36.5541C30.3329 34.3383 32.5812 32.3234 35.0131 30.5654C35.5296 30.1923 35.6454 29.4711 35.272 28.9547Z" fill="#E11919"/>
<path d="M93.326 36.6207C93.7868 36.1818 93.8053 35.453 93.3677 34.9913C91.2594 32.6587 88.8961 30.5404 86.3433 28.6954C85.8266 28.3218 85.1055 28.4384 84.7323 28.9548C84.3592 29.4713 84.4753 30.1927 84.9917 30.5658C87.4194 32.3204 89.666 34.335 91.6697 36.554C91.6829 36.5686 91.6965 36.5829 91.7106 36.5972C91.9358 36.8247 92.233 36.9392 92.531 36.9392C92.8164 36.939 93.1026 36.8335 93.326 36.6207Z" fill="#E11919"/>
<path d="M101.689 55.9493C101.787 56.4872 102.258 56.894 102.824 56.894C103.462 56.894 103.978 56.3762 103.978 55.739C103.978 55.656 103.969 55.5733 103.952 55.4921C103.363 52.8053 102.524 50.1655 101.457 47.646C101.282 47.2299 100.871 46.9375 100.392 46.9375C99.7547 46.9375 99.2383 47.4542 99.2383 48.0913C99.2383 48.2559 99.2736 48.4174 99.3401 48.5651C100.343 50.9367 101.133 53.4205 101.689 55.9493Z" fill="#E11919"/>
<path d="M103.833 66.6894C103.196 66.6534 102.65 67.1359 102.612 67.7719C102.463 70.2502 102.101 72.7148 101.534 75.0972C101.386 75.7173 101.769 76.3392 102.389 76.4867C102.479 76.5082 102.569 76.5183 102.657 76.5183C103.179 76.5183 103.652 76.1615 103.778 75.6312C104.376 73.1191 104.759 70.5213 104.916 67.9102C104.954 67.2744 104.469 66.7277 103.833 66.6894Z" fill="#E11919"/>
<path d="M98.337 85.3125C98.0307 85.3125 97.7522 85.432 97.5454 85.6266C97.4594 85.7073 97.3851 85.802 97.326 85.9081C96.0148 88.2684 94.4688 90.5145 92.7316 92.5845C92.337 93.0283 92.3432 93.707 92.7602 94.145C92.9866 94.3827 93.291 94.5024 93.5956 94.5024C93.882 94.5024 94.1691 94.3967 94.3927 94.1837C94.4236 94.1542 94.4529 94.123 94.4804 94.0905C96.3106 91.9127 97.9394 89.5501 99.3221 87.0668C99.4292 86.8917 99.4906 86.6863 99.4906 86.4663C99.4908 85.829 98.9744 85.3125 98.337 85.3125Z" fill="#E11919"/>
<path d="M83.0702 101.106C76.1935 105.53 68.2167 107.868 60.0013 107.868C51.7862 107.868 43.8092 105.53 36.9325 101.106C36.3969 100.761 35.6829 100.916 35.3379 101.452C34.9931 101.988 35.1482 102.702 35.684 103.046C42.9336 107.71 51.3426 110.176 60.0013 110.176C68.66 110.176 77.069 107.71 84.3186 103.046C84.8547 102.702 85.0096 101.988 84.6648 101.452C84.32 100.916 83.6058 100.761 83.0702 101.106Z" fill="#E11919"/>
<path d="M22.6741 85.9074C22.6195 85.8091 22.5516 85.721 22.4736 85.6443C22.2655 85.439 21.9793 85.3125 21.6636 85.3125C21.0265 85.3125 20.5098 85.829 20.5098 86.4663C20.5098 86.6856 20.5714 86.891 20.678 87.0659C22.0617 89.5469 23.6907 91.9104 25.5195 94.0917C25.5412 94.1173 25.5662 94.1445 25.5902 94.1683C25.8152 94.3935 26.1096 94.5059 26.4043 94.5059C26.6997 94.5057 26.9953 94.3928 27.2208 94.1671C27.65 93.7379 27.6691 93.0534 27.2805 92.6C25.5391 90.5223 23.9895 88.2707 22.6741 85.9074Z" fill="#E11919"/>
<path d="M17.3886 67.7896C17.3623 67.176 16.856 66.6875 16.2359 66.6875C15.5985 66.6875 15.082 67.2051 15.082 67.8425C15.082 67.8656 15.0827 67.8887 15.0841 67.9117C15.2403 70.5146 15.6236 73.1123 16.2234 75.6328C16.3496 76.1631 16.823 76.5199 17.345 76.5199C17.4333 76.5199 17.5231 76.5097 17.6129 76.4883C18.233 76.3406 18.616 75.7186 18.4683 75.0988C17.9004 72.7129 17.5374 70.2543 17.3886 67.7896Z" fill="#E11919"/>
<path d="M17.1753 56.8917C17.7356 56.8917 18.2023 56.4918 18.3073 55.9622C18.8655 53.43 19.6575 50.94 20.6613 48.5612C20.7266 48.4144 20.7615 48.2543 20.7615 48.0913C20.7615 47.4542 20.245 46.9375 19.6076 46.9375C19.1272 46.9375 18.7153 47.231 18.5417 47.649C17.4772 50.1687 16.6383 52.8064 16.0485 55.4891C16.0305 55.5706 16.0215 55.6557 16.0215 55.739C16.0215 56.3762 16.5382 56.8917 17.1753 56.8917Z" fill="#E11919"/>
<g filter="url(#filter0_d_1583_185579)">
<path d="M109.446 58.7411C112.742 61.4304 114.954 65.2324 115.802 69.2059C112.033 70.4624 107.58 69.8698 103.599 67.1656C100.84 65.2977 98.7195 62.6926 97.3601 59.7876C96.7532 58.496 96.2981 57.143 96.0041 55.7702C99.7685 54.5111 104.228 55.1134 108.203 57.8105C108.632 58.1023 109.048 58.4123 109.446 58.7411Z" fill="#B8B8B8"/>
</g>
<path d="M94.5983 78.7051C94.1088 76.9385 93.8792 75.1151 93.9197 73.3188C97.877 72.9641 102.073 74.5726 105.325 78.1162C108.578 81.6641 110.193 86.3991 110.092 90.9524C106.136 91.3115 101.941 89.7052 98.6887 86.1617C96.7165 84.0107 95.3478 81.4229 94.5983 78.7051Z" fill="#CECECE"/>
<path d="M110.194 37.4928C111.15 37.4928 111.924 36.7179 111.924 35.762C111.924 34.8061 111.15 34.0312 110.194 34.0312C109.238 34.0312 108.463 34.8061 108.463 35.762C108.463 36.7179 109.238 37.4928 110.194 37.4928Z" fill="#F29C9C"/>
<path d="M109.039 96.3365C109.995 96.3365 110.77 95.5616 110.77 94.6058C110.77 93.6499 109.995 92.875 109.039 92.875C108.083 92.875 107.309 93.6499 107.309 94.6058C107.309 95.5616 108.083 96.3365 109.039 96.3365Z" fill="#F29C9C"/>
<path d="M104.423 24.2212C108.247 24.2212 111.346 21.1216 111.346 17.2981C111.346 13.4746 108.247 10.375 104.423 10.375C100.6 10.375 97.5 13.4746 97.5 17.2981C97.5 21.1216 100.6 24.2212 104.423 24.2212Z" fill="#F29C9C"/>
<path d="M103.054 39.6033C105.12 41.6114 106.691 44.0742 107.637 46.7079C104.069 48.4556 99.5709 48.4606 95.2669 46.3147C92.4836 44.9259 90.1622 42.8307 88.4547 40.3647C87.5183 39.0132 86.7664 37.5515 86.2211 36.0346C89.7877 34.2858 94.2804 34.2806 98.5844 36.4264C100.249 37.2576 101.749 38.3401 103.054 39.6033Z" fill="#CECECE"/>
<g filter="url(#filter1_d_1583_185579)">
<path d="M90.264 92.7428C93.0485 92.7297 95.8009 93.345 98.2539 94.4902C96.9883 98.2526 93.8267 101.446 89.2737 102.999C87.3167 103.664 85.28 103.964 83.2658 103.936C80.5925 103.902 77.9567 103.29 75.5995 102.191C76.8718 98.4265 80.029 95.2349 84.5865 93.6803C86.4362 93.0521 88.3567 92.7498 90.264 92.7428Z" fill="#B8B8B8"/>
</g>
<path d="M94.0394 110.188C94.9952 110.188 95.7701 109.413 95.7701 108.457C95.7701 107.501 94.9952 106.727 94.0394 106.727C93.0835 106.727 92.3086 107.501 92.3086 108.457C92.3086 109.413 93.0835 110.188 94.0394 110.188Z" fill="#F29C9C"/>
<path d="M88.2698 14.4147C89.2257 14.4147 90.0006 13.6398 90.0006 12.6839C90.0006 11.728 89.2257 10.9531 88.2698 10.9531C87.314 10.9531 86.5391 11.728 86.5391 12.6839C86.5391 13.6398 87.314 14.4147 88.2698 14.4147Z" fill="#F29C9C"/>
<g filter="url(#filter2_d_1583_185579)">
<path d="M76.7943 23.0314C81.2788 21.295 86.2743 21.5142 90.4825 23.2674C89.3757 27.0785 86.3507 30.4084 81.861 32.1449C77.3785 33.8823 72.3811 33.6619 68.1738 31.9069C69.2797 28.0976 72.3066 24.769 76.7943 23.0314Z" fill="#B8B8B8"/>
</g>
<g filter="url(#filter3_d_1583_185579)">
<path d="M51.6823 32.5107C47.337 33.8982 42.3419 33.6964 38.0215 31.5838C33.6947 29.4737 30.9626 25.9072 30.1806 22.012C34.5233 20.6181 39.5211 20.8265 43.8414 22.9389C48.1682 25.0491 50.9002 28.6155 51.6823 32.5107Z" fill="#B8B8B8"/>
</g>
<g filter="url(#filter4_d_1583_185579)">
<path d="M27.6944 92.2755C29.6039 92.2237 31.5348 92.4689 33.4053 93.0418C38.0025 94.458 41.2585 97.5547 42.6364 101.277C40.3133 102.447 37.6995 103.138 35.0281 103.252C33.0157 103.341 30.971 103.102 28.9951 102.496C24.3976 101.08 21.1417 97.9828 19.7615 94.2596C22.178 93.0436 24.9108 92.346 27.6944 92.2755Z" fill="#B8B8B8"/>
</g>
<path d="M31.7308 12.11C32.6866 12.11 33.4615 11.3351 33.4615 10.3792C33.4615 9.42333 32.6866 8.64844 31.7308 8.64844C30.7749 8.64844 30 9.42333 30 10.3792C30 11.3351 30.7749 12.11 31.7308 12.11Z" fill="#F29C9C"/>
<path d="M29.4241 110.188C30.38 110.188 31.1549 109.413 31.1549 108.457C31.1549 107.501 30.38 106.727 29.4241 106.727C28.4683 106.727 27.6934 107.501 27.6934 108.457C27.6934 109.413 28.4683 110.188 29.4241 110.188Z" fill="#F29C9C"/>
<path d="M29.9964 41.0066C28.1641 43.38 25.7388 45.3539 22.8861 46.5947C18.4782 48.5181 13.9863 48.2833 10.5148 46.3621C11.5913 43.7793 13.2884 41.3989 15.4548 39.5007C16.8214 38.3035 18.375 37.2988 20.0798 36.5541C24.4877 34.6308 28.9754 34.8676 32.4471 36.7941C31.8281 38.2823 31.0006 39.7047 29.9964 41.0066Z" fill="#CECECE"/>
<path d="M25.131 78.4663C24.4453 81.2009 23.138 83.8177 21.2179 86.0098C18.0495 89.6283 13.8927 91.3319 9.92814 91.07C9.74896 87.0967 10.8691 82.9601 13.2623 79.5665C13.6111 79.0685 13.9883 78.5883 14.3941 78.1259C17.5624 74.5071 21.7192 72.8035 25.6837 73.0656C25.7659 74.8604 25.5792 76.6888 25.131 78.4663Z" fill="#CECECE"/>
<g filter="url(#filter5_d_1583_185579)">
<path d="M11.8522 58.3176C12.2717 58.0142 12.706 57.7302 13.1527 57.466C17.2875 55.0133 21.7751 54.6956 25.4543 56.185C25.0758 57.5369 24.5378 58.8591 23.8521 60.1106C22.3132 62.9233 20.0349 65.3898 17.1684 67.0857C13.0273 69.5335 8.54627 69.8563 4.86251 68.3664C5.95492 64.4485 8.39831 60.7931 11.8522 58.3176Z" fill="#B8B8B8"/>
</g>
<path d="M15.0002 102.109C17.5478 102.109 19.6155 104.175 19.6155 106.725C19.6155 109.275 17.5478 111.34 15.0002 111.34C12.4502 111.34 10.3848 109.275 10.3848 106.725C10.3848 104.175 12.4502 102.109 15.0002 102.109Z" fill="#F29C9C"/>
<path d="M12.1155 30.5709C13.0714 30.5709 13.8463 29.796 13.8463 28.8401C13.8463 27.8843 13.0714 27.1094 12.1155 27.1094C11.1597 27.1094 10.3848 27.8843 10.3848 28.8401C10.3848 29.796 11.1597 30.5709 12.1155 30.5709Z" fill="#F29C9C"/>
<path d="M37.8462 50H82.1538C83.1692 50 84 50.8 84 51.7778V81.1111C84 81.6 83.5846 82 83.0769 82H37.8462C36.8308 82 36 81.2 36 80.2222V51.7778C36 50.8 36.8308 50 37.8462 50Z" fill="#A2A2A2"/>
<path d="M36 58.6953H84V64.2338H36V58.6953Z" fill="#F29C9C"/>
<path d="M79.3839 60.5373C83.9721 60.5373 87.6916 56.8178 87.6916 52.2296C87.6916 47.6414 83.9721 43.9219 79.3839 43.9219C74.7957 43.9219 71.0762 47.6414 71.0762 52.2296C71.0762 56.8178 74.7957 60.5373 79.3839 60.5373Z" fill="#E11919"/>
<path d="M79.384 53.9046C78.8763 53.9046 78.4609 53.4892 78.4609 52.9815V47.72C78.4609 47.2123 78.8763 46.7969 79.384 46.7969C79.8917 46.7969 80.3071 47.2123 80.3071 47.72V52.9815C80.3071 53.4892 79.8917 53.9046 79.384 53.9046Z" fill="white"/>
<path d="M79.384 56.8462C79.8938 56.8462 80.3071 56.4329 80.3071 55.9231C80.3071 55.4133 79.8938 55 79.384 55C78.8742 55 78.4609 55.4133 78.4609 55.9231C78.4609 56.4329 78.8742 56.8462 79.384 56.8462Z" fill="white"/>
<path d="M56.308 70.6977H39.6926C39.1849 70.6977 38.7695 70.2823 38.7695 69.7746C38.7695 69.2669 39.1849 68.8516 39.6926 68.8516H56.308C56.8157 68.8516 57.2311 69.2669 57.2311 69.7746C57.2311 70.2823 56.8157 70.6977 56.308 70.6977Z" fill="white"/>
<path d="M48.9234 76.2368H39.6926C39.1849 76.2368 38.7695 75.8214 38.7695 75.3137C38.7695 74.806 39.1849 74.3906 39.6926 74.3906H48.9234C49.4311 74.3906 49.8465 74.806 49.8465 75.3137C49.8465 75.8214 49.4311 76.2368 48.9234 76.2368Z" fill="white"/>
</g>
<defs>
<filter id="filter0_d_1583_185579" x="86.4039" y="45.5406" width="38.9988" height="33.8953" filterUnits="userSpaceOnUse" color-interpolation-filters="sRGB">
<feFlood flood-opacity="0" result="BackgroundImageFix"/>
<feColorMatrix in="SourceAlpha" type="matrix" values="0 0 0 0 0 0 0 0 0 0 0 0 0 0 0 0 0 0 127 0" result="hardAlpha"/>
<feOffset/>
<feGaussianBlur stdDeviation="4.8"/>
<feComposite in2="hardAlpha" operator="out"/>
<feColorMatrix type="matrix" values="0 0 0 0 0 0 0 0 0 0 0 0 0 0 0 0 0 0 0.2 0"/>
<feBlend mode="normal" in2="BackgroundImageFix" result="effect1_dropShadow_1583_185579"/>
<feBlend mode="normal" in="SourceGraphic" in2="effect1_dropShadow_1583_185579" result="shape"/>
</filter>
<filter id="filter1_d_1583_185579" x="65.9996" y="83.1422" width="41.8543" height="30.3953" filterUnits="userSpaceOnUse" color-interpolation-filters="sRGB">
<feFlood flood-opacity="0" result="BackgroundImageFix"/>
<feColorMatrix in="SourceAlpha" type="matrix" values="0 0 0 0 0 0 0 0 0 0 0 0 0 0 0 0 0 0 127 0" result="hardAlpha"/>
<feOffset/>
<feGaussianBlur stdDeviation="4.8"/>
<feComposite in2="hardAlpha" operator="out"/>
<feColorMatrix type="matrix" values="0 0 0 0 0 0 0 0 0 0 0 0 0 0 0 0 0 0 0.2 0"/>
<feBlend mode="normal" in2="BackgroundImageFix" result="effect1_dropShadow_1583_185579"/>
<feBlend mode="normal" in="SourceGraphic" in2="effect1_dropShadow_1583_185579" result="shape"/>
</filter>
<filter id="filter2_d_1583_185579" x="58.5738" y="12.2359" width="41.5086" height="30.7078" filterUnits="userSpaceOnUse" color-interpolation-filters="sRGB">
<feFlood flood-opacity="0" result="BackgroundImageFix"/>
<feColorMatrix in="SourceAlpha" type="matrix" values="0 0 0 0 0 0 0 0 0 0 0 0 0 0 0 0 0 0 127 0" result="hardAlpha"/>
<feOffset/>
<feGaussianBlur stdDeviation="4.8"/>
<feComposite in2="hardAlpha" operator="out"/>
<feColorMatrix type="matrix" values="0 0 0 0 0 0 0 0 0 0 0 0 0 0 0 0 0 0 0.2 0"/>
<feBlend mode="normal" in2="BackgroundImageFix" result="effect1_dropShadow_1583_185579"/>
<feBlend mode="normal" in="SourceGraphic" in2="effect1_dropShadow_1583_185579" result="shape"/>
</filter>
<filter id="filter3_d_1583_185579" x="20.5797" y="11.525" width="40.702" height="31.4656" filterUnits="userSpaceOnUse" color-interpolation-filters="sRGB">
<feFlood flood-opacity="0" result="BackgroundImageFix"/>
<feColorMatrix in="SourceAlpha" type="matrix" values="0 0 0 0 0 0 0 0 0 0 0 0 0 0 0 0 0 0 127 0" result="hardAlpha"/>
<feOffset/>
<feGaussianBlur stdDeviation="4.8"/>
<feComposite in2="hardAlpha" operator="out"/>
<feColorMatrix type="matrix" values="0 0 0 0 0 0 0 0 0 0 0 0 0 0 0 0 0 0 0.2 0"/>
<feBlend mode="normal" in2="BackgroundImageFix" result="effect1_dropShadow_1583_185579"/>
<feBlend mode="normal" in="SourceGraphic" in2="effect1_dropShadow_1583_185579" result="shape"/>
</filter>
<filter id="filter4_d_1583_185579" x="10.1617" y="82.6656" width="42.075" height="30.2078" filterUnits="userSpaceOnUse" color-interpolation-filters="sRGB">
<feFlood flood-opacity="0" result="BackgroundImageFix"/>
<feColorMatrix in="SourceAlpha" type="matrix" values="0 0 0 0 0 0 0 0 0 0 0 0 0 0 0 0 0 0 127 0" result="hardAlpha"/>
<feOffset/>
<feGaussianBlur stdDeviation="4.8"/>
<feComposite in2="hardAlpha" operator="out"/>
<feColorMatrix type="matrix" values="0 0 0 0 0 0 0 0 0 0 0 0 0 0 0 0 0 0 0.2 0"/>
<feBlend mode="normal" in2="BackgroundImageFix" result="effect1_dropShadow_1583_185579"/>
<feBlend mode="normal" in="SourceGraphic" in2="effect1_dropShadow_1583_185579" result="shape"/>
</filter>
<filter id="filter5_d_1583_185579" x="-4.73672" y="45.6891" width="39.7918" height="33.1766" filterUnits="userSpaceOnUse" color-interpolation-filters="sRGB">
<feFlood flood-opacity="0" result="BackgroundImageFix"/>
<feColorMatrix in="SourceAlpha" type="matrix" values="0 0 0 0 0 0 0 0 0 0 0 0 0 0 0 0 0 0 127 0" result="hardAlpha"/>
<feOffset/>
<feGaussianBlur stdDeviation="4.8"/>
<feComposite in2="hardAlpha" operator="out"/>
<feColorMatrix type="matrix" values="0 0 0 0 0 0 0 0 0 0 0 0 0 0 0 0 0 0 0.2 0"/>
<feBlend mode="normal" in2="BackgroundImageFix" result="effect1_dropShadow_1583_185579"/>
<feBlend mode="normal" in="SourceGraphic" in2="effect1_dropShadow_1583_185579" result="shape"/>
</filter>
<clipPath id="clip0_1583_185579">
<rect width="120" height="120" fill="white"/>
</clipPath>
</defs>
</svg>
