<svg width="18" height="18" viewBox="0 0 18 18" fill="none" xmlns="http://www.w3.org/2000/svg">
<g id="Line Icon">
<path id="Union" fill-rule="evenodd" clip-rule="evenodd" d="M3.75 6.14844C3.75 4.9058 4.75736 3.89844 6 3.89844C7.24264 3.89844 8.25 4.9058 8.25 6.14844C8.25 7.39108 7.24264 8.39844 6 8.39844C4.75736 8.39844 3.75 7.39108 3.75 6.14844ZM6 2.39844C3.92893 2.39844 2.25 4.07737 2.25 6.14844C2.25 8.21951 3.92893 9.89844 6 9.89844C8.07107 9.89844 9.75 8.21951 9.75 6.14844C9.75 4.07737 8.07107 2.39844 6 2.39844ZM10.5 2.39844C10.0858 2.39844 9.75 2.73422 9.75 3.14844C9.75 3.56265 10.0858 3.89844 10.5 3.89844C11.7426 3.89844 12.75 4.9058 12.75 6.14844C12.75 7.39108 11.7426 8.39844 10.5 8.39844C10.0858 8.39844 9.75 8.73422 9.75 9.14844C9.75 9.56265 10.0858 9.89844 10.5 9.89844C12.5711 9.89844 14.25 8.21951 14.25 6.14844C14.25 4.07737 12.5711 2.39844 10.5 2.39844ZM4.5 12.8984C3.25736 12.8984 2.25 13.9058 2.25 15.1484C2.25 15.5627 2.58579 15.8984 3 15.8984H9C9.41421 15.8984 9.75 15.5627 9.75 15.1484C9.75 13.9058 8.74264 12.8984 7.5 12.8984H4.5ZM11.25 15.1484C11.25 16.3911 10.2426 17.3984 9 17.3984H3C1.75736 17.3984 0.75 16.3911 0.75 15.1484C0.75 13.0774 2.42893 11.3984 4.5 11.3984H7.5C9.57107 11.3984 11.25 13.0774 11.25 15.1484ZM12 11.3984C11.5858 11.3984 11.25 11.7342 11.25 12.1484C11.25 12.5627 11.5858 12.8984 12 12.8984H13.5C14.7426 12.8984 15.75 13.9058 15.75 15.1484C15.75 15.5627 15.4142 15.8984 15 15.8984H12C11.5858 15.8984 11.25 16.2342 11.25 16.6484C11.25 17.0627 11.5858 17.3984 12 17.3984H15C16.2426 17.3984 17.25 16.3911 17.25 15.1484C17.25 13.0774 15.5711 11.3984 13.5 11.3984H12Z" fill="#000000"/>
</g>
</svg>
