<svg width="14" height="15" viewBox="0 0 14 15" fill="none" xmlns="http://www.w3.org/2000/svg">
<path d="M5.13363 5.69217C5.49525 5.69217 5.8432 5.50477 6.0883 5.17802C6.31689 4.87312 6.4428 4.47258 6.4428 4.05019C6.4428 3.62788 6.31689 3.22733 6.0883 2.92244C5.8432 2.59561 5.49525 2.4082 5.13363 2.4082C4.77209 2.4082 4.42414 2.59561 4.17904 2.92244C3.95045 3.22733 3.82446 3.62788 3.82446 4.05019C3.82446 4.47258 3.95045 4.87312 4.17904 5.17802C4.42414 5.50477 4.77209 5.69217 5.13363 5.69217Z" fill="#000"/>
<path d="M8.01767 5.69217C8.37929 5.69217 8.72723 5.50477 8.97233 5.17802C9.20093 4.87312 9.32692 4.47258 9.32692 4.05019C9.32692 3.62788 9.20093 3.22733 8.97233 2.92244C8.72723 2.59561 8.37929 2.4082 8.01767 2.4082C7.65612 2.4082 7.30818 2.59561 7.06308 2.92244C6.83449 3.22733 6.7085 3.62788 6.7085 4.05019C6.7085 4.47258 6.83449 4.87312 7.06308 5.17802C7.30818 5.50477 7.65612 5.69217 8.01767 5.69217Z" fill="#000"/>
<path d="M11.5729 4.29887C11.3588 4.01339 11.0537 3.84961 10.736 3.84961C10.4182 3.84961 10.1132 4.01339 9.89913 4.29887C9.70185 4.56185 9.59326 4.90664 9.59326 5.2698C9.59326 5.63288 9.70185 5.97767 9.89913 6.24065C10.1132 6.52613 10.4182 6.68991 10.736 6.68991C11.0538 6.68991 11.3588 6.52613 11.5729 6.24065C11.7702 5.97767 11.8788 5.63288 11.8788 5.2698C11.8788 4.90664 11.7702 4.56185 11.5729 4.29887Z" fill="#000"/>
<path d="M3.25244 6.24065C3.44964 5.97767 3.55823 5.63288 3.55823 5.2698C3.55823 4.90664 3.44964 4.56185 3.25244 4.29887C3.03833 4.01339 2.73327 3.84961 2.41551 3.84961C2.09774 3.84961 1.79268 4.01339 1.57857 4.29887C1.3813 4.56185 1.27271 4.90664 1.27271 5.2698C1.27271 5.63288 1.3813 5.97767 1.57857 6.24065C1.79268 6.52613 2.09774 6.68991 2.41551 6.68991C2.73327 6.68991 3.03833 6.52613 3.25244 6.24065Z" fill="#000"/>
<path d="M6.57592 6.57227C5.37332 6.57227 4.24273 7.04054 3.39237 7.8909C2.54208 8.74127 2.07373 9.87185 2.07373 11.0745C2.07373 11.4526 2.18305 11.8195 2.38988 12.1356C2.7502 12.6864 3.35749 13.0152 4.01446 13.0152C4.55443 13.0152 4.97593 12.8903 5.38351 12.7695C5.76544 12.6564 6.12618 12.5495 6.57592 12.5495C7.02574 12.5495 7.38647 12.6564 7.7684 12.7695C8.17591 12.8903 8.59741 13.0152 9.13729 13.0152C9.79434 13.0152 10.4018 12.6863 10.7622 12.1354C10.9689 11.8195 11.0781 11.4527 11.0781 11.0745C11.0781 9.87185 10.6098 8.74127 9.75947 7.8909C8.9091 7.04054 7.77852 6.57227 6.57592 6.57227Z" fill="#000"/>
</svg>
