<svg width="16" height="16" viewBox="0 0 16 16" fill="none" xmlns="http://www.w3.org/2000/svg">
<path fill-rule="evenodd" clip-rule="evenodd" d="M2.04102 2.66797C2.04102 2.32279 2.32084 2.04297 2.66602 2.04297H5.33268C5.63061 2.04297 5.88712 2.25326 5.94554 2.5454L6.61221 5.87873C6.65319 6.08364 6.58906 6.29548 6.44129 6.44324L4.6008 8.28374C4.97478 8.94917 5.42381 9.54188 5.94129 10.0594C6.45877 10.5768 7.05148 11.0259 7.71691 11.3999L9.55741 9.55936C9.70517 9.4116 9.91701 9.34746 10.1219 9.38844L13.4553 10.0551C13.7474 10.1135 13.9577 10.37 13.9577 10.668V10.6732V10.6784V10.6836V10.6888V10.694V10.6992V10.7044V10.7096V10.7148V10.7201V10.7253V10.7305V10.7357V10.7409V10.7461V10.7513V10.7565V10.7617V10.7669V10.7721V10.7773V10.7826V10.7878V10.793V10.7982V10.8034V10.8086V10.8138V10.819V10.8242V10.8294V10.8346V10.8398V10.8451V10.8503V10.8555V10.8607V10.8659V10.8711V10.8763V10.8815V10.8867V10.8919V10.8971V10.9023V10.9076V10.9128V10.918V10.9232V10.9284V10.9336V10.9388V10.944V10.9492V10.9544V10.9596V10.9648V10.9701V10.9753V10.9805V10.9857V10.9909V10.9961V11.0013V11.0065V11.0117V11.0169V11.0221V11.0273V11.0326V11.0378V11.043V11.0482V11.0534V11.0586V11.0638V11.069V11.0742V11.0794V11.0846V11.0898V11.0951V11.1003V11.1055V11.1107V11.1159V11.1211V11.1263V11.1315V11.1367V11.1419V11.1471V11.1523V11.1576V11.1628V11.168V11.1732V11.1784V11.1836V11.1888V11.194V11.1992V11.2044V11.2096V11.2148V11.2201V11.2253V11.2305V11.2357V11.2409V11.2461V11.2513V11.2565V11.2617V11.2669V11.2721V11.2773V11.2826V11.2878V11.293V11.2982V11.3034V11.3086V11.3138V11.319V11.3242V11.3294V11.3346V11.3398V11.3451V11.3503V11.3555V11.3607V11.3659V11.3711V11.3763V11.3815V11.3867V11.3919V11.3971V11.4023V11.4076V11.4128V11.418V11.4232V11.4284V11.4336V11.4388V11.444V11.4492V11.4544V11.4596V11.4648V11.4701V11.4753V11.4805V11.4857V11.4909V11.4961V11.5013V11.5065V11.5117V11.5169V11.5221V11.5273V11.5326V11.5378V11.543V11.5482V11.5534V11.5586V11.5638V11.569V11.5742V11.5794V11.5846V11.5898V11.5951V11.6003V11.6055V11.6107V11.6159V11.6211V11.6263V11.6315V11.6367V11.6419V11.6471V11.6523V11.6576V11.6628V11.668V11.6732V11.6784V11.6836V11.6888V11.694V11.6992V11.7044V11.7096V11.7148V11.7201V11.7253V11.7305V11.7357V11.7409V11.7461V11.7513V11.7565V11.7617V11.7669V11.7721V11.7773V11.7826V11.7878V11.793V11.7982V11.8034V11.8086V11.8138V11.819V11.8242V11.8294V11.8346V11.8398V11.8451V11.8503V11.8555V11.8607V11.8659V11.8711V11.8763V11.8815V11.8867V11.8919V11.8971V11.9023V11.9076V11.9128V11.918V11.9232V11.9284V11.9336V11.9388V11.944V11.9492V11.9544V11.9596V11.9648V11.9701V11.9753V11.9805V11.9857V11.9909V11.9961V12.0013V12.0065V12.0117V12.0169V12.0221V12.0273V12.0326V12.0378V12.043V12.0482V12.0534V12.0586V12.0638V12.069V12.0742V12.0794V12.0846V12.0898V12.0951V12.1003V12.1055V12.1107V12.1159V12.1211V12.1263V12.1315V12.1367V12.1419V12.1471V12.1523V12.1576V12.1628V12.168V12.1732V12.1784V12.1836V12.1888V12.194V12.1992V12.2044V12.2096V12.2148V12.2201V12.2253V12.2305V12.2357V12.2409V12.2461V12.2513V12.2565V12.2617V12.2669V12.2721V12.2773V12.2826V12.2878V12.293V12.2982V12.3034V12.3086V12.3138V12.319V12.3242V12.3294V12.3346V12.3398V12.3451V12.3503V12.3555V12.3607V12.3659V12.3711V12.3763V12.3815V12.3867V12.3919V12.3971V12.4023V12.4076V12.4128V12.418V12.4232V12.4284V12.4336V12.4388V12.444V12.4492V12.4544V12.4596V12.4648V12.4701V12.4753V12.4805V12.4857V12.4909V12.4961V12.5013V12.5065V12.5117V12.5169V12.5221V12.5273V12.5326V12.5378V12.543V12.5482V12.5534V12.5586V12.5638V12.569V12.5742V12.5794V12.5846V12.5898V12.5951V12.6003V12.6055V12.6107V12.6159V12.6211V12.6263V12.6315V12.6367V12.6419V12.6471V12.6523V12.6576V12.6628V12.668V12.6732V12.6784V12.6836V12.6888V12.694V12.6992V12.7044V12.7096V12.7148V12.7201V12.7253V12.7305V12.7357V12.7409V12.7461V12.7513V12.7565V12.7617V12.7669V12.7721V12.7773V12.7826V12.7878V12.793V12.7982V12.8034V12.8086V12.8138V12.819V12.8242V12.8294V12.8346V12.8398V12.8451V12.8503V12.8555V12.8607V12.8659V12.8711V12.8763V12.8815V12.8867V12.8919V12.8971V12.9023V12.9076V12.9128V12.918V12.9232V12.9284V12.9336V12.9388V12.944V12.9492V12.9544V12.9596V12.9648V12.9701V12.9753V12.9805V12.9857V12.9909V12.9961V13.0013V13.0065V13.0117V13.0169V13.0221V13.0273V13.0326V13.0378V13.043V13.0482V13.0534V13.0586V13.0638V13.069V13.0742V13.0794V13.0846V13.0898V13.0951V13.1003V13.1055V13.1107V13.1159V13.1211V13.1263V13.1315V13.1367V13.1419V13.1471V13.1523V13.1576V13.1628V13.168V13.1732V13.1784V13.1836V13.1888V13.194V13.1992V13.2044V13.2096V13.2148V13.2201V13.2253V13.2305V13.2357V13.2409V13.2461V13.2513V13.2565V13.2617V13.2669V13.2721V13.2773V13.2826V13.2878V13.293V13.2982V13.3034V13.3086V13.3138V13.319V13.3242V13.3294V13.3346C13.9577 13.6798 13.6779 13.9596 13.3327 13.9596C9.87403 13.9596 7.03375 12.9196 5.05741 10.9432C3.08107 8.9669 2.04102 6.12662 2.04102 2.66797ZM8.9211 11.9634C10.0293 12.3884 11.2942 12.6402 12.7077 12.6972V12.694V12.6888V12.6836V12.6784V12.6732V12.668V12.6628V12.6576V12.6523V12.6471V12.6419V12.6367V12.6315V12.6263V12.6211V12.6159V12.6107V12.6055V12.6003V12.5951V12.5898V12.5846V12.5794V12.5742V12.569V12.5638V12.5586V12.5534V12.5482V12.543V12.5378V12.5326V12.5273V12.5221V12.5169V12.5117V12.5065V12.5013V12.4961V12.4909V12.4857V12.4805V12.4753V12.4701V12.4648V12.4596V12.4544V12.4492V12.444V12.4388V12.4336V12.4284V12.4232V12.418V12.4128V12.4076V12.4023V12.3971V12.3919V12.3867V12.3815V12.3763V12.3711V12.3659V12.3607V12.3555V12.3503V12.3451V12.3398V12.3346V12.3294V12.3242V12.319V12.3138V12.3086V12.3034V12.2982V12.293V12.2878V12.2826V12.2773V12.2721V12.2669V12.2617V12.2565V12.2513V12.2461V12.2409V12.2357V12.2305V12.2253V12.2201V12.2148V12.2096V12.2044V12.1992V12.194V12.1888V12.1836V12.1784V12.1732V12.168V12.1628V12.1576V12.1523V12.1471V12.1419V12.1367V12.1315V12.1263V12.1211V12.1159V12.1107V12.1055V12.1003V12.0951V12.0898V12.0846V12.0794V12.0742V12.069V12.0638V12.0586V12.0534V12.0482V12.043V12.0378V12.0326V12.0273V12.0221V12.0169V12.0117V12.0065V12.0013V11.9961V11.9909V11.9857V11.9805V11.9753V11.9701V11.9648V11.9596V11.9544V11.9492V11.944V11.9388V11.9336V11.9284V11.9232V11.918V11.9128V11.9076V11.9023V11.8971V11.8919V11.8867V11.8815V11.8763V11.8711V11.8659V11.8607V11.8555V11.8503V11.8451V11.8398V11.8346V11.8294V11.8242V11.819V11.8138V11.8086V11.8034V11.7982V11.793V11.7878V11.7826V11.7773V11.7721V11.7669V11.7617V11.7565V11.7513V11.7461V11.7409V11.7357V11.7305V11.7253V11.7201V11.7148V11.7096V11.7044V11.6992V11.694V11.6888V11.6836V11.6784V11.6732V11.668V11.6628V11.6576V11.6523V11.6471V11.6419V11.6367V11.6315V11.6263V11.6211V11.6159V11.6107V11.6055V11.6003V11.5951V11.5898V11.5846V11.5794V11.5742V11.569V11.5638V11.5586V11.5534V11.5482V11.543V11.5378V11.5326V11.5273V11.5221V11.5169V11.5117V11.5065V11.5013V11.4961V11.4909V11.4857V11.4805V11.4753V11.4701V11.4648V11.4596V11.4544V11.4492V11.444V11.4388V11.4336V11.4284V11.4232V11.418V11.4128V11.4076V11.4023V11.3971V11.3919V11.3867V11.3815V11.3763V11.3711V11.3659V11.3607V11.3555V11.3503V11.3451V11.3398V11.3346V11.3294V11.3242V11.319V11.3138V11.3086V11.3034V11.2982V11.293V11.2878V11.2826V11.2773V11.2721V11.2669V11.2617V11.2565V11.2513V11.2461V11.2409V11.2357V11.2305V11.2253V11.2201V11.2148V11.2096V11.2044V11.1992V11.194V11.1888V11.1836V11.1803L10.2048 10.6798L8.9211 11.9634ZM4.03722 7.07955L5.32089 5.79588L4.8203 3.29297H3.30346C3.36046 4.70646 3.61221 5.97139 4.03722 7.07955Z" fill="black"/>
</svg>
