<svg width="16" height="17" viewBox="0 0 16 17" fill="none" xmlns="http://www.w3.org/2000/svg">
<path fill-rule="evenodd" clip-rule="evenodd" d="M7.99421 3.85352C8.27035 3.85352 8.49421 4.07737 8.49421 4.35352V8.00593H12.1466C12.4228 8.00593 12.6466 8.22979 12.6466 8.50593C12.6466 8.78207 12.4228 9.00593 12.1466 9.00593H8.49421V12.6583C8.49421 12.9345 8.27035 13.1583 7.99421 13.1583C7.71807 13.1583 7.49421 12.9345 7.49421 12.6583V9.00593H3.8418C3.56565 9.00593 3.3418 8.78207 3.3418 8.50593C3.3418 8.22979 3.56565 8.00593 3.8418 8.00593H7.49421V4.35352C7.49421 4.07737 7.71807 3.85352 7.99421 3.85352Z" fill="#000000"/>
</svg>
