<svg width="25" height="25" viewBox="0 0 25 25" fill="none" xmlns="http://www.w3.org/2000/svg">
  <path fill-rule="evenodd" clip-rule="evenodd" d="M4.08325 12.5C4.08325 7.94365 7.7769 4.25 12.3333 4.25C16.8896 4.25 20.5833 7.94365 20.5833 12.5C20.5833 17.0563 16.8896 20.75 12.3333 20.75C7.7769 20.75 4.08325 17.0563 4.08325 12.5ZM12.3333 2.75C6.94848 2.75 2.58325 7.11522 2.58325 12.5C2.58325 17.8848 6.94848 22.25 12.3333 22.25C17.718 22.25 22.0833 17.8848 22.0833 12.5C22.0833 7.11522 17.718 2.75 12.3333 2.75ZM13.0832 8.5C13.0832 8.08579 12.7474 7.75 12.3332 7.75C11.919 7.75 11.5832 8.08579 11.5832 8.5V11.75H8.33323C7.91901 11.75 7.58323 12.0858 7.58323 12.5C7.58323 12.9142 7.91901 13.25 8.33323 13.25H11.5832V16.5C11.5832 16.9142 11.919 17.25 12.3332 17.25C12.7474 17.25 13.0832 16.9142 13.0832 16.5V13.25H16.3332C16.7474 13.25 17.0832 12.9142 17.0832 12.5C17.0832 12.0858 16.7474 11.75 16.3332 11.75H13.0832V8.5Z" fill="black"/>
</svg>
