<svg width="20" height="20" viewBox="0 0 20 20" fill="none" xmlns="http://www.w3.org/2000/svg">
<g clip-path="url(#clip0_2329_96193)">
<path d="M17.3464 2.6543H11.8103C11.2785 2.6543 10.7787 2.86137 10.4027 3.23738L2.57308 11.067C2.19706 11.443 1.98999 11.9429 1.98999 12.4746C1.98999 13.0063 2.19706 13.5062 2.57308 13.8822L8.10917 19.4181C8.49722 19.8062 9.00698 20.0002 9.51671 20.0002C10.0264 20.0002 10.5362 19.8061 10.9242 19.418L18.7539 11.5884C19.1299 11.2123 19.337 10.7125 19.337 10.1808V4.64484C19.337 3.54727 18.4441 2.6543 17.3464 2.6543ZM14.6923 9.28961C13.5947 9.28961 12.7017 8.39664 12.7017 7.29902C12.7017 6.20141 13.5947 5.30844 14.6923 5.30844C15.7899 5.30844 16.6829 6.20141 16.6829 7.29902C16.6829 8.39664 15.7899 9.28961 14.6923 9.28961Z" fill="#F8F7FA"/>
<path d="M16.0195 0H10.4834C9.9516 0 9.45176 0.20707 9.07578 0.583086L1.24617 8.41273C0.870156 8.78871 0.663086 9.28859 0.663086 9.82031C0.663086 10.2362 0.790273 10.6323 1.02543 10.9652C1.18164 10.6602 1.38555 10.3777 1.63492 10.1284L9.46449 2.29879C10.0911 1.67219 10.9242 1.32707 11.8104 1.32707H17.3465C17.5396 1.32707 17.7286 1.34457 17.9127 1.37641C17.6532 0.578516 16.9028 0 16.0195 0Z" fill="#F8F7FA"/>
</g>
<defs>
<clipPath id="clip0_2329_96193">
<rect width="20" height="20" fill="white"/>
</clipPath>
</defs>
</svg>
