<svg width="18" height="18" viewBox="0 0 18 18" fill="none" xmlns="http://www.w3.org/2000/svg">
<g id="Line Icon">
<path id="Union" fill-rule="evenodd" clip-rule="evenodd" d="M10.1387 0.737709C9.48334 0.175974 8.51628 0.175974 7.86092 0.737709L6.16758 2.18914C6.12227 2.22798 6.06456 2.24933 6.00488 2.24933L3.97415 2.24933C3.00765 2.24933 2.22415 3.03283 2.22415 3.99933L2.22415 6.00762C2.22415 6.06681 2.20314 6.12408 2.16488 6.16924L0.725418 7.86799C0.172254 8.52079 0.172255 9.47787 0.725418 10.1307L2.16488 11.8294C2.20314 11.8746 2.22415 11.9318 2.22415 11.991L2.22415 13.9993C2.22415 14.9658 3.00765 15.7493 3.97415 15.7493L6.00488 15.7493C6.06456 15.7493 6.12227 15.7707 6.16758 15.8095L7.86092 17.261C8.51628 17.8227 9.48334 17.8227 10.1387 17.261L11.832 15.8095C11.8773 15.7707 11.9351 15.7493 11.9947 15.7493L13.9998 15.7493C14.9663 15.7493 15.7498 14.9658 15.7498 13.9993L15.7498 11.9943C15.7498 11.9346 15.7712 11.8769 15.81 11.8316L17.2614 10.1382C17.8232 9.48286 17.8232 8.5158 17.2614 7.86045L15.81 6.1671C15.7712 6.12179 15.7498 6.06408 15.7498 6.00441L15.7498 3.99933C15.7498 3.03283 14.9663 2.24933 13.9998 2.24933L11.9947 2.24933C11.9351 2.24933 11.8773 2.22798 11.832 2.18914L10.1387 0.737709ZM8.83711 1.87659C8.93073 1.79635 9.06888 1.79635 9.16251 1.87659L10.8558 3.32803C11.173 3.59989 11.577 3.74933 11.9947 3.74933L13.9998 3.74933C14.1379 3.74933 14.2498 3.86126 14.2498 3.99933L14.2498 6.00441C14.2498 6.42215 14.3992 6.82612 14.6711 7.14329L16.1225 8.83663C16.2028 8.93025 16.2028 9.06841 16.1225 9.16203L14.6711 10.8554C14.3992 11.1725 14.2498 11.5765 14.2498 11.9943L14.2498 13.9993C14.2498 14.1374 14.1379 14.2493 13.9998 14.2493L11.9947 14.2493C11.577 14.2493 11.173 14.3988 10.8558 14.6706L9.16251 16.1221C9.06888 16.2023 8.93073 16.2023 8.83711 16.1221L7.14377 14.6706C6.82659 14.3988 6.42263 14.2493 6.00488 14.2493L3.97415 14.2493C3.83608 14.2493 3.72415 14.1374 3.72415 13.9993L3.72415 11.991C3.72415 11.5767 3.57713 11.1758 3.30927 10.8597L1.86981 9.16095C1.79079 9.06769 1.79079 8.93097 1.86981 8.83771L3.30927 7.13896C3.57713 6.82285 3.72415 6.42196 3.72415 6.00762L3.72415 3.99933C3.72415 3.86126 3.83608 3.74933 3.97415 3.74933L6.00489 3.74933C6.42263 3.74933 6.82659 3.59989 7.14377 3.32803L8.83711 1.87659ZM12.5303 7.27966C12.8232 6.98676 12.8232 6.51189 12.5303 6.219C12.2374 5.9261 11.7625 5.9261 11.4696 6.219L8.24995 9.43867L7.28028 8.469C6.98739 8.1761 6.51252 8.1761 6.21962 8.469C5.92673 8.76189 5.92673 9.23676 6.21962 9.52966L7.71962 11.0297C7.86028 11.1703 8.05104 11.2493 8.24995 11.2493C8.44887 11.2493 8.63963 11.1703 8.78028 11.0297L12.5303 7.27966Z" fill="currentColor"/>
</g>
</svg>
