<svg width="16" height="16" viewBox="0 0 16 16" fill="none" xmlns="http://www.w3.org/2000/svg">
<g id="Line Icon">
<path id="Union" fill-rule="evenodd" clip-rule="evenodd" d="M6.72076 2.75C6.61315 2.75 6.51762 2.81886 6.48359 2.92094L6.3739 3.25L9.6261 3.25L9.51641 2.92094C9.48238 2.81886 9.38685 2.75 9.27924 2.75L6.72076 2.75ZM11.2072 3.25L10.9394 2.4466C10.7012 1.732 10.0325 1.25 9.27924 1.25L6.72076 1.25C5.96751 1.25 5.29876 1.732 5.06056 2.4466L4.79276 3.25L3.33333 3.25L2 3.25C1.58579 3.25 1.25 3.58579 1.25 4C1.25 4.41421 1.58579 4.75 2 4.75L2.63167 4.75L3.06496 11.2494C3.19629 13.2193 4.83242 14.75 6.80666 14.75L9.19334 14.75C11.1676 14.75 12.8037 13.2193 12.935 11.2494L13.3683 4.75L14 4.75C14.4142 4.75 14.75 4.41422 14.75 4C14.75 3.58579 14.4142 3.25 14 3.25L12.6667 3.25L11.2072 3.25ZM11.865 4.75L10.6667 4.75L5.33333 4.75L4.135 4.75L4.56164 11.1497C4.64044 12.3316 5.62211 13.25 6.80666 13.25L9.19334 13.25C10.3779 13.25 11.3596 12.3316 11.4384 11.1497L11.865 4.75ZM6.66667 5.91667C7.08088 5.91667 7.41667 6.25245 7.41667 6.66667L7.41666 11.3333C7.41666 11.7475 7.08088 12.0833 6.66666 12.0833C6.25245 12.0833 5.91666 11.7475 5.91666 11.3333L5.91667 6.66667C5.91667 6.25245 6.25245 5.91667 6.66667 5.91667ZM10.0833 6.66667C10.0833 6.25245 9.74755 5.91667 9.33333 5.91667C8.91912 5.91667 8.58333 6.25245 8.58333 6.66667L8.58333 9.33333C8.58333 9.74755 8.91912 10.0833 9.33333 10.0833C9.74754 10.0833 10.0833 9.74755 10.0833 9.33333L10.0833 6.66667Z" fill="#000000"/>
</g>
</svg>
