<svg width="12" height="13" viewBox="0 0 12 13" fill="none" xmlns="http://www.w3.org/2000/svg">
  <path fill-rule="evenodd" clip-rule="evenodd" d="M0.75 6.5C0.75 3.60211 3.08419 1.25 6 1.25C7.6525 1.25 8.90604 1.91345 9.75 2.58802V2.25C9.75 1.83579 10.0858 1.5 10.5 1.5C10.9142 1.5 11.25 1.83579 11.25 2.25V4.5C11.25 4.91421 10.9142 5.25 10.5 5.25H8.5C8.08579 5.25 7.75 4.91421 7.75 4.5C7.75 4.08579 8.08579 3.75 8.5 3.75H8.80128C8.14831 3.23103 7.21802 2.75 6 2.75C3.91581 2.75 2.25 4.42733 2.25 6.5C2.25 6.91421 1.91421 7.25 1.5 7.25C1.08579 7.25 0.75 6.91421 0.75 6.5ZM10.5 5.75C10.9142 5.75 11.25 6.08579 11.25 6.5C11.25 9.39949 8.89949 11.75 6 11.75C4.61457 11.75 3.50989 11.1084 2.75 10.468V10.75C2.75 11.1642 2.41421 11.5 2 11.5C1.58579 11.5 1.25 11.1642 1.25 10.75V8.5C1.25 8.08579 1.58579 7.75 2 7.75H4.03224C4.44645 7.75 4.78224 8.08579 4.78224 8.5C4.78224 8.91421 4.44645 9.25 4.03224 9.25H3.63408C4.24522 9.7873 5.0502 10.25 6 10.25C8.07107 10.25 9.75 8.57107 9.75 6.5C9.75 6.08579 10.0858 5.75 10.5 5.75Z" fill="#1F1F1F"/>
</svg>
