<svg width="13" height="12" viewBox="0 0 13 12" fill="none" xmlns="http://www.w3.org/2000/svg">
<path fill-rule="evenodd" clip-rule="evenodd" d="M6.5 2C4.29086 2 2.5 3.79086 2.5 6C2.5 8.20914 4.29086 10 6.5 10C8.70914 10 10.5 8.20914 10.5 6C10.5 3.79086 8.70914 2 6.5 2ZM1.5 6C1.5 3.23858 3.73858 1 6.5 1C9.26142 1 11.5 3.23858 11.5 6C11.5 8.76142 9.26142 11 6.5 11C3.73858 11 1.5 8.76142 1.5 6ZM6.5 3.5C6.77614 3.5 7 3.72386 7 4V6.5C7 6.77614 6.77614 7 6.5 7C6.22386 7 6 6.77614 6 6.5V4C6 3.72386 6.22386 3.5 6.5 3.5ZM6.5 8.5C6.77614 8.5 7 8.27614 7 8C7 7.72386 6.77614 7.5 6.5 7.5C6.22386 7.5 6 7.72386 6 8C6 8.27614 6.22386 8.5 6.5 8.5Z" fill="#F9B619"/>
</svg>
