<svg width="16" height="16" viewBox="0 0 16 16" fill="none" xmlns="http://www.w3.org/2000/svg">
<g id="Line Icon">
<path id="Union" fill-rule="evenodd" clip-rule="evenodd" d="M2.75 7.33333C2.75 4.80203 4.80203 2.75 7.33333 2.75C9.86464 2.75 11.9167 4.80203 11.9167 7.33334C11.9167 9.86464 9.86464 11.9167 7.33333 11.9167C4.80203 11.9167 2.75 9.86464 2.75 7.33333ZM7.33333 1.25C3.9736 1.25 1.25 3.9736 1.25 7.33333C1.25 10.6931 3.9736 13.4167 7.33333 13.4167C8.74289 13.4167 10.0405 12.9373 11.0719 12.1326L12.803 13.8637C13.0959 14.1566 13.5708 14.1566 13.8637 13.8637C14.1566 13.5708 14.1566 13.0959 13.8637 12.803L12.1326 11.072C12.9373 10.0405 13.4167 8.7429 13.4167 7.33334C13.4167 3.9736 10.6931 1.25 7.33333 1.25Z" fill="#000000"/>
</g>
</svg>
