<svg width="44" height="18" viewBox="0 0 44 18" fill="none" xmlns="http://www.w3.org/2000/svg">
<rect width="44" height="18" fill="#8E8E8E"/>
<path d="M5.92743 11.5302C5.49755 11.5302 5.12375 11.4484 4.80602 11.2849C4.49295 11.1214 4.22428 10.8831 4 10.57L4.58874 9.89713C4.8177 10.2195 5.03964 10.4415 5.25458 10.563C5.47419 10.6798 5.72184 10.7382 5.99752 10.7382C6.15638 10.7382 6.30123 10.7148 6.43207 10.6681C6.5629 10.6214 6.66569 10.556 6.74045 10.4719C6.81522 10.3831 6.8526 10.2803 6.8526 10.1635C6.8526 10.084 6.83624 10.0116 6.80353 9.94619C6.7755 9.8761 6.73111 9.81535 6.67037 9.76395C6.6143 9.70788 6.54187 9.65648 6.45309 9.60976C6.36899 9.56303 6.26853 9.52331 6.15171 9.4906C6.03957 9.45322 5.91575 9.42285 5.78024 9.39949C5.51858 9.34809 5.29196 9.28033 5.10039 9.19623C4.91348 9.10745 4.75462 8.99997 4.62379 8.87381C4.49763 8.74298 4.40184 8.59812 4.33642 8.43925C4.27568 8.27571 4.24531 8.09114 4.24531 7.88554C4.24531 7.60986 4.32241 7.36688 4.4766 7.15661C4.63547 6.94167 4.84573 6.77345 5.1074 6.65196C5.37373 6.53047 5.66577 6.46973 5.9835 6.46973C6.39469 6.46973 6.74279 6.54449 7.02782 6.69401C7.31752 6.84354 7.54413 7.05615 7.70767 7.33183L7.10491 7.92059C6.96474 7.70565 6.79886 7.5421 6.60729 7.42996C6.41571 7.31781 6.20778 7.26174 5.9835 7.26174C5.81529 7.26174 5.6681 7.28744 5.54194 7.33884C5.42046 7.38557 5.32467 7.45332 5.25458 7.5421C5.18449 7.62621 5.14945 7.72901 5.14945 7.8505C5.14945 7.93928 5.16814 8.02105 5.20552 8.09581C5.24757 8.17058 5.30832 8.23599 5.38775 8.29207C5.46718 8.34814 5.56764 8.3972 5.68913 8.43925C5.81062 8.48131 5.95079 8.51869 6.10966 8.5514C6.36665 8.60747 6.59561 8.67756 6.79653 8.76167C7.00212 8.84578 7.175 8.94857 7.31518 9.07006C7.46003 9.18688 7.56983 9.32239 7.64459 9.47659C7.71936 9.62611 7.75674 9.79433 7.75674 9.98123C7.75674 10.299 7.68197 10.5747 7.53245 10.8083C7.38293 11.0419 7.17033 11.2218 6.89465 11.348C6.61897 11.4695 6.29656 11.5302 5.92743 11.5302Z" fill="white"/>
<path d="M10.8892 11.5302C10.5341 11.5302 10.207 11.4671 9.90795 11.341C9.61358 11.2148 9.35426 11.0396 9.12997 10.8153C8.91036 10.5863 8.73982 10.3177 8.61833 10.0093C8.49684 9.70087 8.4361 9.36444 8.4361 8.99997C8.4361 8.63551 8.49684 8.29907 8.61833 7.99068C8.73982 7.68228 8.91036 7.41594 9.12997 7.19165C9.35426 6.96269 9.61358 6.78513 9.90795 6.65897C10.207 6.53281 10.5341 6.46973 10.8892 6.46973C11.2396 6.46973 11.5644 6.53281 11.8634 6.65897C12.1625 6.78513 12.4218 6.96269 12.6414 7.19165C12.861 7.42061 13.0316 7.68929 13.153 7.99769C13.2745 8.30608 13.3353 8.64018 13.3353 8.99997C13.3353 9.36444 13.2745 9.70087 13.153 10.0093C13.0316 10.313 12.861 10.5793 12.6414 10.8083C12.4218 11.0373 12.1625 11.2148 11.8634 11.341C11.5644 11.4671 11.2396 11.5302 10.8892 11.5302ZM10.8892 10.6611C11.1135 10.6611 11.3167 10.6214 11.499 10.542C11.6859 10.4578 11.8471 10.341 11.9826 10.1915C12.1181 10.042 12.2232 9.86675 12.298 9.66583C12.3774 9.46023 12.4171 9.23828 12.4171 8.99997C12.4171 8.76167 12.3774 8.54205 12.298 8.34113C12.2232 8.13553 12.1181 7.95797 11.9826 7.80844C11.8471 7.65892 11.6859 7.54444 11.499 7.465C11.3167 7.3809 11.1135 7.33884 10.8892 7.33884C10.6649 7.33884 10.4593 7.3809 10.2724 7.465C10.0902 7.54444 9.92898 7.65892 9.7888 7.80844C9.6533 7.95797 9.54817 8.13319 9.47341 8.33412C9.39865 8.53504 9.36127 8.75699 9.36127 8.99997C9.36127 9.32239 9.42668 9.60976 9.55751 9.86208C9.68834 10.1097 9.86824 10.306 10.0972 10.4508C10.3261 10.591 10.5901 10.6611 10.8892 10.6611Z" fill="white"/>
<path d="M14.3166 11.4601V6.55383H15.2208V10.6191H17.4846V11.4601H14.3166Z" fill="white"/>
<path d="M18.5397 11.4601V6.55383H20.5092C20.8643 6.55383 21.1844 6.61224 21.4694 6.72906C21.7591 6.84588 22.0068 7.01409 22.2123 7.23371C22.4179 7.45332 22.5768 7.71265 22.6889 8.01171C22.8011 8.31076 22.8572 8.64251 22.8572 9.00698C22.8572 9.37145 22.8011 9.70555 22.6889 10.0093C22.5768 10.3083 22.4179 10.5677 22.2123 10.7873C22.0114 11.0022 21.7661 11.1681 21.4764 11.2849C21.1867 11.4017 20.8643 11.4601 20.5092 11.4601H18.5397ZM19.4439 10.7522L19.3808 10.6191H20.4742C20.7031 10.6191 20.9087 10.5817 21.0909 10.5069C21.2732 10.4321 21.425 10.327 21.5465 10.1915C21.6727 10.0513 21.7685 9.88077 21.8339 9.67985C21.904 9.47892 21.939 9.25463 21.939 9.00698C21.939 8.75933 21.904 8.53738 21.8339 8.34113C21.7685 8.1402 21.6727 7.96965 21.5465 7.82947C21.4203 7.68929 21.2662 7.58182 21.0839 7.50706C20.9064 7.4323 20.7031 7.39491 20.4742 7.39491H19.3598L19.4439 7.27576V10.7522Z" fill="white"/>
<path d="M28.0074 11.5302C27.6523 11.5302 27.3253 11.4671 27.0262 11.341C26.7318 11.2148 26.4725 11.0396 26.2482 10.8153C26.0286 10.5863 25.8581 10.3177 25.7366 10.0093C25.6151 9.70087 25.5544 9.36444 25.5544 8.99997C25.5544 8.63551 25.6151 8.29907 25.7366 7.99068C25.8581 7.68228 26.0286 7.41594 26.2482 7.19165C26.4725 6.96269 26.7318 6.78513 27.0262 6.65897C27.3253 6.53281 27.6523 6.46973 28.0074 6.46973C28.3579 6.46973 28.6826 6.53281 28.9817 6.65897C29.2807 6.78513 29.54 6.96269 29.7597 7.19165C29.9793 7.42061 30.1498 7.68929 30.2713 7.99769C30.3928 8.30608 30.4535 8.64018 30.4535 8.99997C30.4535 9.36444 30.3928 9.70087 30.2713 10.0093C30.1498 10.313 29.9793 10.5793 29.7597 10.8083C29.54 11.0373 29.2807 11.2148 28.9817 11.341C28.6826 11.4671 28.3579 11.5302 28.0074 11.5302ZM28.0074 10.6611C28.2317 10.6611 28.435 10.6214 28.6172 10.542C28.8041 10.4578 28.9653 10.341 29.1008 10.1915C29.2363 10.042 29.3415 9.86675 29.4162 9.66583C29.4957 9.46023 29.5354 9.23828 29.5354 8.99997C29.5354 8.76167 29.4957 8.54205 29.4162 8.34113C29.3415 8.13553 29.2363 7.95797 29.1008 7.80844C28.9653 7.65892 28.8041 7.54444 28.6172 7.465C28.435 7.3809 28.2317 7.33884 28.0074 7.33884C27.7832 7.33884 27.5776 7.3809 27.3907 7.465C27.2084 7.54444 27.0472 7.65892 26.9071 7.80844C26.7716 7.95797 26.6664 8.13319 26.5917 8.33412C26.5169 8.53504 26.4795 8.75699 26.4795 8.99997C26.4795 9.32239 26.5449 9.60976 26.6758 9.86208C26.8066 10.1097 26.9865 10.306 27.2155 10.4508C27.4444 10.591 27.7084 10.6611 28.0074 10.6611Z" fill="white"/>
<path d="M33.3974 11.5022C33.0095 11.5022 32.6638 11.4204 32.36 11.2569C32.0563 11.0887 31.8157 10.8597 31.6381 10.57C31.4652 10.2756 31.3788 9.94385 31.3788 9.57471V6.54683H32.29V9.51163C32.29 9.73125 32.339 9.9275 32.4371 10.1004C32.5399 10.2733 32.6754 10.4111 32.8437 10.5139C33.0119 10.612 33.1964 10.6611 33.3974 10.6611C33.6123 10.6611 33.8062 10.612 33.9791 10.5139C34.152 10.4111 34.2898 10.2733 34.3926 10.1004C34.4954 9.9275 34.5468 9.73125 34.5468 9.51163V6.54683H35.4159V9.57471C35.4159 9.94385 35.3271 10.2756 35.1496 10.57C34.9767 10.8597 34.7384 11.0887 34.4347 11.2569C34.1309 11.4204 33.7852 11.5022 33.3974 11.5022Z" fill="white"/>
<path d="M37.6591 11.4601V7.39491H36.2573V6.55383H40V7.39491H38.5632V11.4601H37.6591Z" fill="white"/>
</svg>
