<svg width="16" height="16" viewBox="0 0 16 16" fill="none" xmlns="http://www.w3.org/2000/svg">
<g id="Line Icon">
<path id="Union" fill-rule="evenodd" clip-rule="evenodd" d="M6.58301 4.66699C6.58301 3.14821 7.81422 1.91699 9.33301 1.91699C10.5918 1.91699 11.653 2.76274 11.9795 3.91699H13.9997C14.4139 3.91699 14.7497 4.25278 14.7497 4.66699C14.7497 5.08121 14.4139 5.41699 13.9997 5.41699H11.9795C11.653 6.57124 10.5918 7.41699 9.33301 7.41699C7.81422 7.41699 6.58301 6.18577 6.58301 4.66699ZM9.33301 3.41699C10.0234 3.41699 10.583 3.97664 10.583 4.66699V4.66795C10.5825 5.35786 10.023 5.91699 9.33301 5.91699C8.64265 5.91699 8.08301 5.35735 8.08301 4.66699C8.08301 3.97664 8.64265 3.41699 9.33301 3.41699ZM1.33301 3.91699C0.918794 3.91699 0.583008 4.25278 0.583008 4.66699C0.583008 5.08121 0.918794 5.41699 1.33301 5.41699H5.33301C5.74722 5.41699 6.08301 5.08121 6.08301 4.66699C6.08301 4.25278 5.74722 3.91699 5.33301 3.91699H1.33301ZM1.33301 10.5837C0.918794 10.5837 0.583008 10.9194 0.583008 11.3337C0.583008 11.7479 0.918794 12.0837 1.33301 12.0837H3.35319C3.67966 13.2379 4.7409 14.0837 5.99967 14.0837C7.51846 14.0837 8.74967 12.8524 8.74967 11.3337C8.74967 9.81488 7.51846 8.58366 5.99967 8.58366C4.7409 8.58366 3.67966 9.42941 3.35319 10.5837H1.33301ZM4.74967 11.3337C4.74967 12.024 5.30932 12.5837 5.99967 12.5837C6.69003 12.5837 7.24967 12.024 7.24967 11.3337C7.24967 10.6433 6.69003 10.0837 5.99967 10.0837C5.30932 10.0837 4.74967 10.6433 4.74967 11.3337ZM9.99967 10.5837C9.58546 10.5837 9.24967 10.9194 9.24967 11.3337C9.24967 11.7479 9.58546 12.0837 9.99967 12.0837H13.9997C14.4139 12.0837 14.7497 11.7479 14.7497 11.3337C14.7497 10.9194 14.4139 10.5837 13.9997 10.5837H9.99967Z" fill="black"/>
</g>
</svg>
