<svg width="14" height="15" viewBox="0 0 14 15" fill="none" xmlns="http://www.w3.org/2000/svg">
<path d="M11.5454 3.41992H10.2629V4.70487H11.5454V3.41992Z" fill="#000"/>
<path d="M9.49386 3.41992H8.21143V4.70487H9.49386V3.41992Z" fill="#000"/>
<path d="M7.4421 3.41992H6.15967V4.70487H7.4421V3.41992Z" fill="#000"/>
<path d="M10.2629 5.47482V6.75977H11.5454V5.47482H10.2629Z" fill="#000"/>
<path d="M10.2629 7.53146V8.81641H11.5454V7.53146H10.2629Z" fill="#000"/>
<path d="M12.9001 11.9021L10.195 10.1786C10.1642 10.1591 10.1287 10.1482 10.0922 10.147C10.0558 10.1458 10.0196 10.1544 9.98759 10.1718C9.95554 10.1893 9.92871 10.215 9.90987 10.2463C9.89103 10.2776 9.88085 10.3133 9.8804 10.3499V11.4258H3.564V5.11586H4.64124C4.67772 5.1154 4.71341 5.10521 4.74465 5.08633C4.77589 5.06745 4.80154 5.04057 4.81896 5.00846C4.83638 4.97634 4.84494 4.94016 4.84375 4.90363C4.84257 4.86709 4.83169 4.83154 4.81223 4.80062L3.0972 2.09195C3.07848 2.06367 3.05307 2.04048 3.02324 2.02444C2.9934 2.0084 2.96007 2 2.92621 2C2.89235 2 2.85901 2.0084 2.82918 2.02444C2.79934 2.04048 2.77393 2.06367 2.75521 2.09195L1.03163 4.80062C1.01217 4.83154 1.00129 4.86709 1.00011 4.90363C0.998926 4.94016 1.00749 4.97634 1.0249 5.00846C1.04232 5.04057 1.06797 5.06745 1.09921 5.08633C1.13045 5.10521 1.16614 5.1154 1.20262 5.11586H2.28328V11.6503C2.28328 11.9324 2.39515 12.2031 2.59429 12.4026C2.79343 12.6021 3.06351 12.7142 3.34513 12.7142H9.8804V13.797C9.88085 13.8335 9.89103 13.8693 9.90987 13.9006C9.92871 13.9319 9.95554 13.9576 9.98759 13.975C10.0196 13.9925 10.0558 14.0011 10.0922 13.9999C10.1287 13.9987 10.1642 13.9878 10.195 13.9683L12.9001 12.255C12.9306 12.2368 12.9558 12.2109 12.9733 12.18C12.9908 12.1491 13 12.1141 13 12.0786C13 12.043 12.9908 12.0081 12.9733 11.9771C12.9558 11.9462 12.9306 11.9204 12.9001 11.9021Z" fill="#000"/>
</svg>
