<svg width="20" height="20" viewBox="0 0 20 20" fill="none" xmlns="http://www.w3.org/2000/svg">
<g clip-path="url(#clip0_2329_96457)">
<path d="M17.684 6.16878L12.4597 5.68425L10.3845 0.865372C10.2392 0.527949 9.76076 0.527949 9.61549 0.865372L7.54025 5.68421L2.31598 6.16878C1.95016 6.20269 1.80235 6.65769 2.07832 6.90015L6.02005 10.3629L4.86649 15.4812C4.78571 15.8396 5.17278 16.1208 5.48864 15.9333L9.99998 13.2545L14.5113 15.9333C14.8272 16.1208 15.2142 15.8396 15.1335 15.4812L13.9799 10.3629L17.9216 6.90015C18.1976 6.65769 18.0498 6.20269 17.684 6.16878Z" fill="#F8F7FA"/>
<path d="M4.65932 0.70026C4.92565 1.07018 5.67737 2.65886 6.10714 3.58472C6.17471 3.73027 5.9921 3.86175 5.87549 3.75148C5.13381 3.05023 3.86565 1.83335 3.59932 1.46339C3.38858 1.17069 3.45502 0.762565 3.74776 0.551822C4.04045 0.34108 4.44858 0.407564 4.65932 0.70026Z" fill="#F8F7FA"/>
<path d="M15.3407 0.70026C15.0744 1.07018 14.3227 2.65886 13.8929 3.58472C13.8253 3.73027 14.0079 3.86175 14.1245 3.75148C14.8662 3.05023 16.1343 1.83331 16.4007 1.46339C16.6114 1.17069 16.545 0.762565 16.2523 0.551822C15.9596 0.34108 15.5514 0.407564 15.3407 0.70026Z" fill="#F8F7FA"/>
<path d="M19.5493 11.5482C19.116 11.4069 17.374 11.1734 16.3613 11.0453C16.2022 11.0251 16.1324 11.2391 16.2728 11.3166C17.1663 11.8102 18.7109 12.6486 19.1443 12.79C19.4872 12.9018 19.8558 12.7145 19.9677 12.3716C20.0795 12.0286 19.8922 11.66 19.5493 11.5482Z" fill="#F8F7FA"/>
<path d="M0.450725 11.5482C0.884086 11.4069 2.62608 11.1734 3.6387 11.0453C3.79788 11.0251 3.86765 11.2391 3.72722 11.3166C2.83374 11.8102 1.28909 12.6486 0.855726 12.79C0.512835 12.9018 0.144201 12.7145 0.0323652 12.3716C-0.079471 12.0286 0.107834 11.66 0.450725 11.5482Z" fill="#F8F7FA"/>
<path d="M9.36694 18.9183C9.36694 18.4624 9.68511 16.7339 9.8773 15.7315C9.90749 15.5739 10.1325 15.5739 10.1627 15.7315C10.3549 16.7339 10.6731 18.4624 10.6731 18.9183C10.6731 19.2789 10.3807 19.5713 10.02 19.5713C9.65933 19.5714 9.36694 19.2789 9.36694 18.9183Z" fill="#F8F7FA"/>
</g>
<defs>
<clipPath id="clip0_2329_96457">
<rect width="20" height="20" fill="white"/>
</clipPath>
</defs>
</svg>
