<svg width="32" height="32" viewBox="0 0 32 32" fill="none" xmlns="http://www.w3.org/2000/svg">
  <path fill-rule="evenodd" clip-rule="evenodd" d="M16 1.9165C16.2862 1.9165 16.5474 2.07933 16.6734 2.33624L20.4996 10.1376L28.1093 11.2578C28.39 11.2992 28.6234 11.4954 28.7123 11.7648C28.8012 12.0343 28.7304 12.3309 28.5294 12.5312L22.8233 18.2161L24.7314 26.6207C24.796 26.905 24.6899 27.201 24.4594 27.3796C24.2289 27.5582 23.9158 27.587 23.6566 27.4535L16 23.5101L8.34342 27.4535C8.08421 27.587 7.77112 27.5582 7.54064 27.3796C7.31016 27.201 7.20408 26.905 7.26863 26.6207L9.17678 18.2161L3.47068 12.5312C3.26966 12.3309 3.19888 12.0343 3.28778 11.7648C3.37669 11.4954 3.61006 11.2992 3.89079 11.2578L11.5004 10.1376L15.3267 2.33624C15.4527 2.07933 15.7139 1.9165 16 1.9165ZM16 4.3697L12.6734 11.1524C12.5646 11.3742 12.3536 11.5282 12.1093 11.5641L5.58881 12.524L10.5294 17.4462C10.7122 17.6284 10.7886 17.8919 10.7314 18.1436L9.08784 25.3828L15.6566 21.9997C15.8721 21.8888 16.1279 21.8888 16.3434 21.9997L22.9122 25.3828L21.2686 18.1436C21.2115 17.8919 21.2878 17.6284 21.4707 17.4462L26.4112 12.524L19.8908 11.5641C19.6464 11.5282 19.4354 11.3742 19.3267 11.1524L16 4.3697Z" fill="white"/>
</svg>
