<svg width="80" height="80" viewBox="0 0 80 80" fill="none" xmlns="http://www.w3.org/2000/svg">
<path d="M72.5625 64C73.425 64 74.125 64.7 74.125 65.5625C74.125 66.425 73.425 67.125 72.5625 67.125C71.7 67.125 71 66.425 71 65.5625C71 64.7 71.7 64 72.5625 64Z" fill="#94D4FF"/>
<path d="M67.125 70C68.8516 70 70.25 71.3984 70.25 73.125C70.25 74.8516 68.8516 76.25 67.125 76.25C65.3984 76.25 64 74.8516 64 73.125C64 71.3984 65.3984 70 67.125 70Z" fill="#D49B15"/>
<path d="M61.2393 3.98438C62.1018 3.98438 62.8018 4.68437 62.8018 5.54688C62.8018 6.40937 62.1018 7.10938 61.2393 7.10938C60.3768 7.10938 59.6768 6.40937 59.6768 5.54688C59.6768 4.68437 60.3768 3.98438 61.2393 3.98438Z" fill="#94D4FF"/>
<path d="M40 8C22.3264 8 8 22.3264 8 40C8 57.6736 22.3264 72 40 72C57.6736 72 72 57.6736 72 40C72 22.3264 57.6736 8 40 8Z" fill="#F9B619"/>
<path d="M36.7554 49.9981C36.198 49.9981 35.6654 49.7841 35.2722 49.4001L27.5968 41.9003C26.7918 41.1123 26.8022 39.8483 27.6218 39.0723C28.4413 38.3004 29.758 38.3083 30.563 39.0963L36.6951 45.0882L49.3815 31.6545C50.1573 30.8365 51.472 30.7785 52.3185 31.5185C53.1692 32.2605 53.2316 33.5245 52.4599 34.3444L38.2946 49.344C37.9099 49.752 37.369 49.988 36.797 50C36.7824 49.9981 36.77 49.9981 36.7554 49.9981Z" fill="#FEF8E8"/>
<path d="M15.9268 66.1719C16.7893 66.1719 17.4893 66.8719 17.4893 67.7344C17.4893 68.5969 16.7893 69.2969 15.9268 69.2969C15.0641 69.2969 14.3643 68.5969 14.3643 67.7344C14.3643 66.8719 15.0641 66.1719 15.9268 66.1719Z" fill="#94D4FF"/>
<path d="M7.75 8C9.8215 8 11.5 9.6785 11.5 11.75C11.5 13.8215 9.8215 15.5 7.75 15.5C5.67835 15.5 4 13.8215 4 11.75C4 9.6785 5.67835 8 7.75 8Z" fill="#D49B15"/>
<path d="M2.5625 25C3.425 25 4.125 25.7 4.125 26.5625C4.125 27.425 3.425 28.125 2.5625 28.125C1.69984 28.125 1 27.425 1 26.5625C1 25.7 1.69984 25 2.5625 25Z" fill="#94D4FF"/>
<path d="M77.6196 10.6042C74.804 11.8225 72.5844 14.3685 71.5287 17.5909C71.4438 17.8421 71.2302 18.0056 70.9946 17.9999C70.759 17.9941 70.5518 17.8204 70.4762 17.5653C69.4078 14.3582 67.1916 11.8253 64.3854 10.6042C64.1559 10.5212 64 10.2779 64 10.0028C64 9.72779 64.1559 9.48445 64.3854 9.40142C67.1977 8.19112 69.4172 5.65448 70.4762 2.44041C70.5489 2.1782 70.7618 2 71.0025 2C71.2431 2 71.4561 2.1782 71.5287 2.44041C72.5879 5.66331 74.8181 8.20278 77.642 9.40142C77.8618 9.49852 78.0049 9.74254 77.9999 10.0118C77.9949 10.2811 77.8428 10.5179 77.6196 10.6042Z" fill="#FAC342"/>
<path d="M10.6183 73.6889C8.85829 74.7224 7.43533 76.43 6.5741 78.5419C6.47708 78.8194 6.25078 79 6 79C5.74922 79 5.52292 78.8194 5.4259 78.5419C4.56741 76.4276 3.14367 74.7191 1.38172 73.6889C1.15046 73.5725 1 73.3009 1 73C1 72.6991 1.15046 72.4275 1.38172 72.3111C3.14367 71.2809 4.56741 69.5724 5.4259 67.4581C5.52292 67.1806 5.74922 67 6 67C6.25078 67 6.47708 67.1806 6.5741 67.4581C7.43533 69.57 8.85829 71.2776 10.6183 72.3111C10.8495 72.4275 11 72.6991 11 73C11 73.3009 10.8495 73.5725 10.6183 73.6889Z" fill="#FAC342"/>
</svg>
