<svg width="32" height="28" viewBox="0 0 32 28" fill="none" xmlns="http://www.w3.org/2000/svg">
<path fill-rule="evenodd" clip-rule="evenodd" d="M10.8 4H15.25V13.25H6V8.8C6 7.11984 6 6.27976 6.32698 5.63803C6.6146 5.07354 7.07354 4.6146 7.63803 4.32698C8.27976 4 9.11984 4 10.8 4ZM6 14.75V19.2C6 20.8802 6 21.7202 6.32698 22.362C6.6146 22.9265 7.07354 23.3854 7.63803 23.673C8.27976 24 9.11984 24 10.8 24H15.25V14.75H6ZM16.75 14.75V24H21.2C22.8802 24 23.7202 24 24.362 23.673C24.9265 23.3854 25.3854 22.9265 25.673 22.362C26 21.7202 26 20.8802 26 19.2V14.75H16.75ZM26 13.25V8.8C26 7.11984 26 6.27976 25.673 5.63803C25.3854 5.07354 24.9265 4.6146 24.362 4.32698C23.7202 4 22.8802 4 21.2 4H16.75V13.25H26Z" fill="#000"/>
</svg>
