<svg width="20" height="20" viewBox="0 0 20 20" fill="none" xmlns="http://www.w3.org/2000/svg">
<path fill-rule="evenodd" clip-rule="evenodd" d="M4.08276 5.83333C4.08276 4.4066 5.23935 3.25 6.66609 3.25C8.09283 3.25 9.24942 4.4066 9.24942 5.83333C9.24942 7.26007 8.09283 8.41667 6.66609 8.41667C5.23935 8.41667 4.08276 7.26007 4.08276 5.83333ZM6.66609 1.75C4.41093 1.75 2.58276 3.57817 2.58276 5.83333C2.58276 8.0885 4.41093 9.91667 6.66609 9.91667C8.92125 9.91667 10.7494 8.0885 10.7494 5.83333C10.7494 3.57817 8.92125 1.75 6.66609 1.75ZM11.6661 1.75C11.2519 1.75 10.9161 2.08579 10.9161 2.5C10.9161 2.91421 11.2519 3.25 11.6661 3.25C13.0928 3.25 14.2494 4.4066 14.2494 5.83333C14.2494 7.26007 13.0928 8.41667 11.6661 8.41667C11.2519 8.41667 10.9161 8.75245 10.9161 9.16667C10.9161 9.58088 11.2519 9.91667 11.6661 9.91667C13.9213 9.91667 15.7494 8.0885 15.7494 5.83333C15.7494 3.57817 13.9213 1.75 11.6661 1.75ZM4.91637 11.75L4.99942 11.75H8.33276L8.41581 11.75C8.95488 11.7498 9.33445 11.7497 9.66598 11.8156C11.0213 12.0852 12.0808 13.1447 12.3504 14.5001C12.4164 14.8316 12.4163 15.2112 12.4161 15.7502V15.7503L12.4161 15.8333L12.4161 15.8919C12.4164 16.1424 12.4166 16.3694 12.3761 16.5731C12.2117 17.3995 11.5656 18.0456 10.7392 18.21C10.5355 18.2505 10.3085 18.2503 10.058 18.25L9.99942 18.25H3.33276L3.27416 18.25C3.02366 18.2503 2.79673 18.2505 2.59298 18.21C1.76655 18.0456 1.12051 17.3995 0.95612 16.5731C0.915594 16.3694 0.915812 16.1424 0.916052 15.8919L0.91609 15.8333L0.916073 15.7503C0.915909 15.2112 0.915793 14.8316 0.98174 14.5001C1.25134 13.1447 2.31084 12.0852 3.6662 11.8156C3.99773 11.7497 4.3773 11.7498 4.91637 11.75ZM4.99942 13.25C4.34393 13.25 4.12572 13.2536 3.95883 13.2868C3.19851 13.4381 2.60416 14.0324 2.45292 14.7927C2.41972 14.9596 2.41609 15.1778 2.41609 15.8333C2.41609 16.1791 2.41972 16.2424 2.4273 16.2805C2.47333 16.5119 2.65422 16.6928 2.88562 16.7388C2.92371 16.7464 2.98704 16.75 3.33276 16.75H9.99942C10.3451 16.75 10.4085 16.7464 10.4466 16.7388C10.678 16.6928 10.8589 16.5119 10.9049 16.2805C10.9125 16.2424 10.9161 16.1791 10.9161 15.8333C10.9161 15.1778 10.9125 14.9596 10.8793 14.7927C10.728 14.0324 10.1337 13.4381 9.37335 13.2868C9.20646 13.2536 8.98824 13.25 8.33276 13.25H4.99942ZM14.9994 13.25C15.6549 13.25 15.8731 13.2536 16.04 13.2868C16.8003 13.4381 17.3947 14.0324 17.5459 14.7927C17.5791 14.9596 17.5828 15.1778 17.5828 15.8333C17.5828 16.1791 17.5791 16.2424 17.5715 16.2805C17.5255 16.5119 17.3446 16.6928 17.1132 16.7388C17.0751 16.7464 17.0118 16.75 16.6661 16.75H13.3328C12.9185 16.75 12.5828 17.0858 12.5828 17.5C12.5828 17.9142 12.9185 18.25 13.3328 18.25H16.6661L16.7247 18.25C16.9752 18.2503 17.2021 18.2505 17.4059 18.21C18.2323 18.0456 18.8783 17.3995 19.0427 16.5731C19.0833 16.3694 19.083 16.1424 19.0828 15.892V15.8919L19.0828 15.8333L19.0828 15.7503C19.0829 15.2112 19.0831 14.8316 19.0171 14.5001C18.7475 13.1447 17.688 12.0852 16.3326 11.8156C16.0011 11.7497 15.6215 11.7498 15.0825 11.75L14.9994 11.75H13.3328C12.9185 11.75 12.5828 12.0858 12.5828 12.5C12.5828 12.9142 12.9185 13.25 13.3328 13.25H14.9994Z" fill="black"/>
</svg>
