<svg width="18" height="18" viewBox="0 0 18 18" fill="none" xmlns="http://www.w3.org/2000/svg">
<g id="Line Icon">
<path id="Union" fill-rule="evenodd" clip-rule="evenodd" d="M6.75001 1.64844C6.75001 1.23422 6.41422 0.898438 6.00001 0.898438C5.5858 0.898438 5.25001 1.23422 5.25001 1.64844V2.50482C3.32627 2.91831 1.84327 4.48399 1.55142 6.45147C1.49989 6.79887 1.49993 7.19862 1.50001 7.827L1.50001 7.89844V10.2484L1.50001 10.2814C1.5 11.3736 1.5 12.2391 1.557 12.9367C1.61528 13.6501 1.73689 14.2537 2.01773 14.8049C2.47313 15.6987 3.19979 16.4253 4.09356 16.8807C4.64473 17.1616 5.24835 17.2832 5.96174 17.3414C6.65935 17.3984 7.52482 17.3984 8.61692 17.3984H8.61699H8.65001H9.35001H9.38303H9.3831C10.4752 17.3984 11.3407 17.3984 12.0383 17.3414C12.7517 17.2832 13.3553 17.1616 13.9065 16.8807C14.8002 16.4253 15.5269 15.6987 15.9823 14.8049C16.2631 14.2537 16.3847 13.6501 16.443 12.9367C16.5 12.2391 16.5 11.3736 16.5 10.2815V10.2815V10.2815V10.2815V10.2484V9.54844V9.51542V9.5154V9.51539V9.51537C16.5 8.42326 16.5 7.55778 16.443 6.86017C16.3847 6.14678 16.2631 5.54316 15.9823 4.99198C15.5269 4.09821 14.8002 3.37156 13.9065 2.91616C13.5484 2.73369 13.1681 2.61844 12.75 2.54411V1.64844C12.75 1.23422 12.4142 0.898438 12 0.898438C11.5858 0.898438 11.25 1.23422 11.25 1.64844V2.41433C10.7135 2.39843 10.0967 2.39843 9.38303 2.39844H9.38301L9.35001 2.39844H7.00001L6.92858 2.39843L6.75001 2.39846V1.64844ZM12 4.64844C11.5913 4.64844 11.259 4.32154 11.2502 3.91495C10.736 3.89871 10.1186 3.89844 9.35001 3.89844H7.00001L6.75001 3.89859C6.74993 4.31273 6.41417 4.64844 6.00001 4.64844C5.63805 4.64844 5.33598 4.39203 5.26553 4.05094C4.09721 4.42179 3.2194 5.42969 3.03519 6.67156C3.00206 6.89491 3.00001 7.17488 3.00001 7.89844V10.2484C3.00001 11.3809 3.00059 12.1852 3.05202 12.8146C3.10272 13.4352 3.1991 13.8194 3.35424 14.1239C3.66583 14.7354 4.16301 15.2326 4.77454 15.5442C5.07901 15.6993 5.46326 15.7957 6.08389 15.8464C6.71328 15.8979 7.51753 15.8984 8.65001 15.8984H9.35001C10.4825 15.8984 11.2867 15.8979 11.9161 15.8464C12.5368 15.7957 12.921 15.6993 13.2255 15.5442C13.837 15.2326 14.3342 14.7354 14.6458 14.1239C14.8009 13.8194 14.8973 13.4352 14.948 12.8146C14.9994 12.1852 15 11.3809 15 10.2484V9.54844C15 8.41596 14.9994 7.6117 14.948 6.98232C14.8973 6.36169 14.8009 5.97744 14.6458 5.67297C14.3342 5.06144 13.837 4.56425 13.2255 4.25267C13.083 4.18009 12.9232 4.12038 12.7298 4.07218C12.6514 4.40262 12.3544 4.64844 12 4.64844ZM5.25001 6.14844C4.8358 6.14844 4.50001 6.48422 4.50001 6.89844C4.50001 7.31265 4.8358 7.64844 5.25001 7.64844H12.75C13.1642 7.64844 13.5 7.31265 13.5 6.89844C13.5 6.48422 13.1642 6.14844 12.75 6.14844H5.25001Z" fill="currentColor"/>
</g>
</svg>
