<svg width="16" height="17" viewBox="0 0 16 17" fill="none" xmlns="http://www.w3.org/2000/svg">
<path fill-rule="evenodd" clip-rule="evenodd" d="M3.46967 3.96967C3.76256 3.67678 4.23744 3.67678 4.53033 3.96967L8 7.43934L11.4697 3.96967C11.7626 3.67678 12.2374 3.67678 12.5303 3.96967C12.8232 4.26256 12.8232 4.73744 12.5303 5.03033L9.06066 8.5L12.5303 11.9697C12.8232 12.2626 12.8232 12.7374 12.5303 13.0303C12.2374 13.3232 11.7626 13.3232 11.4697 13.0303L8 9.56066L4.53033 13.0303C4.23744 13.3232 3.76256 13.3232 3.46967 13.0303C3.17678 12.7374 3.17678 12.2626 3.46967 11.9697L6.93934 8.5L3.46967 5.03033C3.17678 4.73744 3.17678 4.26256 3.46967 3.96967Z" fill="#E11919"/>
</svg>
