<svg width="33" height="14" viewBox="0 0 33 14" fill="none" xmlns="http://www.w3.org/2000/svg">
<path fill-rule="evenodd" clip-rule="evenodd" d="M23.4931 0.528604C23.7534 0.206446 24.2256 0.156347 24.5478 0.416705L31.972 6.41671C32.1482 6.5591 32.2506 6.77349 32.2506 7.00003C32.2506 7.22656 32.1482 7.44096 31.972 7.58335L24.5478 13.5833C24.2256 13.8437 23.7534 13.7936 23.4931 13.4714C23.2327 13.1493 23.2828 12.6771 23.605 12.4167L29.3793 7.75003H1.5C1.08579 7.75003 0.75 7.41424 0.75 7.00003C0.75 6.58581 1.08579 6.25003 1.5 6.25003H29.3793L23.605 1.58335C23.2828 1.32299 23.2327 0.850763 23.4931 0.528604Z" fill="#000"/>
</svg>
