<svg width="32" height="16" viewBox="0 0 32 16" fill="none" xmlns="http://www.w3.org/2000/svg">
<g id="Frame 26871">
<path id="Vector" d="M23.6152 3.7139L22.996 5.15143H24.2377L23.6152 3.7139ZM16.4704 4.60471C16.5871 4.54637 16.6558 4.41947 16.6558 4.26189C16.6558 4.10746 16.5836 3.99563 16.4669 3.94307C16.3606 3.88481 16.1971 3.87808 16.0403 3.87808H14.9326V4.67905H16.0255C16.2005 4.67909 16.3467 4.67662 16.4704 4.60471ZM2.27644 3.7139L1.66428 5.15143H2.89229L2.27644 3.7139ZM30.7776 12.9231H29.0403V12.1497H30.7706C30.9421 12.1497 31.0622 12.1282 31.1345 12.0603C31.2029 11.9999 31.2416 11.9145 31.2409 11.8252C31.2409 11.7201 31.1973 11.6366 31.1309 11.5867C31.0658 11.5316 30.9706 11.5066 30.814 11.5066C29.9693 11.4791 28.9155 11.5315 28.9155 10.3902C28.9155 9.8671 29.2623 9.31644 30.2063 9.31644H31.9982V8.5988H30.3333C29.8309 8.5988 29.4659 8.71409 29.2074 8.89341V8.5988H26.7449C26.3512 8.5988 25.889 8.6923 25.6704 8.89341V8.5988H21.2728V8.89341C20.9229 8.65148 20.3323 8.5988 20.0598 8.5988H17.1592V8.89341C16.8824 8.63651 16.2665 8.5988 15.8914 8.5988H12.6451L11.9023 9.36908L11.2066 8.5988H6.35723V13.6319H11.1151L11.8804 12.8493L12.6015 13.6319L15.5342 13.6344V12.4504H15.8226C16.2117 12.4564 16.6706 12.4413 17.0757 12.2736V13.6318H19.4947V12.3199H19.6113C19.7602 12.3199 19.775 12.3259 19.775 12.4685V13.6315H27.1236C27.5902 13.6315 28.0779 13.5172 28.3479 13.3093V13.6315H30.6789C31.1639 13.6315 31.6377 13.5663 31.9981 13.3996V12.462C31.7796 12.7681 31.3537 12.9233 30.7775 12.9233L30.7776 12.9231ZM15.8611 11.7347H14.7387V12.9445H12.9902L11.8825 11.7505L10.7314 12.9445H7.16803V9.33769H10.7862L11.8929 10.52L13.0371 9.33769H15.9116C16.6255 9.33769 17.4276 9.52711 17.4276 10.5259C17.4276 11.5279 16.6475 11.7347 15.8611 11.7347V11.7347ZM21.2586 11.5712C21.3857 11.7472 21.404 11.9116 21.4077 12.2295V12.9445H20.5044V12.4933C20.5044 12.2763 20.5263 11.955 20.359 11.7873C20.2278 11.6582 20.0273 11.6273 19.699 11.6273H18.7377V12.9445H17.8338V9.33773H19.9106C20.3662 9.33773 20.6978 9.35714 20.993 9.50791C21.2769 9.67226 21.4556 9.89742 21.4556 10.3089C21.4555 10.8845 21.0548 11.1782 20.818 11.2684C21.0181 11.3392 21.1818 11.4661 21.2586 11.5712V11.5712ZM24.9746 10.0836H22.868V10.7393H24.9231V11.4753H22.868V12.1929L24.9746 12.1961V12.9445H21.9722V9.33769H24.9746V10.0836V10.0836ZM27.2862 12.9445H25.5341V12.171H27.2792C27.4499 12.171 27.5709 12.1494 27.6467 12.0817C27.7085 12.0259 27.753 11.9448 27.753 11.8466C27.753 11.7414 27.7048 11.6579 27.6432 11.6079C27.5743 11.5529 27.4794 11.528 27.3228 11.528C26.4815 11.5004 25.428 11.5528 25.428 10.4116C25.428 9.88839 25.7711 9.33773 26.7141 9.33773H28.5177V10.1053H26.8674C26.7038 10.1053 26.5975 10.1113 26.507 10.1706C26.4084 10.229 26.3719 10.3156 26.3719 10.43C26.3719 10.566 26.4555 10.6587 26.5687 10.6987C26.6636 10.7303 26.7655 10.7395 26.9187 10.7395L27.4031 10.7522C27.8912 10.7634 28.2266 10.8445 28.4304 11.0422C28.6054 11.2158 28.6995 11.4351 28.6995 11.8063C28.6994 12.5822 28.1934 12.9445 27.2862 12.9445V12.9445ZM20.3092 10.1418C20.2005 10.0799 20.0401 10.0767 19.88 10.0767H18.7723V10.8867H19.8652C20.0402 10.8867 20.189 10.8807 20.3092 10.8123C20.4258 10.7448 20.4956 10.6204 20.4956 10.4662C20.4956 10.3119 20.4258 10.2002 20.3092 10.1418ZM30.3603 10.0766C30.1967 10.0766 30.0878 10.0825 29.9963 10.1417C29.9013 10.2002 29.8649 10.2868 29.8649 10.4013C29.8649 10.5372 29.945 10.6299 30.0616 10.6699C30.1566 10.7016 30.2583 10.7108 30.4082 10.7108L30.8959 10.7232C31.3878 10.7349 31.7163 10.816 31.9166 11.0137C31.953 11.0411 31.9749 11.072 32 11.1029V10.0767H30.3604L30.3603 10.0766V10.0766ZM15.8923 10.0766H14.7193V10.9952H15.8819C16.2275 10.9952 16.4424 10.8309 16.4426 10.5188C16.4424 10.2034 16.217 10.0766 15.8923 10.0766V10.0766ZM8.06401 10.0766V10.7323H10.0389V11.4683H8.06401V12.1858H10.2757L11.3033 11.1277L10.3194 10.0766H8.06401ZM13.8393 12.5988V9.70722L12.4582 11.1298L13.8393 12.5988V12.5988ZM8.1395 6.80795V7.42942H15.6552L15.6517 6.11469H15.7971C15.899 6.11809 15.9286 6.12708 15.9286 6.28819V7.42946H19.8158V7.12337C20.1293 7.28435 20.6169 7.42946 21.2586 7.42946H22.8939L23.2439 6.62854H24.0198L24.3621 7.42946H27.5134V6.66867L27.9905 7.42942H30.5159V2.40039H28.0167V2.99433L27.6668 2.40039H25.1023V2.99433L24.781 2.40039H21.3169C20.737 2.40039 20.2275 2.47793 19.8157 2.69406V2.40039H17.4252V2.69406C17.1632 2.47128 16.8062 2.40039 16.4093 2.40039H7.67598L7.09004 3.69937L6.48826 2.40039H3.73756V2.99433L3.43532 2.40039H1.08942L4.10265e-05 4.79158V6.70428L1.61091 3.09829H2.94751L4.47739 6.5124V3.09829H5.94569L7.12294 5.5445L8.20449 3.09829H9.70224V6.70428H8.78017L8.77681 3.88014L7.47233 6.70428H6.68248L5.37468 3.87763V6.70428H3.5449L3.19925 5.89995H1.32622L0.977006 6.70428H0V7.42971H1.5371L1.88365 6.62875H2.65963L3.00528 7.42971H6.02946V6.81731L6.29938 7.43225H7.8693L8.13925 6.80808L8.1395 6.80795ZM19.9826 3.51861C20.2733 3.23081 20.7288 3.09809 21.3487 3.09809H22.2196V3.87074H21.367C21.0389 3.87074 20.8533 3.91751 20.6748 4.08441C20.5214 4.23621 20.4162 4.52323 20.4162 4.90116C20.4162 5.28751 20.4964 5.56604 20.6635 5.74799C20.802 5.89068 21.0538 5.93397 21.2905 5.93397H21.6947L22.9625 3.09821H24.3103L25.8334 6.50891V3.09825H27.2031L28.7844 5.60961V3.09825H29.7058V6.70412H28.4311L26.7259 3.99768V6.70412H24.8938L24.5438 5.89979H22.675L22.3354 6.70412H21.2827C20.8455 6.70412 20.2918 6.61148 19.9783 6.30526C19.6621 5.99912 19.4978 5.58438 19.4978 4.92869C19.4976 4.39383 19.5958 3.90496 19.9826 3.51861V3.51861ZM18.1323 3.09813H19.0501V6.70412H18.1323V3.09813ZM13.9939 3.09813H16.063C16.5226 3.09813 16.8615 3.10982 17.1524 3.27085C17.4369 3.43192 17.6076 3.66708 17.6076 4.06923C17.6076 4.64421 17.207 4.9412 16.9738 5.03044C17.1705 5.10223 17.3388 5.22905 17.4189 5.33408C17.5459 5.51344 17.5678 5.67365 17.5678 5.99567V6.70407H16.6605L16.6571 6.24934C16.6571 6.03231 16.6787 5.72026 16.5151 5.54688C16.3837 5.42011 16.1832 5.3925 15.8593 5.3925H14.8937V6.70412H13.9941L13.9939 3.09813V3.09813ZM10.3675 3.09813H13.3726V3.84904H11.2672V4.49902H13.3221V5.2382H11.2672V5.95833H13.3726V6.70407H10.3675V3.09813V3.09813Z" fill="#2557D6"/>
</g>
</svg>
