<svg width="32" height="16" viewBox="0 0 32 16" fill="none" xmlns="http://www.w3.org/2000/svg">
<g id="Frame 26871">
<path id="Vector" fill-rule="evenodd" clip-rule="evenodd" d="M5.32244 8.76147L4.18237 5.98339L3.04881 8.76147H5.32244ZM16.2574 11.7685L16.2511 6.31065L13.8358 11.7685H12.3733L9.95168 6.30582V11.7685H6.56383L5.9238 10.2141H2.45566L1.80911 11.7685H0L2.98281 4.7998H5.4576L8.29054 11.3977V4.7998H11.0091L13.189 9.5272L15.1915 4.7998H17.9648V11.7685H16.2574ZM20.6157 10.3425V8.95568H24.2726V7.53353H20.6157V6.26629H24.7918L26.6137 8.29757L24.7111 10.3425H20.6157ZM31.9014 11.7951H29.737L27.6859 9.48767L25.5544 11.7951H18.9565V4.82481H25.6559L27.7053 7.10958L29.824 4.82481H32L28.7629 8.30997L31.9014 11.7951Z" fill="#002663"/>
</g>
</svg>
