<svg width="20" height="20" viewBox="0 0 20 20" fill="none" xmlns="http://www.w3.org/2000/svg">
<g id="Group 26881">
<g id="Group">
<path id="Vector" d="M18.0037 4.94938L10.3176 0.0916406C10.1243 -0.0305469 9.87796 -0.0305469 9.68472 0.0916406L1.99859 4.94938C1.77566 5.09023 1.67277 5.36152 1.74605 5.6148C1.81937 5.86812 2.05132 6.04242 2.31503 6.04242H17.6872C17.9509 6.04242 18.1828 5.86812 18.2562 5.6148C18.3296 5.36152 18.2266 5.09023 18.0037 4.94938Z" fill="#8CBCFF"/>
<path id="Vector_2" d="M16.6772 6.39648H14.6158C14.2886 6.39648 14.0234 6.66168 14.0234 6.98883V15.6644C14.0234 15.9916 14.2886 16.2568 14.6158 16.2568H16.6772C17.0043 16.2568 17.2695 15.9916 17.2695 15.6644V6.98883C17.2695 6.66168 17.0043 6.39648 16.6772 6.39648Z" fill="#8CBCFF"/>
<path id="Vector_3" d="M11.0327 6.39648H8.97125C8.6441 6.39648 8.37891 6.66168 8.37891 6.98883V15.6644C8.37891 15.9916 8.6441 16.2568 8.97125 16.2568H11.0327C11.3598 16.2568 11.625 15.9916 11.625 15.6644V6.98883C11.625 6.66168 11.3598 6.39648 11.0327 6.39648Z" fill="#8CBCFF"/>
<path id="Vector_4" d="M5.34711 6.39648H3.2857C2.95855 6.39648 2.69336 6.66168 2.69336 6.98883V15.6644C2.69336 15.9916 2.95855 16.2568 3.2857 16.2568H5.34711C5.67426 16.2568 5.93945 15.9916 5.93945 15.6644V6.98883C5.93945 6.66168 5.67422 6.39648 5.34711 6.39648Z" fill="#8CBCFF"/>
</g>
<path id="Vector_5" d="M5.34711 6.39648H4.31641V16.2571H5.34711C5.6741 16.2571 5.93945 15.9917 5.93945 15.6647V6.98883C5.93945 6.66184 5.67406 6.39648 5.34711 6.39648Z" fill="#6AA9FF"/>
<g id="Group_2">
<path id="Vector_6" d="M18.7853 4.85742H1.21629C0.608125 4.85742 0.113281 5.35223 0.113281 5.96043V7.09438C0.113281 7.70254 0.608086 8.19738 1.21629 8.19738H18.7853C19.3935 8.19738 19.8884 7.70258 19.8884 7.09438V5.96043C19.8883 5.35219 19.3935 4.85742 18.7853 4.85742Z" fill="#2682FF"/>
<path id="Vector_7" d="M17.6872 14.5039H2.315C1.98785 14.5039 1.72266 14.7691 1.72266 15.0963V17.2515C1.72266 17.5787 1.98785 17.8439 2.315 17.8439H17.6872C18.0143 17.8439 18.2795 17.5787 18.2795 17.2515V15.0963C18.2796 14.7691 18.0144 14.5039 17.6872 14.5039Z" fill="#2682FF"/>
</g>
<path id="Vector_8" d="M19.296 16.6602H0.705625C0.378477 16.6602 0.113281 16.9254 0.113281 17.2525V19.4078C0.113281 19.7349 0.378477 20.0001 0.705625 20.0001H19.296C19.6231 20.0001 19.8883 19.7349 19.8883 19.4078V17.2525C19.8884 16.9254 19.6231 16.6602 19.296 16.6602Z" fill="#0051BF"/>
<g id="Group_3">
<path id="Vector_9" d="M18.255 5.61504C18.1819 5.86816 17.9497 6.0427 17.6859 6.0427H10V0C10.1098 0 10.2196 0.0303906 10.3163 0.0916016L17.8577 4.85801L18.0026 4.94961C18.2253 5.09023 18.3284 5.36152 18.255 5.61504Z" fill="#6AA9FF"/>
<path id="Vector_10" d="M16.6752 6.39648H15.6445V16.2571H16.6752C17.0022 16.2571 17.2675 15.9917 17.2675 15.6647V6.98883C17.2675 6.66184 17.0022 6.39648 16.6752 6.39648Z" fill="#6AA9FF"/>
<path id="Vector_11" d="M11.0307 6.39648H10V16.2571H11.0307C11.3577 16.2571 11.623 15.9917 11.623 15.6647V6.98883C11.623 6.66184 11.3577 6.39648 11.0307 6.39648Z" fill="#6AA9FF"/>
</g>
<g id="Group_4">
<path id="Vector_12" d="M19.8875 5.96133V7.09508C19.8875 7.7032 19.3927 8.19805 18.7845 8.19805H10V4.8584H18.7845C19.3927 4.8584 19.8875 5.3532 19.8875 5.96133Z" fill="#046EFF"/>
<path id="Vector_13" d="M18.2782 15.0972V17.2526C18.2782 17.5796 18.0133 17.8449 17.6859 17.8449H10V14.5049H17.6859C18.0133 14.5049 18.2782 14.7702 18.2782 15.0972Z" fill="#046EFF"/>
</g>
<path id="Vector_14" d="M19.8875 17.2525V19.4079C19.8875 19.7348 19.6225 20.0002 19.2951 20.0002H10V16.6602H19.2951C19.6225 16.6602 19.8875 16.9251 19.8875 17.2525Z" fill="#00347B"/>
</g>
</svg>
