<svg width="20" height="20" viewBox="0 0 20 20" fill="none" xmlns="http://www.w3.org/2000/svg">
<g id="Group 26882">
<path id="Vector" d="M4.2046 13.1035H1.25977C2.24862 14.7263 3.74528 15.9771 5.51774 16.6621V15.5139C4.95386 14.7859 4.51054 13.9722 4.2046 13.1035Z" fill="#003F8A"/>
<path id="Vector_2" d="M8.61988 3.48067e-07C6.24885 -0.000673143 3.98222 0.976057 2.35439 2.70003C1.85971 3.2208 1.43322 3.80253 1.08537 4.43107C1.0761 4.4479 1.06785 4.46558 1.05859 4.48276H4.0819C4.96097 1.81102 6.66406 3.48067e-07 8.61988 3.48067e-07Z" fill="#005ECE"/>
<path id="Vector_3" d="M4.08271 4.48242H1.05941C0.362348 5.7501 -0.00217904 7.17369 9.79944e-06 8.62035H3.44828C3.44037 7.21629 3.65454 5.81964 4.08271 4.48242Z" fill="#004FAC"/>
<path id="Vector_4" d="M3.44828 8.62109H5.87733e-06C-0.00184623 10.203 0.434071 11.7543 1.25927 13.1038H4.20411C3.69326 11.6649 3.4375 10.1479 3.44828 8.62109Z" fill="#00479B"/>
<path id="Vector_5" d="M4.08203 4.48276H8.62001V0C6.6642 0 4.96111 1.81102 4.08203 4.48276Z" fill="#006DF0"/>
<path id="Vector_6" d="M8.62109 8.62109V11.0349H13.5866C13.7253 10.2378 13.7945 9.43012 13.7935 8.62109H8.62109Z" fill="#005ECE"/>
<path id="Vector_7" d="M13.5859 11.0349H16.8963C17.1256 10.2508 17.2416 9.43804 17.2411 8.62109H13.7929C13.7939 9.43012 13.7247 10.2378 13.5859 11.0349Z" fill="#006DF0"/>
<path id="Vector_8" d="M5.51626 15.5139V13.1035H4.20312C4.50906 13.9722 4.95238 14.7859 5.51626 15.5139Z" fill="#00479B"/>
<path id="Vector_9" d="M8.62109 1.001e-06C10.5769 1.001e-06 12.28 1.81102 13.1591 4.48276H16.1852C14.6734 1.71757 11.7725 -0.00151435 8.62109 1.001e-06Z" fill="#57A4FF"/>
<path id="Vector_10" d="M16.1844 4.48242H13.1582C13.5864 5.81964 13.8005 7.21629 13.7926 8.62035H17.2409C17.2429 7.17403 16.8794 5.75077 16.1844 4.48242Z" fill="#2488FF"/>
<path id="Vector_11" d="M13.1591 4.48276C12.28 1.81102 10.5769 0 8.62109 0V4.48276H13.1591Z" fill="#2488FF"/>
<path id="Vector_12" d="M8.61989 4.48242H4.08191C3.65373 5.81964 3.43956 7.21629 3.44748 8.62035H8.61989V4.48242Z" fill="#005ECE"/>
<path id="Vector_13" d="M3.44759 8.62109C3.43682 10.1479 3.69257 11.6649 4.20342 13.1038H5.51656V12.4142C5.51656 11.6525 6.13415 11.0349 6.89587 11.0349H8.62V8.62109H3.44759Z" fill="#004FAC"/>
<path id="Vector_14" d="M13.7935 8.62035C13.8014 7.21629 13.5872 5.81964 13.1591 4.48242H8.62109V8.62035H13.7935Z" fill="#006DF0"/>
<path id="Vector_15" d="M2.66602 13.3965V18.3489C2.66602 19.2605 3.40516 19.9997 4.31681 19.9997H18.3485C19.2602 19.9997 19.9993 19.2605 19.9993 18.3489V13.3965H2.66602Z" fill="#FFCD00"/>
<path id="Vector_16" d="M18.3485 9.26953H4.31681C3.40516 9.26953 2.66602 10.0087 2.66602 10.9203V11.7457H19.9993V10.9203C19.9993 10.0087 19.2602 9.26953 18.3485 9.26953Z" fill="#FFCD00"/>
<path id="Vector_17" d="M2.66602 11.7461H19.9993V13.3969H2.66602V11.7461Z" fill="#58595B"/>
<path id="Vector_18" d="M2.66602 13.3965V18.3489C2.66602 19.2605 3.40516 19.9997 4.31681 19.9997H10.92C6.35753 19.9997 2.66602 17.0465 2.66602 13.3965Z" fill="#EBBF00"/>
<g id="Group">
<path id="Vector_19" d="M12.1582 17.1113H13.809V17.9367H12.1582V17.1113Z" fill="#F1F2F2"/>
<path id="Vector_20" d="M15.459 17.1113H17.1098V17.9367H15.459V17.1113Z" fill="#F1F2F2"/>
<path id="Vector_21" d="M8.85547 17.1113H10.5063V17.9367H8.85547V17.1113Z" fill="#F1F2F2"/>
<path id="Vector_22" d="M5.55469 17.1113H7.20548V17.9367H5.55469V17.1113Z" fill="#F1F2F2"/>
</g>
</g>
</svg>
