<svg width="32" height="16" viewBox="0 0 32 16" fill="none" xmlns="http://www.w3.org/2000/svg">
<g id="Frame 26868">
<g id="g6321">
<g id="g6323">
<path id="path6325" d="M26.3762 12.7746C26.3762 14.5524 24.9285 16 23.1508 16H5.60156V3.2254C5.60156 1.44762 7.04918 0 8.82696 0H26.3762V12.7746V12.7746Z" fill="white"/>
<g id="g6327">
<path id="path6338" d="M20.668 9.49834H22.0013C22.0394 9.49834 22.1283 9.48565 22.1664 9.48565C22.4204 9.43485 22.6362 9.20628 22.6362 8.88882C22.6362 8.58406 22.4204 8.35549 22.1664 8.292C22.1283 8.2793 22.0521 8.2793 22.0013 8.2793H20.668V9.49834Z" fill="url(#paint0_linear_549_118088)"/>
<path id="path6349" d="M21.8472 1.08008C20.5774 1.08008 19.5361 2.10865 19.5361 3.39119V5.79119H22.7996C22.8758 5.79119 22.9647 5.79119 23.0282 5.80389C23.7647 5.84198 24.3107 6.22294 24.3107 6.88325C24.3107 7.40389 23.9425 7.84833 23.2568 7.93722V7.96262C24.006 8.01341 24.5774 8.43246 24.5774 9.08008C24.5774 9.77849 23.9425 10.2356 23.1044 10.2356H19.5234V14.934H22.9139C24.1838 14.934 25.225 13.9055 25.225 12.6229V1.08008H21.8472V1.08008Z" fill="url(#paint1_linear_549_118088)"/>
<path id="path6360" d="M22.4711 7.03529C22.4711 6.73053 22.2553 6.52736 22.0013 6.48926C21.9759 6.48926 21.9124 6.47656 21.8743 6.47656H20.668V7.59402H21.8743C21.9124 7.59402 21.9886 7.59402 22.0013 7.58132C22.2553 7.54323 22.4711 7.34005 22.4711 7.03529V7.03529Z" fill="url(#paint2_linear_549_118088)"/>
</g>
<path id="path6371" d="M9.0699 1.08008C7.80006 1.08008 6.75879 2.10865 6.75879 3.39119V9.09278C7.40641 9.41024 8.07943 9.61341 8.75244 9.61341C9.55244 9.61341 9.98419 9.13087 9.98419 8.47055V5.77849H11.9651V8.45786C11.9651 9.49913 11.3175 10.3499 9.1207 10.3499C7.78736 10.3499 6.74609 10.0579 6.74609 10.0579V14.9213H10.1366C11.4064 14.9213 12.4477 13.8928 12.4477 12.6102V1.08008H9.0699V1.08008Z" fill="url(#paint3_linear_549_118088)"/>
<path id="path6384" d="M15.4556 1.08008C14.1858 1.08008 13.1445 2.10865 13.1445 3.39119V6.41341C13.7287 5.91817 14.7445 5.60071 16.3826 5.6769C17.2588 5.715 18.1985 5.95627 18.1985 5.95627V6.93405C17.7287 6.69278 17.1699 6.4769 16.4461 6.42611C15.2017 6.33722 14.4525 6.94675 14.4525 8.01341C14.4525 9.09278 15.2017 9.7023 16.4461 9.60071C17.1699 9.54992 17.7287 9.32135 18.1985 9.09278V10.0706C18.1985 10.0706 17.2715 10.3118 16.3826 10.3499C14.7445 10.4261 13.7287 10.1086 13.1445 9.61341V14.9467H16.535C17.8048 14.9467 18.8461 13.9182 18.8461 12.6356V1.08008H15.4556V1.08008Z" fill="url(#paint4_linear_549_118088)"/>
</g>
</g>
</g>
<defs>
<linearGradient id="paint0_linear_549_118088" x1="19.5357" y1="8.89033" x2="25.242" y2="8.89033" gradientUnits="userSpaceOnUse">
<stop stop-color="#007940"/>
<stop offset="0.2285" stop-color="#00873F"/>
<stop offset="0.7433" stop-color="#40A737"/>
<stop offset="1" stop-color="#5CB531"/>
</linearGradient>
<linearGradient id="paint1_linear_549_118088" x1="19.5338" y1="8.00152" x2="25.2406" y2="8.00152" gradientUnits="userSpaceOnUse">
<stop stop-color="#007940"/>
<stop offset="0.2285" stop-color="#00873F"/>
<stop offset="0.7433" stop-color="#40A737"/>
<stop offset="1" stop-color="#5CB531"/>
</linearGradient>
<linearGradient id="paint2_linear_549_118088" x1="19.5355" y1="7.0337" x2="25.2421" y2="7.0337" gradientUnits="userSpaceOnUse">
<stop stop-color="#007940"/>
<stop offset="0.2285" stop-color="#00873F"/>
<stop offset="0.7433" stop-color="#40A737"/>
<stop offset="1" stop-color="#5CB531"/>
</linearGradient>
<linearGradient id="paint3_linear_549_118088" x1="6.7561" y1="8.00152" x2="12.5508" y2="8.00152" gradientUnits="userSpaceOnUse">
<stop stop-color="#1F286F"/>
<stop offset="0.4751" stop-color="#004E94"/>
<stop offset="0.8261" stop-color="#0066B1"/>
<stop offset="1" stop-color="#006FBC"/>
</linearGradient>
<linearGradient id="paint4_linear_549_118088" x1="13.1117" y1="8.00152" x2="18.7397" y2="8.00152" gradientUnits="userSpaceOnUse">
<stop stop-color="#6C2C2F"/>
<stop offset="0.1735" stop-color="#882730"/>
<stop offset="0.5731" stop-color="#BE1833"/>
<stop offset="0.8585" stop-color="#DC0436"/>
<stop offset="1" stop-color="#E60039"/>
</linearGradient>
</defs>
</svg>
