<svg width="26" height="16" viewBox="0 0 26 16" fill="none" xmlns="http://www.w3.org/2000/svg">
<g id="Payment Logo">
<path id="path3810" d="M16.4527 14.2029H9.44922V1.7002H16.4527V14.2029Z" fill="#FF5F00"/>
<path id="path3814" d="M9.89295 7.9519C9.89295 5.41568 11.0883 3.15648 12.9499 1.70056C11.5886 0.635924 9.87056 0.000478745 8.00341 0.000478745C3.58314 0.000478745 0 3.56039 0 7.9519C0 12.3434 3.58314 15.9033 8.00341 15.9033C9.87056 15.9033 11.5886 15.2679 12.9499 14.2032C11.0883 12.7473 9.89295 10.4881 9.89295 7.9519Z" fill="#EB001B"/>
<path id="path3822" d="M25.8996 7.9519C25.8996 12.3434 22.3165 15.9033 17.8962 15.9033C16.0291 15.9033 14.311 15.2679 12.9492 14.2032C14.8113 12.7473 16.0067 10.4881 16.0067 7.9519C16.0067 5.41568 14.8113 3.15648 12.9492 1.70056C14.311 0.635924 16.0291 0.000478745 17.8962 0.000478745C22.3165 0.000478745 25.8996 3.56039 25.8996 7.9519Z" fill="#F79E1B"/>
</g>
</svg>
