<svg width="30" height="20" viewBox="0 0 30 20" fill="none" xmlns="http://www.w3.org/2000/svg">
<g id="payment 1" clip-path="url(#clip0_549_118148)">
<path id="Vector" d="M25.6562 2.2666H30.1226V11.9546H25.6562V2.2666Z" fill="#004FAC"/>
<path id="Vector_2" d="M23.293 3.38281H25.6575V10.8377H23.293V3.38281Z" fill="#006DF0"/>
<g id="Group 1000002078">
<path id="Vector_3" d="M19.7984 13.6774C19.7984 13.6774 14.659 18.8168 13.5095 19.9664C13.5095 19.9664 0.0186669 6.47557 -0.150391 6.30652L5.50195 0.5" fill="#14C159"/>
<path id="Vector_4" d="M8.00195 3C7.86671 3.13525 7.89028 3.33299 7.72122 3.43443C7.34929 3.67111 6.94355 3.84017 6.47019 3.90779C5.55728 4.04303 4.14437 3.17623 3.50195 2.5L5.50195 0.5L8.00195 3Z" fill="#06997E"/>
<path id="Vector_5" d="M19.8078 13.678L17.7453 15.7743C16.6633 14.6923 16.5957 12.968 17.5762 11.8184C17.6438 11.8522 17.8467 11.9198 18.151 12.0212L19.8078 13.678Z" fill="#06997E"/>
<path id="Vector_6" d="M15.5787 17.9042L13.5162 20.0005L11.4199 17.9042C12.5695 16.7546 14.4291 16.7546 15.5787 17.9042Z" fill="#06997E"/>
<path id="Vector_7" d="M11.1081 11.2774C10.398 11.9874 9.24843 11.9874 8.53839 11.2774C7.82835 10.5673 7.82835 9.41774 8.53839 8.70769C9.21462 8.03146 10.2966 7.99765 11.0066 8.60626C11.1081 8.80913 11.2433 8.97819 11.4124 9.11343C11.8181 9.82347 11.6829 10.7026 11.1081 11.2774Z" fill="#06997E"/>
<path id="Vector_8" d="M2.08117 8.19948C2.01354 8.2671 1.97973 8.33472 1.91211 8.40235L-0.150391 6.33985L1.91211 4.27734C2.08117 4.4464 2.25023 4.64927 2.38547 4.88595C2.99408 5.9003 2.89264 7.25276 2.08117 8.19948Z" fill="#06997E"/>
</g>
<path id="Vector_9" d="M23.2941 3.38301V10.8378C22.079 12.5127 19.9772 13.1695 17.9411 12.6441C17.7112 12.5784 17.3828 12.447 17.3499 12.4142L11.9969 10.2467C11.5371 10.0497 11.1759 9.72126 10.946 9.36002C10.322 8.34195 10.6504 7.02833 11.6028 6.40435C10.7818 5.58333 9.20542 4.00698 8.35156 3.15312L13.1135 1.34688C14.2301 0.919951 15.4123 0.88711 16.5617 1.24836L23.2941 3.38301Z" fill="#EFB8A0"/>
<path id="Vector_10" d="M11.6335 6.37169C12.0604 6.10896 12.5859 6.07612 13.0128 6.27317L17.8076 8.21077C17.8733 8.24361 17.9389 8.24361 18.0375 8.24361C18.3659 8.24361 18.6286 7.98088 18.6286 7.65248C18.6286 7.42259 18.4972 7.19271 18.2673 7.12703L13.4726 5.18942C12.6187 4.86102 11.6664 4.95954 10.911 5.45215C10.8782 5.48499 10.8453 5.48499 10.8125 5.51783L11.2066 5.91192L11.6335 6.37169Z" fill="#DE9273"/>
</g>
<defs>
<clipPath id="clip0_549_118148">
<rect width="30" height="20" fill="white"/>
</clipPath>
</defs>
</svg>
