<svg width="32" height="12" viewBox="0 0 32 12" fill="none" xmlns="http://www.w3.org/2000/svg">
<path id="visa-logo" fill-rule="evenodd" clip-rule="evenodd" d="M8.00033 11.1744H5.23094L3.15422 3.01863C3.05565 2.64346 2.84636 2.31179 2.5385 2.15547C1.7702 1.76264 0.923583 1.45 0 1.29232V0.97832H4.46128C5.077 0.97832 5.5388 1.45 5.61576 1.99779L6.69327 7.88084L9.46132 0.97832H12.1538L8.00033 11.1744ZM13.6905 11.1744H11.075L13.2287 0.97832H15.8441L13.6905 11.1744ZM19.2331 3.80294C19.31 3.25379 19.7718 2.93979 20.3106 2.93979C21.1572 2.86095 22.0794 3.01863 22.8491 3.41011L23.3109 1.21484C22.5412 0.900843 21.6946 0.743164 20.9263 0.743164C18.3878 0.743164 16.5406 2.15548 16.5406 4.11558C16.5406 5.60673 17.849 6.38969 18.7726 6.86137C19.7718 7.33168 20.1566 7.64568 20.0797 8.116C20.0797 8.82148 19.31 9.13547 18.5417 9.13547C17.6181 9.13547 16.6946 8.90031 15.8493 8.50748L15.3875 10.7041C16.3111 11.0956 17.3103 11.2533 18.2339 11.2533C21.0802 11.3307 22.8491 9.91979 22.8491 7.802C22.8491 5.13506 19.2331 4.97874 19.2331 3.80294ZM31.9992 11.1744L29.9225 0.97832H27.6918C27.23 0.97832 26.7682 1.29232 26.6143 1.76264L22.7688 11.1744H25.4612L25.9986 9.68463H29.3067L29.6146 11.1744H31.9992ZM28.0791 3.72441L28.8474 7.56715H26.6938L28.0791 3.72441Z" fill="#172B85"/>
</svg>
